# Blender v3.0.1 OBJ File: 'Intercom.blend'
# www.blender.org
mtllib Intercom.mtl
o Plane
v -0.100000 -0.100000 -0.000000
v 0.035783 -0.100000 -0.000000
v -0.100000 0.100000 0.000000
v 0.035783 0.100000 0.000000
v -0.100000 0.100000 0.012311
v -0.100000 -0.100000 0.012311
v 0.035783 -0.100000 0.012311
v 0.035783 0.100000 0.012311
v -0.084394 0.077013 0.014795
v -0.084394 -0.077013 0.014795
v 0.020177 -0.077013 0.014795
v 0.020177 0.077013 0.014795
v -0.084394 0.077013 0.019229
v -0.084394 -0.077013 0.019229
v 0.020177 -0.077013 0.019229
v 0.020177 0.077013 0.019229
v -0.084394 0.059899 0.019229
v -0.084394 0.042785 0.019229
v -0.084394 0.025671 0.019229
v -0.061156 -0.077013 0.019229
v -0.003061 -0.077013 0.019229
v 0.020177 0.025671 0.019229
v 0.020177 0.042785 0.019229
v 0.020177 0.059899 0.019229
v -0.072775 0.025671 0.019229
v -0.072775 0.042785 0.019229
v -0.072775 0.059899 0.019229
v -0.061156 -0.059899 0.019229
v -0.061156 -0.042785 0.019229
v -0.061156 -0.025671 0.019229
v -0.061156 -0.008557 0.019229
v -0.061156 0.008557 0.019229
v -0.061156 0.025671 0.019229
v -0.049537 -0.059899 0.019229
v -0.049537 -0.042785 0.019229
v -0.049537 -0.025671 0.019229
v -0.049537 -0.008557 0.019229
v -0.049537 0.008557 0.019229
v -0.049537 0.025671 0.019229
v -0.037918 -0.059899 0.019229
v -0.037918 -0.042785 0.019229
v -0.037918 -0.025671 0.019229
v -0.037918 -0.008557 0.019229
v -0.037918 0.008557 0.019229
v -0.037918 0.025671 0.019229
v -0.026299 -0.059899 0.019229
v -0.026299 -0.042785 0.019229
v -0.026299 -0.025671 0.019229
v -0.026299 -0.008557 0.019229
v -0.026299 0.008557 0.019229
v -0.026299 0.025671 0.019229
v -0.014680 -0.059899 0.019229
v -0.014680 -0.042785 0.019229
v -0.014680 -0.025671 0.019229
v -0.014680 -0.008557 0.019229
v -0.014680 0.008557 0.019229
v -0.014680 0.025671 0.019229
v -0.003061 -0.059899 0.019229
v -0.003061 -0.042785 0.019229
v -0.003061 -0.025671 0.019229
v -0.003061 -0.008557 0.019229
v -0.003061 0.008557 0.019229
v -0.003061 0.025671 0.019229
v 0.008558 0.025671 0.019229
v 0.008558 0.042785 0.019229
v 0.008558 0.059899 0.019229
v -0.061156 -0.059899 0.021560
v -0.061156 -0.042785 0.021560
v -0.061156 -0.025671 0.021560
v -0.061156 -0.008557 0.021560
v -0.061156 0.008557 0.021560
v -0.061156 0.025671 0.021560
v -0.049537 -0.059899 0.021560
v -0.049537 -0.042785 0.021560
v -0.049537 -0.025671 0.021560
v -0.049537 -0.008557 0.021560
v -0.049537 0.008557 0.021560
v -0.049537 0.025671 0.021560
v -0.037918 -0.059899 0.021560
v -0.037918 -0.042785 0.021560
v -0.037918 -0.025671 0.021560
v -0.037918 -0.008557 0.021560
v -0.037918 0.008557 0.021560
v -0.037918 0.025671 0.021560
v -0.026299 -0.059899 0.021560
v -0.026299 -0.042785 0.021560
v -0.026299 -0.025671 0.021560
v -0.026299 -0.008557 0.021560
v -0.026299 0.008557 0.021560
v -0.026299 0.025671 0.021560
v -0.014680 -0.059899 0.021560
v -0.014680 -0.042785 0.021560
v -0.014680 -0.025671 0.021560
v -0.014680 -0.008557 0.021560
v -0.014680 0.008557 0.021560
v -0.014680 0.025671 0.021560
v -0.003061 -0.059899 0.021560
v -0.003061 -0.042785 0.021560
v -0.003061 -0.025671 0.021560
v -0.003061 -0.008557 0.021560
v -0.003061 0.008557 0.021560
v -0.003061 0.025671 0.021560
v -0.072775 0.042785 0.017967
v -0.072775 0.059899 0.017967
v 0.008558 0.042785 0.017967
v 0.008558 0.059899 0.017967
v -0.036892 -0.077013 0.019229
v -0.027325 -0.077013 0.019229
v -0.061156 -0.071308 0.019229
v -0.061156 -0.065604 0.019229
v -0.003061 -0.071308 0.019229
v -0.003061 -0.065604 0.019229
v -0.053410 -0.059899 0.019229
v -0.057283 -0.059899 0.019229
v -0.006934 -0.059899 0.019229
v -0.010807 -0.059899 0.019229
v -0.036808 -0.063990 0.025560
v -0.035978 -0.077834 0.025560
v -0.028238 -0.077834 0.025560
v -0.027409 -0.063990 0.025560
vt 0.457316 0.000510
vt 0.457316 0.673354
vt 0.000510 0.673354
vt 0.000511 0.000510
vt 0.644490 0.000510
vt 0.644490 0.457316
vt 0.566706 0.404813
vt 0.566706 0.053013
vt 0.909202 0.346983
vt 0.909202 0.803788
vt 0.867786 0.803788
vt 0.867786 0.346983
vt 0.951639 0.346983
vt 0.951639 0.803788
vt 0.910223 0.803788
vt 0.910223 0.346983
vt 0.808169 0.000510
vt 0.808169 0.673352
vt 0.766753 0.673352
vt 0.766752 0.000510
vt 0.724315 0.673352
vt 0.724316 0.000511
vt 0.765732 0.000510
vt 0.765732 0.673352
vt 0.581622 0.458337
vt 0.581622 0.976512
vt 0.566707 0.976512
vt 0.566706 0.918937
vt 0.566706 0.861362
vt 0.566706 0.803786
vt 0.566707 0.458337
vt 0.723294 0.000510
vt 0.723294 0.457316
vt 0.645511 0.404813
vt 0.645511 0.053013
vt 0.511501 0.000510
vt 0.511501 0.673353
vt 0.458337 0.596020
vt 0.458337 0.077844
vt 0.565686 0.000510
vt 0.565686 0.673353
vt 0.512522 0.596020
vt 0.512522 0.077844
vt 0.967576 0.346983
vt 0.967576 0.865155
vt 0.952661 0.865155
vt 0.952660 0.519714
vt 0.952660 0.462132
vt 0.952661 0.404558
vt 0.952661 0.346983
vt 0.999490 0.346983
vt 0.999490 0.698785
vt 0.984574 0.698785
vt 0.984574 0.346983
vt 0.983553 0.346983
vt 0.983553 0.699740
vt 0.968966 0.699774
vt 0.968786 0.623320
vt 0.968597 0.543488
vt 0.968597 0.507225
vt 0.968597 0.425374
vt 0.968597 0.346983
vt 0.723294 0.803788
vt 0.645117 0.803789
vt 0.645117 0.784597
vt 0.645117 0.765405
vt 0.645117 0.746213
vt 0.645117 0.688638
vt 0.645117 0.631062
vt 0.645117 0.573487
vt 0.645117 0.515912
vt 0.645117 0.458337
vt 0.684205 0.458337
vt 0.723294 0.458337
vt 0.507089 0.731950
vt 0.468000 0.731950
vt 0.468000 0.674374
vt 0.507089 0.674374
vt 0.299153 0.949520
vt 0.299153 0.988608
vt 0.241578 0.988608
vt 0.241578 0.949520
vt 0.336031 0.811717
vt 0.375120 0.811717
vt 0.375120 0.819558
vt 0.336031 0.819558
vt 0.008352 0.757025
vt 0.008352 0.770054
vt 0.008352 0.783084
vt 0.008352 0.796114
vt 0.000510 0.796114
vt 0.000510 0.757025
vt 0.317545 0.785131
vt 0.375120 0.785131
vt 0.375120 0.792972
vt 0.317545 0.792972
vt 0.051999 0.934232
vt 0.091088 0.934232
vt 0.091088 0.991807
vt 0.051999 0.991807
vt 0.375120 0.753574
vt 0.317545 0.753574
vt 0.317545 0.714485
vt 0.375120 0.714485
vt 0.257928 0.674375
vt 0.257928 0.713464
vt 0.200352 0.713464
vt 0.200352 0.674375
vt 0.199331 0.674375
vt 0.199331 0.713464
vt 0.141756 0.713464
vt 0.141756 0.674375
vt 0.166416 0.854012
vt 0.166416 0.893101
vt 0.108841 0.893101
vt 0.108841 0.854012
vt 0.507089 0.780922
vt 0.449514 0.780922
vt 0.449514 0.773080
vt 0.507089 0.773080
vt 0.116682 0.780922
vt 0.059107 0.780922
vt 0.059107 0.773081
vt 0.116682 0.773081
vt 0.027747 0.814600
vt 0.027747 0.757025
vt 0.035589 0.757025
vt 0.035589 0.814600
vt 0.247622 0.846874
vt 0.247622 0.885963
vt 0.190047 0.885963
vt 0.190047 0.846874
vt 0.116682 0.772060
vt 0.059107 0.772060
vt 0.059107 0.732971
vt 0.116682 0.732971
vt 0.200352 0.753574
vt 0.200352 0.714485
vt 0.257928 0.714485
vt 0.257928 0.753574
vt 0.218839 0.754595
vt 0.257928 0.754595
vt 0.257928 0.812170
vt 0.218839 0.812170
vt 0.005737 0.937923
vt 0.044826 0.937923
vt 0.044826 0.995498
vt 0.005737 0.995498
vt 0.781890 0.674373
vt 0.781890 0.713462
vt 0.781890 0.752551
vt 0.781890 0.791640
vt 0.781890 0.830728
vt 0.781890 0.869817
vt 0.724315 0.869817
vt 0.724315 0.830728
vt 0.724315 0.791640
vt 0.724315 0.752551
vt 0.724315 0.713462
vt 0.724315 0.674373
vt 0.116682 0.807509
vt 0.059107 0.807509
vt 0.059107 0.799668
vt 0.116682 0.799668
vt 0.565686 0.674374
vt 0.565686 0.713463
vt 0.565686 0.752552
vt 0.565686 0.791641
vt 0.565686 0.830730
vt 0.565686 0.869819
vt 0.508110 0.869819
vt 0.508110 0.830730
vt 0.508110 0.791641
vt 0.508110 0.752552
vt 0.508110 0.713463
vt 0.508110 0.674374
vt 0.434737 0.753574
vt 0.434737 0.714485
vt 0.442578 0.714485
vt 0.442578 0.753574
vt 0.808169 0.674373
vt 0.808169 0.932299
vt 0.803667 0.932308
vt 0.803667 0.674381
vt 0.125544 0.732971
vt 0.125544 0.790547
vt 0.117703 0.790547
vt 0.117703 0.732971
vt 0.159802 0.908150
vt 0.159802 0.947239
vt 0.102226 0.947239
vt 0.102226 0.908150
vt 0.114676 0.731951
vt 0.101646 0.731951
vt 0.062557 0.731951
vt 0.059107 0.674375
vt 0.140735 0.674375
vt 0.140735 0.693567
vt 0.140735 0.712759
vt 0.140735 0.731951
vt 0.127706 0.731951
vt 0.225170 0.906426
vt 0.225170 0.945515
vt 0.167594 0.945515
vt 0.167594 0.906426
vt 0.644096 0.771048
vt 0.644096 0.810137
vt 0.586520 0.810137
vt 0.586520 0.458337
vt 0.644096 0.458337
vt 0.644096 0.497425
vt 0.316524 0.714485
vt 0.316524 0.753574
vt 0.258949 0.753574
vt 0.258949 0.714485
vt 0.169435 0.991533
vt 0.169435 0.952444
vt 0.227010 0.952444
vt 0.227010 0.991533
vt 0.159339 0.954411
vt 0.159339 0.993500
vt 0.101764 0.993500
vt 0.101764 0.954411
vt 0.375120 0.801834
vt 0.317545 0.801834
vt 0.317545 0.793993
vt 0.375120 0.793993
vt 0.449514 0.790805
vt 0.507089 0.790805
vt 0.507089 0.798646
vt 0.449514 0.798646
vt 0.586520 0.811158
vt 0.625609 0.811158
vt 0.625609 0.818999
vt 0.586520 0.818999
vt 0.376141 0.804961
vt 0.415230 0.804961
vt 0.415230 0.812802
vt 0.376141 0.812802
vt 0.258949 0.812429
vt 0.298037 0.812429
vt 0.298037 0.820270
vt 0.258949 0.820270
vt 0.116682 0.789785
vt 0.059107 0.789785
vt 0.059107 0.781943
vt 0.116682 0.781943
vt 0.788434 0.731948
vt 0.788434 0.674373
vt 0.796275 0.674373
vt 0.796275 0.731948
vt 0.449514 0.799667
vt 0.507089 0.799667
vt 0.507089 0.807508
vt 0.449514 0.807508
vt 0.376141 0.796099
vt 0.415230 0.796099
vt 0.415230 0.803940
vt 0.376141 0.803940
vt 0.507089 0.789784
vt 0.449514 0.789784
vt 0.449514 0.781942
vt 0.507089 0.781942
vt 0.626630 0.811158
vt 0.665719 0.811158
vt 0.665719 0.818999
vt 0.626630 0.818999
vt 0.059107 0.808530
vt 0.098196 0.808530
vt 0.098196 0.816371
vt 0.059107 0.816371
vt 0.218839 0.813191
vt 0.257928 0.813191
vt 0.257928 0.821032
vt 0.218839 0.821032
vt 0.177708 0.821032
vt 0.164679 0.821032
vt 0.151649 0.821032
vt 0.138619 0.821032
vt 0.138619 0.813191
vt 0.177708 0.813191
vt 0.059107 0.790805
vt 0.116682 0.790805
vt 0.116682 0.798647
vt 0.059107 0.798647
vt 0.684205 0.804809
vt 0.723294 0.804809
vt 0.723294 0.812651
vt 0.684205 0.812651
vt 0.316524 0.802546
vt 0.258949 0.802546
vt 0.258949 0.794704
vt 0.316524 0.794704
vt 0.376141 0.813823
vt 0.415230 0.813823
vt 0.415230 0.821664
vt 0.376141 0.821664
vt 0.449514 0.808529
vt 0.488603 0.808529
vt 0.488603 0.816370
vt 0.449514 0.816370
vt 0.217818 0.821032
vt 0.178729 0.821032
vt 0.178729 0.813191
vt 0.217818 0.813191
vt 0.788434 0.790545
vt 0.788434 0.732969
vt 0.796275 0.732969
vt 0.796275 0.790545
vt 0.376141 0.787236
vt 0.415230 0.787236
vt 0.415230 0.795078
vt 0.376141 0.795078
vt 0.316524 0.811408
vt 0.258949 0.811408
vt 0.258949 0.803567
vt 0.316524 0.803567
vt 0.126565 0.790547
vt 0.126565 0.732971
vt 0.134406 0.732971
vt 0.134406 0.790547
vt 0.723294 0.821513
vt 0.684205 0.821513
vt 0.684205 0.813671
vt 0.723294 0.813671
vt 0.375120 0.810696
vt 0.317545 0.810696
vt 0.317545 0.802855
vt 0.375120 0.802855
vt 0.488603 0.825232
vt 0.449514 0.825232
vt 0.449514 0.817391
vt 0.488603 0.817391
vt 0.978518 0.012912
vt 0.978518 0.286534
vt 0.920942 0.286534
vt 0.920942 0.012912
vt 0.797296 0.731948
vt 0.797296 0.674373
vt 0.801540 0.674373
vt 0.801540 0.731948
vt 0.466980 0.674374
vt 0.466980 0.731949
vt 0.462736 0.731949
vt 0.462736 0.674374
vt 0.782911 0.674373
vt 0.787413 0.674382
vt 0.787413 0.932309
vt 0.782911 0.932300
vt 0.809190 0.698783
vt 0.809190 0.659694
vt 0.809190 0.620605
vt 0.809190 0.581517
vt 0.809190 0.542428
vt 0.809190 0.503339
vt 0.809190 0.464250
vt 0.809190 0.425161
vt 0.809190 0.386072
vt 0.809190 0.346983
vt 0.866765 0.346983
vt 0.866765 0.386072
vt 0.866765 0.659694
vt 0.866765 0.698783
vt 0.809190 0.000510
vt 0.887367 0.000510
vt 0.887367 0.345962
vt 0.848279 0.345962
vt 0.809190 0.345962
vt 0.809190 0.288387
vt 0.809190 0.230812
vt 0.809190 0.173236
vt 0.809190 0.115661
vt 0.809190 0.058086
vt 0.809190 0.038894
vt 0.809190 0.019702
vt 0.000510 0.674375
vt 0.058086 0.677826
vt 0.058086 0.716915
vt 0.058086 0.729945
vt 0.058086 0.742974
vt 0.058086 0.756004
vt 0.038894 0.756004
vt 0.019702 0.756004
vt 0.000510 0.756004
vt 0.253102 0.929841
vt 0.253102 0.903803
vt 0.299677 0.901011
vt 0.299677 0.932632
vt 0.036609 0.789212
vt 0.036609 0.757025
vt 0.058086 0.760100
vt 0.058086 0.786137
vt 0.374691 0.776290
vt 0.317545 0.784110
vt 0.328463 0.760920
vt 0.374691 0.754595
vt 0.423737 0.815215
vt 0.423737 0.757536
vt 0.445232 0.754595
vt 0.445232 0.801254
vt 0.434737 0.674375
vt 0.460095 0.678109
vt 0.460095 0.709730
vt 0.434737 0.713464
vn 0.0000 0.0000 -1.0000
vn 0.0000 0.1075 0.9942
vn 0.0000 1.0000 0.0000
vn 0.0000 -1.0000 0.0000
vn 1.0000 0.0000 0.0000
vn -1.0000 0.0000 0.0000
vn 0.0000 -0.1075 0.9942
vn 0.1572 -0.0000 0.9876
vn -0.1572 -0.0000 0.9876
vn 0.0000 -0.0000 1.0000
vn 0.0000 -0.9917 -0.1286
vn 0.9891 -0.0593 0.1351
vn -0.9891 -0.0593 0.1351
vn 0.0000 0.8399 0.5427
usemtl Material
s off
f 1/1/1 3/2/1 4/3/1 2/4/1
f 8/5/2 5/6/2 9/7/2 12/8/2
f 4/9/3 3/10/3 5/11/3 8/12/3
f 1/13/4 2/14/4 7/15/4 6/16/4
f 2/17/5 4/18/5 8/19/5 7/20/5
f 3/21/6 1/22/6 6/23/6 5/24/6
f 11/25/5 12/26/5 16/27/5 24/28/5 23/29/5 22/30/5 15/31/5
f 6/32/7 7/33/7 11/34/7 10/35/7
f 7/36/8 8/37/8 12/38/8 11/39/8
f 5/40/9 6/41/9 10/42/9 9/43/9
f 9/44/6 10/45/6 14/46/6 19/47/6 18/48/6 17/49/6 13/50/6
f 12/51/3 9/52/3 13/53/3 16/54/3
f 10/55/4 11/56/4 15/57/4 21/58/4 108/59/4 107/60/4 20/61/4 14/62/4
f 14/63/10 20/64/10 109/65/10 110/66/10 28/67/10 29/68/10 30/69/10 31/70/10 32/71/10 33/72/10 25/73/10 19/74/10
f 18/75/10 26/76/10 27/77/10 17/78/10
f 91/79/10 97/80/10 98/81/10 92/82/10
f 35/83/3 29/84/3 68/85/3 74/86/3
f 28/87/4 114/88/4 113/89/4 34/90/4 73/91/4 67/92/4
f 53/93/6 52/94/6 91/95/6 92/96/6
f 83/97/10 89/98/10 90/99/10 84/100/10
f 40/101/10 41/102/10 35/103/10 34/104/10
f 36/105/10 42/106/10 43/107/10 37/108/10
f 38/109/10 44/110/10 45/111/10 39/112/10
f 81/113/10 87/114/10 88/115/10 82/116/10
f 34/117/5 35/118/5 74/119/5 73/120/5
f 62/121/5 63/122/5 102/123/5 101/124/5
f 45/125/6 44/126/6 83/127/6 84/128/6
f 79/129/10 85/130/10 86/131/10 80/132/10
f 52/133/10 53/134/10 47/135/10 46/136/10
f 48/137/10 54/138/10 55/139/10 49/140/10
f 50/141/10 56/142/10 57/143/10 51/144/10
f 71/145/10 77/146/10 78/147/10 72/148/10
f 29/149/10 35/150/10 41/151/10 47/152/10 53/153/10 59/154/10 60/155/10 54/156/10 48/157/10 42/158/10 36/159/10 30/160/10
f 60/161/5 61/162/5 100/163/5 99/164/5
f 31/165/10 37/166/10 43/167/10 49/168/10 55/169/10 61/170/10 62/171/10 56/172/10 50/173/10 44/174/10 38/175/10 32/176/10
f 63/177/3 57/178/3 96/179/3 102/180/3
f 26/181/3 65/182/3 105/183/3 103/184/3
f 43/185/6 42/186/6 81/187/6 82/188/6
f 69/189/10 75/190/10 76/191/10 70/192/10
f 116/193/10 52/194/10 46/195/10 108/196/10 21/197/10 111/198/10 112/199/10 58/200/10 115/201/10
f 67/202/10 73/203/10 74/204/10 68/205/10
f 66/206/10 24/207/10 16/208/10 13/209/10 17/210/10 27/211/10
f 65/212/10 23/213/10 24/214/10 66/215/10
f 93/216/10 99/217/10 100/218/10 94/219/10
f 95/220/10 101/221/10 102/222/10 96/223/10
f 36/224/5 37/225/5 76/226/5 75/227/5
f 55/228/6 54/229/6 93/230/6 94/231/6
f 30/232/4 36/233/4 75/234/4 69/235/4
f 40/236/4 46/237/4 85/238/4 79/239/4
f 37/240/3 31/241/3 70/242/3 76/243/3
f 38/244/5 39/245/5 78/246/5 77/247/5
f 57/248/6 56/249/6 95/250/6 96/251/6
f 29/252/6 28/253/6 67/254/6 68/255/6
f 47/256/3 41/257/3 80/258/3 86/259/3
f 46/260/5 47/261/5 86/262/5 85/263/5
f 32/264/4 38/265/4 77/266/4 71/267/4
f 42/268/4 48/269/4 87/270/4 81/271/4
f 39/272/3 33/273/3 72/274/3 78/275/3
f 52/276/4 116/277/4 115/278/4 58/279/4 97/280/4 91/281/4
f 31/282/6 30/283/6 69/284/6 70/285/6
f 49/286/3 43/287/3 82/288/3 88/289/3
f 48/290/5 49/291/5 88/292/5 87/293/5
f 59/294/3 53/295/3 92/296/3 98/297/3
f 44/298/4 50/299/4 89/300/4 83/301/4
f 54/302/4 60/303/4 99/304/4 93/305/4
f 33/306/6 32/307/6 71/308/6 72/309/6
f 51/310/3 45/311/3 84/312/3 90/313/3
f 50/314/5 51/315/5 90/316/5 89/317/5
f 41/318/6 40/319/6 79/320/6 80/321/6
f 61/322/3 55/323/3 94/324/3 100/325/3
f 58/326/5 59/327/5 98/328/5 97/329/5
f 56/330/4 62/331/4 101/332/4 95/333/4
f 103/334/10 105/335/10 106/336/10 104/337/10
f 27/338/5 26/339/5 103/340/5 104/341/5
f 65/342/6 66/343/6 106/344/6 105/345/6
f 27/346/4 104/347/4 106/348/4 66/349/4
f 19/350/10 25/351/10 33/352/10 39/353/10 45/354/10 51/355/10 57/356/10 63/357/10 64/358/10 22/359/10 23/360/10 65/361/10 26/362/10 18/363/10
f 21/364/10 15/365/10 22/366/10 64/367/10 63/368/10 62/369/10 61/370/10 60/371/10 59/372/10 58/373/10 112/374/10 111/375/10
f 107/376/10 40/377/10 34/378/10 113/379/10 114/380/10 28/381/10 110/382/10 109/383/10 20/384/10
f 118/385/10 119/386/10 120/387/10 117/388/10
f 107/389/11 108/390/11 119/391/11 118/392/11
f 108/393/12 46/394/12 120/395/12 119/396/12
f 40/397/13 107/398/13 118/399/13 117/400/13
f 40/401/14 117/402/14 120/403/14 46/404/14
