# Blender v2.91.0 OBJ File: 'Mail.blend'
# www.blender.org
mtllib Mail.mtl
o Cube_Cube.001
v -0.250000 -0.250000 0.982870
v -0.250000 0.250000 0.982870
v -0.250000 -0.250000 -0.968051
v -0.250000 0.250000 -0.968051
v 0.250000 -0.250000 0.982870
v 0.250000 0.250000 0.982870
v 0.250000 -0.250000 -0.968051
v 0.250000 0.250000 -0.968051
v -0.250000 -0.250000 -0.914690
v -0.250000 -0.250000 -0.470650
v -0.250000 0.250000 -0.470650
v -0.250000 0.250000 -0.914690
v 0.250000 -0.250000 -0.470650
v 0.250000 -0.250000 -0.914690
v 0.250000 0.250000 -0.914690
v 0.250000 0.250000 -0.470650
v -0.250000 0.072890 0.982870
v -0.250000 0.178962 0.982870
v -0.250000 0.178962 -0.968051
v -0.250000 0.072890 -0.968051
v 0.250000 0.178962 -0.968051
v 0.250000 0.072890 -0.968051
v 0.250000 0.178962 0.982870
v 0.250000 0.072890 0.982870
v 0.250000 0.178962 -0.914690
v 0.250000 0.072890 -0.914690
v 0.250000 0.178962 -0.470650
v 0.250000 0.072890 -0.470650
v -0.250000 0.178962 -0.470650
v -0.250000 0.072890 -0.470650
v -0.250000 0.178962 -0.914690
v -0.250000 0.072890 -0.914690
v 0.382759 0.177166 -0.907174
v 0.382759 0.074686 -0.907174
v 0.382759 0.177166 -0.478167
v 0.382759 0.074686 -0.478167
v 0.299703 0.165898 -0.525339
v 0.333056 0.165898 -0.525339
v 0.333056 0.165898 -0.860002
v 0.299703 0.165898 -0.860002
v 0.299703 0.085954 -0.525339
v 0.333056 0.085954 -0.525339
v 0.333056 0.085954 -0.860002
v 0.299703 0.085954 -0.860002
v 0.391520 0.176361 -0.903801
v 0.391520 0.075491 -0.903801
v 0.391520 0.176361 -0.481539
v 0.391520 0.075491 -0.481539
v 0.401303 0.161294 -0.840731
v 0.401303 0.090557 -0.840731
v 0.401303 0.161294 -0.544610
v 0.401303 0.090557 -0.544610
v -0.250000 -0.034740 -0.968051
v -0.250000 -0.142370 -0.968051
v 0.250000 -0.034740 -0.968051
v 0.250000 -0.142370 -0.968051
v 0.250000 -0.034740 0.982870
v 0.250000 -0.142370 0.982870
v 0.250000 -0.034740 -0.914690
v 0.250000 -0.142370 -0.914690
v 0.250000 -0.034740 -0.470650
v 0.250000 -0.142370 -0.470650
v -0.250000 -0.034740 -0.470650
v -0.250000 -0.142370 -0.470650
v -0.250000 -0.034740 -0.914690
v -0.250000 -0.142370 -0.914690
v -0.250000 -0.142370 0.982870
v -0.250000 -0.034740 0.982870
v -0.250000 -0.250000 0.894097
v 0.250000 0.250000 0.894097
v -0.250000 0.250000 0.894097
v 0.250000 -0.250000 0.894097
v -0.250000 0.072890 0.894097
v -0.250000 0.178962 0.894097
v 0.250000 0.072890 0.894097
v 0.250000 0.178962 0.894097
v 0.250000 -0.142370 0.894097
v 0.250000 -0.034740 0.894097
v -0.250000 -0.142370 0.894097
v -0.250000 -0.034740 0.894097
v 0.195198 0.178962 -0.470650
v 0.195198 0.072890 -0.470650
v 0.195198 0.072890 0.894097
v 0.195198 0.178962 0.894097
v 0.226024 0.072890 0.894097
v 0.226024 0.178962 0.894097
v 0.226024 0.178962 -0.470650
v 0.226024 0.072890 -0.470650
v 0.150807 0.028936 -0.470650
v 0.150807 0.028936 0.894097
v 0.181633 0.028936 0.894097
v 0.181633 0.028936 -0.470650
vt 0.653110 0.768050
vt 0.681849 0.768049
vt 0.681849 0.789637
vt 0.653110 0.789637
vt 0.740794 0.334772
vt 0.769534 0.334772
vt 0.769534 0.537053
vt 0.740794 0.537053
vt 0.580712 0.753722
vt 0.609452 0.753722
vt 0.609452 0.789636
vt 0.580712 0.789636
vt 0.726621 0.334027
vt 0.697882 0.334027
vt 0.697882 0.131747
vt 0.726621 0.131747
vt 0.405679 0.036287
vt 0.203398 0.036287
vt 0.203398 0.000373
vt 0.405679 0.000373
vt 0.202653 0.036287
vt 0.000373 0.036287
vt 0.000373 0.000373
vt 0.202653 0.000373
vt 0.202653 0.789638
vt 0.000373 0.789638
vt 0.000373 0.768050
vt 0.202653 0.768050
vt 0.000373 0.588410
vt 0.202653 0.588410
vt 0.405679 0.789638
vt 0.203398 0.789638
vt 0.203398 0.768050
vt 0.405679 0.768050
vt 0.203398 0.588409
vt 0.405679 0.588409
vt 0.580713 0.000373
vt 0.609452 0.000373
vt 0.609452 0.021960
vt 0.580713 0.021960
vt 0.609452 0.201600
vt 0.580712 0.201600
vt 0.653110 0.036287
vt 0.681849 0.036287
vt 0.681849 0.588408
vt 0.653110 0.588408
vt 0.588406 0.833927
vt 0.588406 0.790384
vt 0.768048 0.790384
vt 0.768048 0.833927
vt 0.610197 0.588408
vt 0.610197 0.768050
vt 0.036287 0.833927
vt 0.036287 0.790384
vt 0.610197 0.036287
vt 0.449968 0.768048
vt 0.406425 0.768048
vt 0.406425 0.588408
vt 0.449968 0.588408
vt 0.783772 0.286222
vt 0.783772 0.150831
vt 0.804390 0.131747
vt 0.804390 0.305306
vt 0.449968 0.789636
vt 0.406425 0.789636
vt 0.537801 0.000373
vt 0.537801 0.021960
vt 0.900162 0.087458
vt 0.900162 0.131001
vt 0.697882 0.131001
vt 0.697882 0.087458
vt 0.769534 0.334027
vt 0.769534 0.131747
vt 0.449967 0.036287
vt 0.406424 0.036287
vt 0.406424 0.000373
vt 0.449967 0.000373
vt 0.537799 0.753722
vt 0.537799 0.789636
vt 0.884875 0.699642
vt 0.884875 0.743185
vt 0.682595 0.743185
vt 0.682595 0.699642
vt 0.697882 0.334772
vt 0.697882 0.537053
vt 0.789636 0.790384
vt 0.789636 0.833927
vt 0.610197 0.789637
vt 0.796135 0.743930
vt 0.796135 0.785390
vt 0.792337 0.785064
vt 0.792337 0.744256
vt 0.696088 0.780831
vt 0.696088 0.748489
vt 0.723810 0.743930
vt 0.723810 0.785390
vt 0.738048 0.780831
vt 0.738048 0.748489
vt 0.765771 0.743930
vt 0.765771 0.785390
vt 0.790897 0.325135
vt 0.790897 0.460526
vt 0.770279 0.479610
vt 0.770279 0.306051
vt 0.825927 0.312133
vt 0.825927 0.491774
vt 0.805136 0.469649
vt 0.805136 0.334258
vt 0.804390 0.325135
vt 0.804390 0.460526
vt 0.575428 0.051857
vt 0.543086 0.051857
vt 0.724555 0.780831
vt 0.724555 0.748489
vt 0.697882 0.580710
vt 0.697882 0.537798
vt 0.727779 0.543083
vt 0.727779 0.575425
vt 0.682595 0.780831
vt 0.682595 0.748489
vt 0.825927 0.131747
vt 0.825927 0.311387
vt 0.805136 0.289263
vt 0.805136 0.153872
vt 0.770279 0.286222
vt 0.770279 0.150831
vt 0.833940 0.133111
vt 0.833940 0.303942
vt 0.826672 0.278426
vt 0.826672 0.158627
vt 0.837499 0.131747
vt 0.837499 0.305306
vt 0.758144 0.537798
vt 0.758144 0.579258
vt 0.754346 0.578932
vt 0.754346 0.538124
vt 0.837499 0.306052
vt 0.837499 0.479611
vt 0.833940 0.478247
vt 0.833940 0.307416
vt 0.798896 0.600154
vt 0.770279 0.600154
vt 0.770279 0.480356
vt 0.798896 0.480356
vt 0.728525 0.572836
vt 0.728525 0.544219
vt 0.826672 0.452731
vt 0.826672 0.332932
vt 0.766516 0.778969
vt 0.766516 0.750351
vt 0.768048 0.921013
vt 0.768049 0.877470
vt 0.789636 0.877470
vt 0.789636 0.921013
vt 0.884875 0.612556
vt 0.884875 0.656099
vt 0.682595 0.656099
vt 0.682595 0.612556
vt 0.537054 0.036287
vt 0.493511 0.036287
vt 0.493511 0.000373
vt 0.537054 0.000373
vt 0.900162 0.000373
vt 0.900162 0.043916
vt 0.697882 0.043916
vt 0.697882 0.000373
vt 0.537053 0.789636
vt 0.493510 0.789636
vt 0.493510 0.768049
vt 0.537053 0.768049
vt 0.493510 0.588408
vt 0.537053 0.588408
vt 0.036287 0.921012
vt 0.036287 0.877469
vt 0.588406 0.877470
vt 0.588406 0.921013
vt 0.000373 0.877469
vt 0.000373 0.833927
vt 0.000373 0.921012
vt 0.900908 0.010072
vt 0.943820 0.010072
vt 0.943820 0.022543
vt 0.900908 0.022543
vt 0.610197 0.000373
vt 0.653110 0.000373
vt 0.000373 0.790384
vt 0.681849 0.000373
vt 0.943820 0.574666
vt 0.900908 0.574666
vt 0.943820 0.587137
vt 0.900908 0.587137
vt 0.948742 0.974123
vt 0.938972 0.679116
vt 0.957352 0.727139
vt 0.957927 0.939449
vt 0.552512 0.934231
vt 0.000373 0.934230
vt 0.000373 0.921759
vt 0.552512 0.921760
vt 0.552512 0.943928
vt 0.000373 0.943930
vt 0.552532 0.954375
vt 0.000373 0.954376
vt 0.000373 0.944675
vt 0.552532 0.944677
vt 0.943820 0.596837
vt 0.900908 0.596837
vt 0.900908 0.000373
vt 0.943820 0.000373
vt 0.994957 0.438749
vt 0.994957 0.990873
vt 0.982486 0.990873
vt 0.982486 0.438749
vt 0.978109 0.650836
vt 0.965395 0.721002
vt 0.978109 0.990992
vt 0.963745 0.943234
vn -1.0000 0.0000 0.0000
vn 0.0000 0.0000 -1.0000
vn 1.0000 0.0000 0.0000
vn 0.0000 0.0000 1.0000
vn 0.0000 -1.0000 0.0000
vn 0.0000 1.0000 0.0000
vn -0.2211 0.9753 -0.0000
vn 0.3592 0.0000 -0.9333
vn -0.6884 0.0000 0.7253
vn -0.6884 0.0000 -0.7253
vn -0.2211 -0.9753 -0.0000
vn 0.2542 -0.9672 0.0000
vn 0.7400 0.0000 -0.6726
vn 0.7400 0.0000 0.6726
vn 0.2542 0.9672 -0.0000
vn 0.8387 0.5446 0.0000
vn 0.0916 0.9958 0.0000
vn 0.3592 0.0000 0.9332
vn 0.0916 -0.9958 0.0000
vn 0.9882 0.0000 0.1533
vn 0.8387 -0.5446 0.0000
vn 0.9882 0.0000 -0.1533
vn 0.7036 -0.7106 0.0000
vn -0.7036 0.7106 0.0000
usemtl Material
s off
f 31/1/1 12/2/1 4/3/1 19/4/1
f 19/5/2 4/6/2 8/7/2 21/8/2
f 76/9/3 70/10/3 6/11/3 23/12/3
f 23/13/4 6/14/4 2/15/4 18/16/4
f 69/17/5 72/18/5 5/19/5 1/20/5
f 70/21/6 71/22/6 2/23/6 6/24/6
f 8/25/6 4/26/6 12/27/6 15/28/6
f 15/28/6 12/27/6 11/29/6 16/30/6
f 3/31/5 7/32/5 14/33/5 9/34/5
f 9/34/5 14/33/5 13/35/5 10/36/5
f 21/37/3 8/38/3 15/39/3 25/40/3
f 25/40/3 15/39/3 16/41/3 27/42/3
f 74/43/1 71/44/1 11/45/1 29/46/1
f 29/46/1 11/45/1 12/2/1 31/1/1
f 63/47/1 30/48/1 32/49/1 65/50/1
f 30/51/1 29/46/1 31/1/1 32/52/1
f 80/53/1 73/54/1 30/48/1 63/47/1
f 73/55/1 74/43/1 29/46/1 30/51/1
f 59/56/3 26/57/3 28/58/3 61/59/3
f 39/60/7 38/61/7 35/62/7 33/63/7
f 55/64/3 22/65/3 26/57/3 59/56/3
f 22/66/3 21/37/3 25/40/3 26/67/3
f 57/68/4 24/69/4 17/70/4 68/71/4
f 24/72/4 23/13/4 18/16/4 17/73/4
f 78/74/3 75/75/3 24/76/3 57/77/3
f 75/78/3 76/9/3 23/12/3 24/79/3
f 53/80/2 20/81/2 22/82/2 55/83/2
f 20/84/2 19/5/2 21/8/2 22/85/2
f 65/50/1 32/49/1 20/86/1 53/87/1
f 32/52/1 31/1/1 19/4/1 20/88/1
f 34/89/8 33/90/8 45/91/8 46/92/8
f 38/93/9 42/94/9 36/95/9 35/96/9
f 43/97/10 39/98/10 33/99/10 34/100/10
f 42/101/11 43/102/11 34/103/11 36/104/11
f 28/105/12 26/106/12 44/107/12 41/108/12
f 41/109/5 44/110/5 43/102/5 42/101/5
f 26/67/13 25/40/13 40/111/13 44/112/13
f 44/113/2 40/114/2 39/98/2 43/97/2
f 27/115/14 28/116/14 41/117/14 37/118/14
f 37/119/4 41/120/4 42/94/4 38/93/4
f 25/121/15 27/122/15 37/123/15 40/124/15
f 40/125/6 37/126/6 38/61/6 39/60/6
f 45/127/16 47/128/16 51/129/16 49/130/16
f 33/131/17 35/132/17 47/128/17 45/127/17
f 35/133/18 36/134/18 48/135/18 47/136/18
f 36/137/19 34/138/19 46/139/19 48/140/19
f 50/141/3 49/142/3 51/143/3 52/144/3
f 47/136/20 48/135/20 52/145/20 51/146/20
f 48/140/21 46/139/21 50/147/21 52/148/21
f 46/92/22 45/91/22 49/149/22 50/150/22
f 9/151/1 66/152/1 54/153/1 3/154/1
f 66/152/1 65/50/1 53/87/1 54/153/1
f 3/155/2 54/156/2 56/157/2 7/158/2
f 54/156/2 53/80/2 55/83/2 56/157/2
f 72/159/3 77/160/3 58/161/3 5/162/3
f 77/160/3 78/74/3 57/77/3 58/161/3
f 5/163/4 58/164/4 67/165/4 1/166/4
f 58/164/4 57/68/4 68/71/4 67/165/4
f 7/167/3 56/168/3 60/169/3 14/170/3
f 56/168/3 55/64/3 59/56/3 60/169/3
f 14/170/3 60/169/3 62/171/3 13/172/3
f 60/169/3 59/56/3 61/59/3 62/171/3
f 69/173/1 79/174/1 64/175/1 10/176/1
f 79/174/1 80/53/1 63/47/1 64/175/1
f 10/176/1 64/175/1 66/152/1 9/151/1
f 64/175/1 63/47/1 65/50/1 66/152/1
f 67/177/1 68/178/1 80/53/1 79/174/1
f 1/179/1 67/177/1 79/174/1 69/173/1
f 62/171/3 61/59/3 78/74/3 77/160/3
f 13/172/3 62/171/3 77/160/3 72/159/3
f 86/180/2 85/181/2 83/182/2 84/183/2
f 61/59/3 28/58/3 75/75/3 78/74/3
f 17/184/1 18/185/1 74/43/1 73/55/1
f 68/178/1 17/186/1 73/54/1 80/53/1
f 18/185/1 2/187/1 71/44/1 74/43/1
f 16/30/6 11/29/6 71/22/6 70/21/6
f 10/36/5 13/35/5 72/18/5 69/17/5
f 27/42/3 16/41/3 70/10/3 76/9/3
f 82/188/3 81/189/3 84/183/3 83/182/3
f 88/190/4 87/191/4 81/189/4 82/188/4
f 82/192/23 83/193/23 90/194/23 89/195/23
f 87/196/5 86/197/5 84/198/5 81/199/5
f 27/200/5 76/201/5 86/197/5 87/196/5
f 75/202/6 28/203/6 88/204/6 85/205/6
f 28/206/4 27/207/4 87/191/4 88/190/4
f 76/208/2 75/209/2 85/181/2 86/180/2
f 91/210/6 92/211/6 89/212/6 90/213/6
f 83/193/2 85/214/2 91/215/2 90/194/2
f 85/214/24 88/216/24 92/217/24 91/215/24
f 88/216/4 82/192/4 89/195/4 92/217/4
