# Blender v3.0.1 OBJ File: 'Juice.blend'
# www.blender.org
mtllib Juice.mtl
o Cube_Cube.001
v -0.074607 -0.091478 0.074607
v -0.100000 0.100000 0.100000
v -0.074607 -0.091478 -0.074607
v -0.100000 0.100000 -0.100000
v 0.074607 -0.091478 0.074607
v 0.100000 0.100000 0.100000
v 0.074607 -0.091478 -0.074607
v 0.100000 0.100000 -0.100000
v -0.100000 0.334816 0.100000
v -0.100000 0.334816 -0.100000
v 0.100000 0.334816 0.100000
v 0.100000 0.334816 -0.100000
v -0.100000 0.491479 0.000000
v 0.100000 0.491479 0.000000
v -0.085497 0.346177 0.085497
v -0.085497 0.346177 -0.085497
v 0.085497 0.346177 -0.085497
v 0.085497 0.346177 0.085497
v -0.085497 0.431751 0.023936
v -0.085497 0.431751 -0.023936
v 0.085497 0.431751 -0.023936
v 0.085497 0.431751 0.023936
v 0.100000 0.439258 0.033333
v -0.100000 0.439258 0.033333
v -0.033333 0.439258 0.033333
v 0.033333 0.439258 0.033333
v 0.011111 0.439258 0.033333
v -0.011111 0.439258 0.033333
v -0.033333 0.404444 0.055556
v -0.033333 0.421851 0.044444
v 0.033333 0.404444 0.055556
v 0.033333 0.421851 0.044444
v 0.011111 0.387037 0.066667
v -0.011111 0.387037 0.066667
v 0.011111 0.451686 0.052804
v -0.011111 0.451686 0.052804
v -0.033333 0.416873 0.075027
v -0.033333 0.434280 0.063915
v 0.033333 0.416873 0.075027
v 0.033333 0.434280 0.063915
v 0.011111 0.399466 0.086138
v -0.011111 0.399466 0.086138
v -0.013394 0.404181 0.105352
v 0.013394 0.404181 0.105352
v 0.013394 0.467129 0.065171
v -0.013394 0.467129 0.065171
v -0.040181 0.446147 0.078564
v -0.040181 0.425164 0.091958
v 0.040181 0.446147 0.078564
v 0.040181 0.425164 0.091958
v 0.013394 0.456668 0.048781
v -0.013394 0.456668 0.048781
v -0.040181 0.414702 0.075568
v -0.040181 0.435685 0.062175
v 0.040181 0.414702 0.075568
v 0.040181 0.435685 0.062175
v 0.013394 0.393719 0.088962
v -0.013394 0.393719 0.088962
v 0.009382 0.457199 0.069726
v -0.028146 0.427802 0.088491
v -0.009382 0.413103 0.097873
v 0.009382 0.413103 0.097873
v -0.028146 0.442500 0.079109
v -0.009382 0.457199 0.069726
v 0.028146 0.442500 0.079109
v 0.028146 0.427802 0.088491
v -0.033333 0.478424 -0.008333
v -0.100000 0.478376 -0.006636
v 0.100000 0.439258 -0.033333
v -0.100000 0.439258 -0.033333
v 0.033333 0.439258 -0.033333
v -0.033333 0.439258 -0.033333
v 0.100000 0.478424 -0.006667
v 0.033333 0.478424 -0.008333
v -0.100000 0.477992 0.006942
v -0.033333 0.477944 0.008639
v 0.100000 0.478424 0.006667
v 0.033333 0.478424 0.008333
v -0.100000 -0.100000 -0.100000
v -0.100000 -0.100000 0.100000
v 0.100000 -0.100000 -0.100000
v 0.100000 -0.100000 0.100000
vt 0.559962 0.000329
vt 0.797729 0.000329
vt 0.797729 0.238096
vt 0.559962 0.238096
vt 0.797729 0.475864
vt 0.559962 0.475864
vt 0.238096 0.952057
vt 0.000329 0.952057
vt 0.000329 0.714289
vt 0.238096 0.714289
vt 0.000329 0.476522
vt 0.238096 0.476522
vt 0.664387 0.999671
vt 0.664387 0.822280
vt 0.841778 0.822280
vt 0.841778 0.999671
vt 0.279487 0.238096
vt 0.279487 0.475864
vt 0.000329 0.475864
vt 0.000329 0.238097
vt 0.559303 0.000329
vt 0.559303 0.238097
vt 0.280145 0.238097
vt 0.280145 0.000329
vt 0.279487 0.000329
vt 0.000329 0.000329
vt 0.559303 0.475864
vt 0.280145 0.475864
vt 0.424579 0.476522
vt 0.423977 0.494097
vt 0.425327 0.551204
vt 0.426655 0.698314
vt 0.407760 0.677813
vt 0.403051 0.552850
vt 0.424486 0.698972
vt 0.423848 0.716560
vt 0.425169 0.773594
vt 0.426138 0.920580
vt 0.407309 0.900048
vt 0.402915 0.775201
vt 0.238755 0.565643
vt 0.355736 0.521447
vt 0.238755 0.787572
vt 0.355727 0.743712
vt 0.966373 0.697553
vt 0.899001 0.657428
vt 0.943881 0.622433
vt 0.898343 0.697551
vt 0.830968 0.657431
vt 0.875846 0.622432
vt 0.966373 0.476522
vt 0.966238 0.623825
vt 0.965475 0.680150
vt 0.947643 0.497167
vt 0.898343 0.476522
vt 0.898202 0.623825
vt 0.897434 0.679542
vt 0.879612 0.497166
vt 0.986871 0.000329
vt 0.986871 0.238097
vt 0.964969 0.220854
vt 0.964969 0.017571
vt 0.967031 0.714289
vt 0.967031 0.476522
vt 0.988934 0.493764
vt 0.988934 0.697047
vt 0.864651 0.952861
vt 0.856989 0.995851
vt 0.843752 0.987147
vt 0.850384 0.952918
vt 0.865252 0.867806
vt 0.866061 0.892937
vt 0.853141 0.893377
vt 0.850467 0.868862
vt 0.866352 0.347425
vt 0.873295 0.377031
vt 0.862327 0.378799
vt 0.853076 0.357565
vt 0.872094 0.410619
vt 0.859875 0.436428
vt 0.846561 0.421877
vt 0.861376 0.405303
vt 0.865980 0.929278
vt 0.849558 0.927869
vt 0.813352 0.417504
vt 0.798387 0.398310
vt 0.802002 0.365111
vt 0.820232 0.351530
vt 0.927345 0.412788
vt 0.928047 0.438687
vt 0.899496 0.439721
vt 0.898601 0.411619
vt 0.928047 0.349898
vt 0.927182 0.376570
vt 0.898918 0.375464
vt 0.900322 0.348999
vt 0.922072 0.953830
vt 0.923328 0.993618
vt 0.894273 0.994671
vt 0.893120 0.953691
vt 0.923328 0.830085
vt 0.920341 0.866824
vt 0.891917 0.865332
vt 0.895353 0.827810
vt 0.920126 0.892151
vt 0.921100 0.928346
vt 0.892848 0.927721
vt 0.892779 0.891704
vt 0.892257 0.374867
vt 0.890486 0.412107
vt 0.888918 0.443146
vt 0.893617 0.346087
vt 0.885371 0.928318
vt 0.885742 0.891381
vt 0.886698 0.998383
vt 0.884379 0.952592
vt 0.887027 0.822291
vt 0.885216 0.865346
vt 0.857914 0.822280
vt 0.842436 0.833950
vt 0.504248 0.717603
vt 0.504471 0.773103
vt 0.583835 0.773009
vt 0.663120 0.773052
vt 0.663264 0.920091
vt 0.663264 0.699310
vt 0.663259 0.716757
vt 0.583850 0.717685
vt 0.663596 0.550742
vt 0.584066 0.550592
vt 0.584120 0.495859
vt 0.663729 0.494841
vt 0.504643 0.550641
vt 0.504409 0.495139
vt 0.663729 0.696485
vt 0.531114 0.550534
vt 0.504771 0.575225
vt 0.504924 0.599789
vt 0.531455 0.624064
vt 0.557796 0.623861
vt 0.583949 0.599179
vt 0.583760 0.574700
vt 0.557230 0.550425
vt 0.583571 0.550221
vt 0.662596 0.549612
vt 0.663725 0.476737
vt 0.557585 0.550558
vt 0.842265 0.172880
vt 0.964310 0.301613
vt 0.961972 0.345429
vt 0.798387 0.172880
vt 0.964310 0.044145
vt 0.961971 0.000329
vt 0.708265 0.649073
vt 0.830310 0.777806
vt 0.827971 0.821622
vt 0.664387 0.649073
vt 0.830310 0.520338
vt 0.827971 0.476522
vn -1.0000 0.0000 0.0000
vn 0.0000 0.0000 -1.0000
vn 1.0000 0.0000 0.0000
vn 0.0000 0.0000 1.0000
vn 0.0000 -1.0000 0.0000
vn 0.5355 -0.4686 -0.7026
vn -0.5350 -0.4688 0.7028
vn 0.9718 -0.2360 0.0000
vn -0.9718 -0.2360 0.0000
vn 0.5355 -0.4686 0.7026
vn -0.5355 -0.4686 -0.7026
vn 0.6167 0.7872 0.0000
vn -0.6167 0.7872 0.0000
vn -0.0951 0.4465 0.8897
vn 0.0000 0.6424 0.7664
vn 0.0000 0.4170 0.9089
vn 0.1240 0.5339 0.8364
vn -0.0907 0.6155 0.7829
vn -0.1240 0.5339 0.8364
vn 0.0951 0.4465 0.8897
vn 0.0000 0.5380 0.8429
vn 0.0000 0.8429 -0.5380
vn 0.6807 0.6175 -0.3941
vn -0.6807 -0.6175 0.3941
vn 0.6807 -0.6175 0.3941
vn -0.6807 0.6175 -0.3941
vn 0.0000 -0.8429 0.5380
vn 0.1033 -0.5352 -0.8384
vn 0.0000 -0.6283 -0.7780
vn -0.0774 -0.4644 -0.8823
vn -0.0774 -0.6047 -0.7927
vn -0.1033 -0.5352 -0.8384
vn 0.0907 0.6155 0.7829
vn 0.0000 -0.4411 -0.8974
vn 0.0774 -0.4644 -0.8823
vn 0.0774 -0.6047 -0.7927
vn -0.0108 0.5510 -0.8344
vn -0.0000 0.5354 -0.8446
vn 0.0104 0.5506 -0.8347
vn -0.0104 0.5507 0.8346
vn 0.0104 0.5506 0.8347
vn -0.0001 0.5252 0.8510
vn 0.3182 -0.9480 0.0000
vn 0.0000 -0.9480 0.3182
vn -0.3182 -0.9480 0.0000
vn 0.0000 -0.9480 -0.3182
usemtl Material
s off
f 80/1/1 2/2/1 4/3/1 79/4/1
f 79/4/2 4/3/2 8/5/2 81/6/2
f 81/7/3 8/8/3 6/9/3 82/10/3
f 82/10/4 6/9/4 2/11/4 80/12/4
f 3/13/5 7/14/5 5/15/5 1/16/5
f 4/17/1 2/18/1 9/19/1 10/20/1
f 2/21/4 6/22/4 11/23/4 9/24/4
f 8/25/2 4/17/2 10/20/2 12/26/2
f 6/22/3 8/27/3 12/28/3 11/23/3
f 14/29/6 77/30/6 23/31/6 11/32/6 18/33/6 22/34/6
f 13/35/7 68/36/7 70/37/7 10/38/7 16/39/7 20/40/7
f 18/33/3 17/41/3 21/42/3 22/34/3
f 16/39/1 15/43/1 19/44/1 20/40/1
f 14/45/8 22/46/8 21/47/8
f 13/48/9 20/49/9 19/50/9
f 12/51/10 69/52/10 73/53/10 14/45/10 21/47/10 17/54/10
f 9/55/11 24/56/11 75/57/11 13/48/11 19/50/11 15/58/11
f 11/59/12 12/60/12 17/61/12 18/62/12
f 10/63/13 9/64/13 15/65/13 16/66/13
f 49/67/14 45/68/14 59/69/14 65/70/14
f 43/71/15 44/72/15 62/73/15 61/74/15
f 45/75/16 46/76/16 64/77/16 59/78/16
f 47/79/17 48/80/17 60/81/17 63/82/17
f 44/72/18 50/83/18 66/84/18 62/73/18
f 50/83/19 49/67/19 65/70/19 66/84/19
f 46/76/20 47/79/20 63/82/20 64/77/20
f 59/78/21 64/77/21 63/82/21 60/81/21 61/85/21 62/86/21 66/87/21 65/88/21
f 30/89/1 29/90/1 37/91/1 38/92/1
f 27/93/22 28/94/22 36/95/22 35/96/22
f 32/97/23 27/98/23 35/99/23 40/100/23
f 29/101/24 34/102/24 42/103/24 37/104/24
f 33/105/25 31/106/25 39/107/25 41/108/25
f 28/94/26 30/89/26 38/92/26 36/95/26
f 34/102/27 33/105/27 41/108/27 42/103/27
f 31/106/3 32/97/3 40/100/3 39/107/3
f 52/109/26 54/110/26 47/79/26 46/76/26
f 38/92/28 37/91/28 53/111/28 54/110/28
f 35/96/29 36/95/29 52/109/29 51/112/29
f 41/108/30 39/107/30 55/113/30 57/114/30
f 40/100/31 35/99/31 51/115/31 56/116/31
f 45/68/23 49/67/23 56/116/23 51/115/23
f 55/113/3 56/116/3 49/67/3 50/83/3
f 48/80/1 47/79/1 54/110/1 53/111/1
f 50/83/25 44/72/25 57/114/25 55/113/25
f 53/117/24 58/118/24 43/71/24 48/119/24
f 51/112/22 52/109/22 46/76/22 45/75/22
f 44/72/27 43/71/27 58/118/27 57/114/27
f 39/107/32 40/100/32 56/116/32 55/113/32
f 48/119/33 43/71/33 61/74/33 60/120/33
f 42/103/34 41/108/34 57/114/34 58/118/34
f 37/104/35 42/103/35 58/118/35 53/117/35
f 36/95/36 38/92/36 54/110/36 52/109/36
f 67/121/37 72/122/37 70/37/37 68/36/37
f 71/123/38 69/124/38 12/125/38 10/38/38 70/37/38 72/122/38 67/121/38 68/36/38 13/35/38 14/126/38 73/127/38 74/128/38
f 69/124/39 71/123/39 74/128/39 73/127/39
f 24/129/40 25/130/40 76/131/40 75/132/40
f 26/133/41 23/31/41 77/30/41 78/134/41
f 9/135/21 11/32/21 23/31/21 26/133/21 27/136/21 32/137/21 31/138/21 33/139/21 34/140/21 29/141/21 30/142/21 28/143/21 25/144/21 24/145/21
f 78/134/42 77/30/42 14/29/42 13/146/42 75/132/42 76/131/42 25/130/42 28/147/42 27/136/42 26/133/42
f 3/148/43 1/149/43 80/150/43 79/151/43
f 7/152/44 3/148/44 79/151/44 81/153/44
f 5/154/45 7/155/45 81/156/45 82/157/45
f 1/158/46 5/154/46 82/157/46 80/159/46
