# Blender v2.91.0 OBJ File: 'ButtonShopDoor.blend'
# www.blender.org
mtllib ButtonShopDoor.mtl
o Cube.002_Cube.003
v -1.361797 -1.463950 0.086417
v -0.858784 -1.966964 0.086417
v -0.858784 0.756630 0.086417
v -1.361797 0.253617 0.086417
v -0.858784 -1.966964 -0.770231
v -1.361797 -1.463950 -0.770231
v -1.361797 0.253617 -0.770231
v -0.858784 0.756630 -0.770231
v 0.858784 -1.966964 0.086417
v 1.361797 -1.463950 0.086417
v 1.361797 0.253617 0.086417
v 0.858784 0.756630 0.086417
v 1.361797 -1.463950 -0.770231
v 0.858784 -1.966964 -0.770231
v 0.858784 0.756630 -0.770231
v 1.361797 0.253617 -0.770231
v -0.428324 -0.428324 0.428324
v -0.428324 0.428324 0.428324
v -0.428324 -0.428324 -0.428324
v -0.428324 0.428324 -0.428324
v 0.428324 -0.428324 0.428324
v 0.428324 0.428324 0.428324
v 0.428324 -0.428324 -0.428324
v 0.428324 0.428324 -0.428324
v -0.428324 -1.736342 0.428324
v -0.428324 -0.879694 0.428324
v -0.428324 -1.736342 -0.428324
v -0.428324 -0.879694 -0.428324
v 0.428324 -1.736342 0.428324
v 0.428324 -0.879694 0.428324
v 0.428324 -1.736342 -0.428324
v 0.428324 -0.879694 -0.428324
vt 0.720101 0.228473
vt 0.670973 0.277601
vt 0.503223 0.277601
vt 0.454095 0.228473
vt 0.454095 0.060722
vt 0.503223 0.011594
vt 0.670973 0.011594
vt 0.720101 0.060722
vt 0.888541 0.277601
vt 0.720791 0.277601
vt 0.720791 0.011594
vt 0.888541 0.011594
vt 0.454095 0.446041
vt 0.454095 0.278291
vt 0.720101 0.278290
vt 0.720101 0.446041
vt 0.453405 0.446731
vt 0.453405 0.614481
vt 0.187398 0.614481
vt 0.187398 0.446731
vt 0.236526 0.277601
vt 0.187398 0.228473
vt 0.187398 0.060722
vt 0.236526 0.011594
vt 0.404277 0.011594
vt 0.453405 0.060722
vt 0.453405 0.228473
vt 0.404277 0.277601
vt 0.874906 0.302808
vt 0.874906 0.568814
vt 0.805428 0.568814
vt 0.805428 0.302808
vt 0.958981 0.278291
vt 0.958981 0.544297
vt 0.889504 0.544297
vt 0.889504 0.278290
vt 0.481438 0.463427
vt 0.747445 0.463427
vt 0.747445 0.532905
vt 0.481438 0.532905
vt 0.476695 0.549655
vt 0.742702 0.549655
vt 0.742702 0.619132
vt 0.476695 0.619132
vt 0.187398 0.446041
vt 0.187398 0.278291
vt 0.453405 0.278290
vt 0.453405 0.446041
vt 0.898084 0.683996
vt 0.995785 0.683996
vt 0.995785 0.994622
vt 0.898084 0.994622
vt 0.988795 0.018115
vt 0.988795 0.101781
vt 0.905129 0.101781
vt 0.905129 0.018115
vt 0.012121 0.888860
vt 0.012121 0.791160
vt 0.322747 0.791160
vt 0.322747 0.888860
vt 0.220779 0.779987
vt 0.123079 0.779987
vt 0.123079 0.682286
vt 0.220779 0.682286
vt 0.444691 0.994935
vt 0.346990 0.994935
vt 0.346990 0.684309
vt 0.444691 0.684309
vt 0.543197 0.994935
vt 0.445496 0.994935
vt 0.445497 0.684309
vt 0.543197 0.684309
vt 0.322747 0.889666
vt 0.322747 0.987367
vt 0.012121 0.987366
vt 0.012122 0.889666
vt 0.988051 0.123583
vt 0.988051 0.207250
vt 0.904385 0.207250
vt 0.904385 0.123583
vt 0.544003 0.684309
vt 0.641703 0.684309
vt 0.641703 0.994935
vt 0.544003 0.994935
vt 0.227313 0.780296
vt 0.227313 0.682595
vt 0.325014 0.682595
vt 0.325014 0.780296
vt 0.795560 0.683943
vt 0.893261 0.683943
vt 0.893261 0.994569
vt 0.795560 0.994569
vt 0.794755 0.994569
vt 0.697054 0.994569
vt 0.697054 0.683943
vt 0.794755 0.683943
vn 0.0000 0.0000 1.0000
vn 1.0000 0.0000 0.0000
vn 0.0000 1.0000 0.0000
vn -1.0000 0.0000 0.0000
vn -0.0000 0.0000 -1.0000
vn -0.7071 -0.7071 0.0000
vn -0.7071 0.7071 0.0000
vn 0.7071 -0.7071 0.0000
vn 0.7071 0.7071 0.0000
vn 0.0000 -1.0000 0.0000
usemtl Material
s off
f 9/1/1 10/2/1 11/3/1 12/4/1 3/5/1 4/6/1 1/7/1 2/8/1
f 13/9/2 16/10/2 11/11/2 10/12/2
f 15/13/3 8/14/3 3/15/3 12/16/3
f 1/17/4 4/18/4 7/19/4 6/20/4
f 5/21/5 6/22/5 7/23/5 8/24/5 15/25/5 16/26/5 13/27/5 14/28/5
f 5/29/6 2/30/6 1/31/6 6/32/6
f 3/33/7 8/34/7 7/35/7 4/36/7
f 9/37/8 14/38/8 13/39/8 10/40/8
f 15/41/9 12/42/9 11/43/9 16/44/9
f 5/45/10 14/46/10 9/47/10 2/48/10
f 17/49/4 18/50/4 20/51/4 19/52/4
f 19/53/5 20/54/5 24/55/5 23/56/5
f 23/57/2 24/58/2 22/59/2 21/60/2
f 21/61/1 22/62/1 18/63/1 17/64/1
f 19/65/10 23/66/10 21/67/10 17/68/10
f 24/69/3 20/70/3 18/71/3 22/72/3
f 25/73/4 26/74/4 28/75/4 27/76/4
f 27/77/5 28/78/5 32/79/5 31/80/5
f 31/81/2 32/82/2 30/83/2 29/84/2
f 29/85/1 30/86/1 26/87/1 25/88/1
f 27/89/10 31/90/10 29/91/10 25/92/10
f 32/93/3 28/94/3 26/95/3 30/96/3
