# Blender v3.0.0 OBJ File: 'ScrewDrivers.blend'
# www.blender.org
mtllib ScrewDrivers_Flat.mtl
o Plane.001
v 0.380936 -0.100000 -0.000000
v 0.580936 -0.100000 -0.000000
v 0.380936 0.100000 0.000000
v 0.580936 0.100000 0.000000
v 0.380936 -0.100000 0.536967
v 0.580936 -0.100000 0.536967
v 0.380936 0.100000 0.536967
v 0.580936 0.100000 0.536967
v 0.380936 -0.038271 0.697484
v 0.580936 -0.038271 0.697484
v 0.380936 0.038271 0.697484
v 0.580936 0.038271 0.697484
v 0.380936 0.012757 0.697484
v 0.380936 -0.012757 0.697484
v 0.447602 -0.038271 0.697484
v 0.514269 -0.038271 0.697484
v 0.580936 -0.012757 0.697484
v 0.580936 0.012757 0.697484
v 0.514269 0.038271 0.697484
v 0.447602 0.038271 0.697484
v 0.440769 0.010251 1.300231
v 0.453810 0.016943 1.300231
v 0.519755 0.010251 1.300231
v 0.521592 -0.010509 1.300231
v 0.432495 -0.012757 0.697484
v 0.447602 -0.023506 0.697484
v 0.528646 0.012757 0.697484
v 0.514269 -0.025032 0.697484
v 0.431575 0.012757 0.697484
v 0.447602 0.020980 0.697484
v 0.530905 -0.012757 0.697484
v 0.514269 0.022029 0.697484
v 0.508056 -0.020497 1.300231
v 0.453810 -0.019256 1.300231
v 0.508056 0.017796 1.300231
v 0.441517 -0.010509 1.300231
v 0.455245 0.006427 1.318658
v 0.463585 0.010706 1.318658
v 0.498277 -0.013238 1.318658
v 0.463585 -0.012444 1.318658
v 0.455724 -0.006850 1.318658
v 0.498277 0.011252 1.318658
v 0.505759 0.006427 1.318658
v 0.506934 -0.006850 1.318658
v 0.500172 0.007152 1.323738
v 0.461690 0.007152 1.323738
v 0.500172 -0.007575 1.323738
v 0.461690 -0.007575 1.323738
v 0.500172 0.007152 1.387254
v 0.461690 0.007152 1.387254
v 0.500172 -0.007575 1.387254
v 0.461690 -0.007575 1.387254
v 0.469825 -0.038271 0.697484
v 0.492047 -0.038271 0.697484
v 0.492047 0.038271 0.697484
v 0.469825 0.038271 0.697484
v 0.489974 -0.020083 1.300231
v 0.471892 -0.019670 1.300231
v 0.471892 0.017227 1.300231
v 0.489974 0.017512 1.300231
v 0.492047 -0.024524 0.697484
v 0.469825 -0.024015 0.697484
v 0.469825 0.021330 0.697484
v 0.492047 0.021679 0.697484
v 0.486713 -0.012973 1.318658
v 0.475149 -0.012709 1.318658
v 0.475149 0.010888 1.318658
v 0.486713 0.011070 1.318658
v 0.487345 0.007152 1.323738
v 0.474517 0.007152 1.323738
v 0.487345 -0.007575 1.323738
v 0.474517 -0.007575 1.323738
v 0.487345 0.007152 1.387254
v 0.474517 0.007152 1.387254
v 0.487345 -0.007575 1.387254
v 0.474517 -0.007575 1.387254
v 0.390936 0.090000 0.187938
v 0.390936 0.090000 0.349028
v 0.570936 0.090000 0.349028
v 0.570936 0.090000 0.187938
v 0.570936 -0.090000 0.187938
v 0.570936 -0.090000 0.349028
v 0.390936 -0.090000 0.349028
v 0.390936 -0.090000 0.187938
v 0.494629 0.004460 1.399135
v 0.467234 0.004460 1.399135
v 0.494628 -0.004883 1.399135
v 0.467234 -0.004883 1.399135
v 0.485497 0.004460 1.399135
v 0.476365 0.004460 1.399135
v 0.485497 -0.004883 1.399135
v 0.476365 -0.004883 1.399135
v 0.380936 -0.000000 0.697484
v 0.580936 -0.000000 0.697484
v 0.441143 -0.000129 1.300231
v 0.520674 -0.000129 1.300231
v 0.529776 -0.000000 0.697484
v 0.432035 -0.000000 0.697484
v 0.455484 -0.000212 1.318658
v 0.506346 -0.000212 1.318658
v 0.500172 -0.000212 1.323738
v 0.461690 -0.000212 1.323738
v 0.500172 -0.000212 1.387254
v 0.461690 -0.000212 1.387254
v 0.494629 -0.000212 1.399135
v 0.467234 -0.000212 1.399135
v 0.485497 -0.000212 1.399135
v 0.476365 -0.000212 1.399135
v 0.380936 0.000000 0.000000
v 0.580936 0.000000 0.000000
v 0.380936 -0.000000 0.536967
v 0.580936 -0.000000 0.536967
v 0.390936 -0.000000 0.187938
v 0.390936 -0.000000 0.349028
v 0.570936 -0.000000 0.187938
v 0.570936 -0.000000 0.349028
vt 0.577469 0.945374
vt 0.614161 0.910824
vt 0.661117 0.915199
vt 0.694403 0.975068
vt 0.914647 0.651007
vt 0.822154 0.650685
vt 0.812284 0.574041
vt 0.848252 0.552401
vt 0.862512 0.549744
vt 0.876565 0.549137
vt 0.890446 0.551560
vt 0.925043 0.571922
vt 0.696288 0.752878
vt 0.593213 0.754291
vt 0.598158 0.650998
vt 0.690671 0.651513
vt 0.920287 0.752221
vt 0.817612 0.753879
vt 0.750360 0.755301
vt 0.750360 0.641458
vt 0.974109 0.754576
vt 0.974109 0.641357
vt 0.618607 0.085123
vt 0.610590 0.085991
vt 0.615305 0.079739
vt 0.700095 0.572564
vt 0.709889 0.565105
vt 0.716031 0.560899
vt 0.934921 0.564737
vt 0.941123 0.560697
vt 0.588627 0.574797
vt 0.623490 0.554612
vt 0.637462 0.552074
vt 0.651351 0.551135
vt 0.665067 0.553341
vt 0.578918 0.567778
vt 0.603516 0.541402
vt 0.619076 0.542859
vt 0.635958 0.540422
vt 0.614628 0.101820
vt 0.627363 0.100198
vt 0.894458 0.541610
vt 0.910047 0.538559
vt 0.573080 0.564033
vt 0.593675 0.537713
vt 0.844090 0.542962
vt 0.861471 0.540284
vt 0.919365 0.534952
vt 0.892458 0.102614
vt 0.900003 0.100301
vt 0.802281 0.567077
vt 0.826117 0.539794
vt 0.833244 0.103805
vt 0.844180 0.103619
vt 0.693342 0.535580
vt 0.683876 0.539132
vt 0.662754 0.100856
vt 0.670319 0.098592
vt 0.669451 0.541672
vt 0.653489 0.100931
vt 0.816386 0.535909
vt 0.796295 0.563406
vt 0.856790 0.102115
vt 0.651917 0.539936
vt 0.839080 0.087117
vt 0.848202 0.087274
vt 0.604867 0.102582
vt 0.882530 0.102720
vt 0.648749 0.084615
vt 0.656319 0.084504
vt 0.628693 0.084118
vt 0.886133 0.086214
vt 0.891026 0.083782
vt 0.857979 0.086006
vt 0.877950 0.086477
vt 0.661300 0.082217
vt 0.608598 0.077347
vt 0.605706 0.083439
vt 0.651926 0.078868
vt 0.658277 0.076406
vt 0.887976 0.077890
vt 0.881508 0.080356
vt 0.877609 0.025793
vt 0.883200 0.023216
vt 0.627701 0.078496
vt 0.867912 0.085806
vt 0.868763 0.079311
vt 0.844254 0.080756
vt 0.858725 0.025393
vt 0.849623 0.025041
vt 0.853603 0.017110
vt 0.860233 0.015936
vt 0.619450 0.025126
vt 0.628484 0.025284
vt 0.856957 0.079345
vt 0.647130 0.025209
vt 0.652630 0.022542
vt 0.868310 0.025716
vt 0.639337 0.078146
vt 0.637958 0.025318
vt 0.643447 0.017289
vt 0.645322 0.014283
vt 0.867697 0.016254
vt 0.874061 0.017710
vt 0.638679 0.083897
vt 0.869894 0.101768
vt 0.640653 0.099950
vt 0.877401 0.539500
vt 0.918951 0.973409
vt 0.885667 0.913925
vt 0.912598 0.841048
vt 0.964105 0.853995
vt 0.688371 0.842054
vt 0.740093 0.855186
vt 0.838925 0.909700
vt 0.820817 0.840377
vt 0.596167 0.841128
vt 0.629324 0.011902
vt 0.629734 0.015881
vt 0.623208 0.017205
vt 0.621423 0.013786
vt 0.637119 0.016003
vt 0.637706 0.011941
vt 0.876026 0.014722
vt 0.613514 0.022345
vt 0.859922 0.011902
vt 0.868394 0.012165
vt 0.851878 0.013602
vt 0.843644 0.022089
vt 0.837436 0.078129
vt 0.834301 0.084267
vt 0.825651 0.101361
vt 0.597263 0.100352
vt 0.774398 0.847786
vt 0.766216 0.756158
vt 0.802509 0.944186
vt 0.549509 0.848423
vt 0.541634 0.756339
vt 0.540355 0.642019
vt 0.764262 0.642242
vn 0.0000 0.0000 -1.0000
vn 0.0000 -0.9334 0.3589
vn 0.0000 0.9986 -0.0531
vn 0.0000 -0.9986 -0.0531
vn 0.9986 0.0000 -0.0531
vn -0.9986 0.0000 -0.0531
vn -0.4160 0.8107 0.4120
vn 1.0000 0.0000 0.0000
vn -1.0000 0.0000 0.0000
vn 0.0000 0.9334 0.3589
vn -0.0000 0.0000 1.0000
vn -0.0157 0.9999 0.0069
vn -0.9992 -0.0360 0.0151
vn 0.5937 -0.8046 0.0122
vn 0.9960 0.0882 0.0151
vn 0.5419 0.8403 0.0115
vn -0.0229 -0.9997 0.0073
vn 0.5019 -0.6802 0.5343
vn -0.4565 0.8897 0.0107
vn -0.5797 -0.8147 0.0117
vn 0.4676 0.7250 0.5056
vn -0.0149 0.9447 0.3276
vn -0.7889 -0.0284 0.6139
vn -0.0214 -0.9340 0.3566
vn -0.4952 -0.6960 0.5200
vn 0.7874 0.0697 0.6125
vn -0.4011 0.7818 0.4774
vn -0.6258 -0.0107 0.7799
vn 0.4894 0.7588 0.4298
vn 0.6545 0.0275 0.7556
vn -0.0061 0.8132 0.5819
vn -0.0077 -0.7136 0.7005
vn 0.4920 -0.6668 0.5597
vn -0.5049 -0.7095 0.4916
vn -0.0000 -0.9753 0.2210
vn 0.0000 1.0000 0.0000
vn 0.0000 -1.0000 -0.0000
vn 0.9062 0.0000 0.4228
vn -0.0073 -0.6756 0.7372
vn -0.0075 -0.6943 0.7196
vn -0.0058 0.7843 0.6203
vn -0.0060 0.7987 0.6017
vn -0.9986 0.0000 0.0531
vn 0.9986 0.0000 0.0531
vn 0.0000 -0.9986 0.0531
vn 0.0000 0.9986 0.0531
vn 0.0000 0.9753 0.2210
vn -0.9062 0.0000 0.4228
vn 0.6166 0.0259 0.7869
vn -0.6412 -0.0110 0.7673
usemtl Material
s off
f 109/1/1 3/2/1 4/3/1 110/4/1
f 5/5/2 6/6/2 10/7/2 16/8/2 54/9/2 53/10/2 15/11/2 9/12/2
f 79/13/3 78/14/3 7/15/3 8/16/3
f 83/17/4 82/18/4 6/6/4 5/5/4
f 116/19/5 79/13/5 8/16/5 112/20/5
f 114/21/6 83/17/6 5/5/6 111/22/6
f 38/23/7 37/24/7 46/25/7
f 112/20/8 8/16/8 12/26/8 18/27/8 94/28/8
f 111/22/9 5/5/9 9/12/9 14/29/9 93/30/9
f 8/16/10 7/15/10 11/31/10 20/32/10 56/33/10 55/34/10 19/35/10 12/26/10
f 13/36/11 29/37/11 30/38/11 20/32/11 11/31/11
f 63/39/12 30/38/12 22/40/12 59/41/12
f 9/12/11 15/11/11 26/42/11 25/43/11 14/29/11
f 93/44/11 98/45/11 29/37/11 13/36/11
f 54/9/11 16/8/11 28/46/11 61/47/11
f 98/48/13 25/43/13 36/49/13 95/50/13
f 16/8/11 10/7/11 17/51/11 31/52/11 28/46/11
f 28/46/14 31/52/14 24/53/14 33/54/14
f 97/55/15 27/56/15 23/57/15 96/58/15
f 27/56/16 32/59/16 35/60/16 23/57/16
f 97/61/11 31/52/11 17/51/11 94/62/11
f 61/47/17 28/46/17 33/54/17 57/63/17
f 64/64/11 32/59/11 19/35/11 55/34/11
f 33/54/18 24/53/18 44/65/18 39/66/18
f 30/38/19 29/37/19 21/67/19 22/40/19
f 32/59/11 27/56/11 18/27/11 12/26/11 19/35/11
f 25/43/20 26/42/20 34/68/20 36/49/20
f 23/57/21 35/60/21 42/69/21 43/70/21
f 59/41/22 22/40/22 38/23/22 67/71/22
f 95/50/23 36/49/23 41/72/23 99/73/23
f 57/63/24 33/54/24 39/66/24 65/74/24
f 36/49/25 34/68/25 40/75/25 41/72/25
f 96/58/26 23/57/26 43/70/26 100/76/26
f 22/40/27 21/67/27 37/24/27 38/23/27
f 102/77/28 46/25/28 37/24/28 99/78/28
f 43/70/29 42/69/29 45/79/29
f 100/76/30 43/70/30 45/79/30 101/80/30
f 102/81/9 48/82/9 52/83/9 104/84/9
f 67/71/31 38/23/31 46/25/31 70/85/31
f 66/86/32 72/87/32 48/82/32 40/75/32
f 39/66/33 44/65/33 47/88/33
f 40/75/34 48/82/34 41/72/34
f 75/89/35 51/90/35 87/91/35 91/92/35
f 70/85/36 46/25/36 50/93/36 74/94/36
f 71/95/37 47/88/37 51/90/37 75/89/37
f 101/80/8 45/79/8 49/96/8 103/97/8
f 48/82/37 72/87/37 76/98/37 52/83/37
f 45/79/36 69/99/36 73/100/36 49/96/36
f 103/97/38 49/96/38 85/101/38 105/102/38
f 52/83/35 76/98/35 92/103/35 88/104/35
f 39/66/39 47/88/39 71/95/39 65/74/39
f 65/74/40 71/95/40 72/87/40 66/86/40
f 42/69/41 68/105/41 69/99/41 45/79/41
f 68/105/42 67/71/42 70/85/42 69/99/42
f 34/68/24 58/106/24 66/86/24 40/75/24
f 58/106/24 57/63/24 65/74/24 66/86/24
f 35/60/22 60/107/22 68/105/22 42/69/22
f 60/107/22 59/41/22 67/71/22 68/105/22
f 30/38/11 63/39/11 56/33/11 20/32/11
f 63/39/11 64/64/11 55/34/11 56/33/11
f 26/42/17 62/108/17 58/106/17 34/68/17
f 62/108/17 61/47/17 57/63/17 58/106/17
f 15/11/11 53/10/11 62/108/11 26/42/11
f 53/10/11 54/9/11 61/47/11 62/108/11
f 32/59/12 64/64/12 60/107/12 35/60/12
f 64/64/12 63/39/12 59/41/12 60/107/12
f 72/87/37 71/95/37 75/89/37 76/98/37
f 70/85/36 74/94/36 73/100/36 69/99/36
f 109/109/43 1/110/43 84/111/43 113/112/43
f 113/112/9 84/111/9 83/17/9 114/21/9
f 110/4/44 4/3/44 80/113/44 115/114/44
f 115/114/8 80/113/8 79/13/8 116/19/8
f 1/110/45 2/115/45 81/116/45 84/111/45
f 84/111/37 81/116/37 82/18/37 83/17/37
f 4/3/46 3/2/46 77/117/46 80/113/46
f 80/113/36 77/117/36 78/14/36 79/13/36
f 108/118/11 90/119/11 86/120/11 106/121/11
f 105/102/11 85/101/11 89/122/11 107/123/11
f 107/123/11 89/122/11 90/119/11 108/118/11
f 49/96/47 73/100/47 89/122/47 85/101/47
f 104/84/48 52/83/48 88/104/48 106/124/48
f 74/94/47 50/93/47 86/120/47 90/119/47
f 76/98/35 75/89/35 91/92/35 92/103/35
f 73/100/47 74/94/47 90/119/47 89/122/47
f 50/93/48 104/125/48 106/121/48 86/120/48
f 91/92/11 107/126/11 108/127/11 92/103/11
f 87/91/11 105/128/11 107/126/11 91/92/11
f 92/103/11 108/127/11 106/124/11 88/104/11
f 51/90/38 103/129/38 105/128/38 87/91/38
f 47/88/8 101/130/8 103/129/8 51/90/8
f 46/25/9 102/77/9 104/125/9 50/93/9
f 44/65/49 100/131/49 101/130/49 47/88/49
f 48/82/50 102/81/50 99/73/50 41/72/50
f 24/53/26 96/132/26 100/131/26 44/65/26
f 21/67/23 95/133/23 99/78/23 37/24/23
f 27/56/11 97/55/11 94/28/11 18/27/11
f 31/52/15 97/61/15 96/132/15 24/53/15
f 29/37/13 98/45/13 95/133/13 21/67/13
f 14/29/11 25/43/11 98/48/11 93/30/11
f 81/116/8 115/134/8 116/135/8 82/18/8
f 2/115/44 110/136/44 115/134/44 81/116/44
f 77/117/9 113/137/9 114/138/9 78/14/9
f 3/2/43 109/1/43 113/137/43 77/117/43
f 78/14/6 114/138/6 111/139/6 7/15/6
f 82/18/5 116/135/5 112/140/5 6/6/5
f 1/110/1 109/109/1 110/136/1 2/115/1
f 7/15/9 111/139/9 93/44/9 13/36/9 11/31/9
f 6/6/8 112/140/8 94/62/8 17/51/8 10/7/8
