# Blender v2.91.0 OBJ File: 'Pizza.blend'
# www.blender.org
mtllib Pizza.mtl
o Cube_Cube.001
v -0.179438 0.030875 0.235851
v -0.223527 0.030875 0.188289
v 0.179438 0.030875 0.235851
v 0.223527 0.030875 0.188289
v 0.179438 0.033197 0.235851
v -0.223527 0.033197 -0.246419
v -0.223527 0.030875 -0.246419
v 0.223527 0.033197 -0.246419
v 0.223527 0.030875 -0.246419
v -0.223527 0.033197 0.188289
v -0.179438 0.033197 0.235851
v 0.223527 0.033197 0.188289
v -0.221505 -0.026027 -0.244663
v 0.221505 -0.026027 -0.244663
v -0.179173 -0.026027 0.233244
v -0.221505 -0.026027 0.187577
v 0.221505 -0.026027 0.187577
v 0.179173 -0.026027 0.233244
v -0.225000 0.030867 0.188297
v -0.224448 0.030867 0.189734
v -0.224312 0.030871 0.188742
v -0.181172 0.030867 0.236419
v -0.179840 0.030867 0.237014
v -0.180044 0.030871 0.236447
v 0.224745 0.030867 -0.247637
v 0.224192 0.030867 -0.248433
v -0.224192 0.030867 -0.248433
v -0.224745 0.030867 -0.247637
v 0.179840 0.030867 0.237014
v 0.181172 0.030867 0.236419
v 0.180044 0.030871 0.236447
v 0.224448 0.030867 0.189734
v 0.225000 0.030867 0.188297
v 0.224312 0.030871 0.188742
v 0.181183 0.033204 0.236407
v 0.179825 0.033204 0.237014
v 0.180044 0.033201 0.236447
v -0.224723 0.033204 -0.247568
v -0.224188 0.033204 -0.248433
v 0.224188 0.033204 -0.248433
v 0.224723 0.033204 -0.247568
v -0.224437 0.033204 0.189746
v -0.225000 0.033204 0.188281
v -0.224312 0.033201 0.188742
v -0.179825 0.033204 0.237014
v -0.181183 0.033204 0.236407
v -0.180044 0.033201 0.236447
v 0.225000 0.033204 0.188281
v 0.224437 0.033204 0.189746
v 0.224312 0.033201 0.188742
v -0.225000 -0.023624 -0.247591
v -0.224193 -0.023624 -0.248433
v -0.224549 -0.023934 -0.247947
v 0.224193 -0.023624 -0.248433
v 0.225000 -0.023624 -0.247591
v 0.224549 -0.023934 -0.247947
v -0.179840 -0.023624 0.237014
v -0.181172 -0.023624 0.236419
v -0.180401 -0.023988 0.236443
v -0.224448 -0.023624 0.189734
v -0.225000 -0.023624 0.188297
v -0.224470 -0.023988 0.188902
v 0.225000 -0.023624 0.188297
v 0.224448 -0.023624 0.189734
v 0.224470 -0.023988 0.188902
v 0.181172 -0.023624 0.236419
v 0.179840 -0.023624 0.237014
v 0.180401 -0.023988 0.236443
v -0.224183 0.035566 -0.248433
v -0.225000 0.035566 -0.247515
v -0.221217 0.037601 -0.245240
v -0.222040 0.037601 -0.244318
v 0.222040 0.037601 -0.244318
v 0.221217 0.037601 -0.245240
v 0.225000 0.035566 -0.247515
v 0.224183 0.035566 -0.248433
v -0.222040 0.037601 0.186957
v -0.221477 0.037601 0.188424
v -0.225000 0.035566 0.188280
v -0.224437 0.035566 0.189746
v -0.179958 0.037601 0.233213
v -0.178597 0.037601 0.233821
v -0.181184 0.035566 0.236407
v -0.179824 0.035566 0.237014
v 0.178597 0.037601 0.233821
v 0.179958 0.037601 0.233213
v 0.179824 0.035566 0.237014
v 0.181184 0.035566 0.236407
v 0.221477 0.037601 0.188424
v 0.222040 0.037601 0.186957
v 0.224437 0.035566 0.189746
v 0.225000 0.035566 0.188280
vt 0.485308 0.419562
vt 0.483887 0.419014
vt 0.483887 0.251937
vt 0.485046 0.251082
vt 0.486787 0.252092
vt 0.486800 0.418046
vt 0.327771 0.414593
vt 0.326899 0.413726
vt 0.326899 0.345115
vt 0.327735 0.344413
vt 0.328688 0.344630
vt 0.328687 0.414565
vt 0.248821 0.483801
vt 0.244186 0.483733
vt 0.244186 0.218099
vt 0.248822 0.218144
vt 0.198744 0.483801
vt 0.197146 0.482722
vt 0.197146 0.285800
vt 0.200574 0.286350
vt 0.200574 0.482754
vt 0.205143 0.483801
vt 0.205143 0.285493
vt 0.206733 0.284427
vt 0.208546 0.285473
vt 0.208595 0.480488
vt 0.281225 0.483801
vt 0.280307 0.482923
vt 0.280307 0.130943
vt 0.280882 0.130343
vt 0.286409 0.133342
vt 0.286417 0.481934
vt 0.338854 0.414592
vt 0.336307 0.414593
vt 0.336307 0.345982
vt 0.338854 0.345983
vt 0.565553 0.360801
vt 0.565553 0.419562
vt 0.496908 0.419562
vt 0.496908 0.360801
vt 0.330204 0.344413
vt 0.331039 0.345115
vt 0.331039 0.413726
vt 0.330167 0.414593
vt 0.329251 0.414565
vt 0.329251 0.344630
vt 0.322693 0.377868
vt 0.322624 0.380388
vt 0.320836 0.380380
vt 0.320836 0.377876
vt 0.243622 0.483801
vt 0.239011 0.483738
vt 0.239011 0.219488
vt 0.243622 0.219538
vt 0.000282 0.484364
vt 0.478004 0.484365
vt 0.478004 0.950473
vt 0.432355 0.999718
vt 0.045931 0.999718
vt 0.000282 0.950473
vt 0.488784 0.419562
vt 0.487364 0.419051
vt 0.487364 0.251940
vt 0.488520 0.251112
vt 0.490263 0.252102
vt 0.490277 0.418046
vt 0.233869 0.221429
vt 0.238447 0.221394
vt 0.238448 0.483698
vt 0.233869 0.483801
vt 0.478568 0.478887
vt 0.478568 0.279678
vt 0.480151 0.278626
vt 0.481985 0.279653
vt 0.482035 0.475423
vt 0.418680 0.483801
vt 0.359919 0.483801
vt 0.359919 0.013708
vt 0.418680 0.013758
vt 0.202731 0.483801
vt 0.201138 0.482739
vt 0.201138 0.284970
vt 0.204580 0.285551
vt 0.204579 0.482768
vt 0.233305 0.483801
vt 0.228727 0.483733
vt 0.228727 0.221393
vt 0.233305 0.221447
vt 0.884043 0.360238
vt 0.884043 0.357734
vt 0.953980 0.357734
vt 0.953980 0.360238
vt 0.345031 0.414593
vt 0.342528 0.414593
vt 0.342528 0.344656
vt 0.345031 0.344656
vt 0.218549 0.224403
vt 0.223075 0.224458
vt 0.223075 0.483801
vt 0.218549 0.483746
vt 0.228164 0.483801
vt 0.223638 0.483746
vt 0.223638 0.224403
vt 0.228164 0.224458
vt 0.209158 0.248120
vt 0.213270 0.248165
vt 0.213270 0.483801
vt 0.209158 0.483756
vt 0.359355 0.483801
vt 0.300595 0.483801
vt 0.300595 0.415156
vt 0.359355 0.415156
vt 0.332475 0.414593
vt 0.331603 0.413743
vt 0.331603 0.345099
vt 0.332439 0.344414
vt 0.333391 0.344631
vt 0.333391 0.414565
vt 0.213834 0.245845
vt 0.217986 0.245891
vt 0.217986 0.483801
vt 0.213834 0.483757
vt 0.953980 0.360801
vt 0.953980 0.419562
vt 0.566117 0.419562
vt 0.566117 0.360801
vt 0.341964 0.414593
vt 0.339417 0.414592
vt 0.339417 0.345983
vt 0.341964 0.345982
vt 0.953930 0.420125
vt 0.953980 0.478887
vt 0.483887 0.478886
vt 0.483887 0.420125
vt 0.478004 0.483801
vt 0.419244 0.483800
vt 0.419244 0.000283
vt 0.478004 0.000282
vt 0.287769 0.483801
vt 0.286980 0.483288
vt 0.286980 0.130450
vt 0.287822 0.129521
vt 0.293066 0.130992
vt 0.293097 0.479065
vt 0.491655 0.417933
vt 0.491655 0.350784
vt 0.495634 0.349658
vt 0.496345 0.350332
vt 0.496345 0.418977
vt 0.495634 0.419562
vt 0.266993 0.159303
vt 0.267039 0.478782
vt 0.261400 0.483801
vt 0.261400 0.158361
vt 0.300003 0.118251
vt 0.300031 0.479463
vt 0.294482 0.483801
vt 0.293661 0.483293
vt 0.293661 0.116096
vt 0.294287 0.115491
vt 0.268467 0.483801
vt 0.267602 0.483085
vt 0.267602 0.155464
vt 0.268428 0.154714
vt 0.273306 0.156048
vt 0.273310 0.482233
vt 0.359355 0.345815
vt 0.359355 0.412963
vt 0.355376 0.414593
vt 0.354666 0.414008
vt 0.354666 0.345363
vt 0.355376 0.344689
vt 0.322624 0.380952
vt 0.322693 0.383472
vt 0.320835 0.383464
vt 0.320835 0.380960
vt 0.953980 0.991324
vt 0.953028 0.999606
vt 0.485829 0.999718
vt 0.478568 0.991324
vt 0.478568 0.529621
vt 0.478779 0.527677
vt 0.522350 0.480642
vt 0.525075 0.479450
vt 0.907472 0.479450
vt 0.909332 0.479738
vt 0.952877 0.526679
vt 0.953980 0.529622
vt 0.254628 0.182748
vt 0.254639 0.482099
vt 0.249385 0.483801
vt 0.249385 0.181750
vt 0.279703 0.147386
vt 0.279744 0.479204
vt 0.273873 0.483801
vt 0.273873 0.145200
vt 0.349567 0.347108
vt 0.349567 0.412966
vt 0.345595 0.414593
vt 0.345595 0.345983
vt 0.350130 0.412965
vt 0.350130 0.347108
vt 0.354102 0.345983
vt 0.354102 0.414593
vt 0.255202 0.483801
vt 0.255203 0.159658
vt 0.260818 0.162074
vt 0.260837 0.481784
vt 0.482598 0.472151
vt 0.482598 0.470490
vt 0.483119 0.471437
vt 0.482609 0.454730
vt 0.482609 0.453157
vt 0.483078 0.453607
vt 0.482609 0.456868
vt 0.482609 0.455294
vt 0.483078 0.456417
vt 0.482592 0.474375
vt 0.482592 0.472714
vt 0.483113 0.473428
vt 0.482615 0.459036
vt 0.482615 0.457431
vt 0.483078 0.457897
vt 0.482598 0.476631
vt 0.482598 0.474938
vt 0.483113 0.475668
vt 0.482615 0.461204
vt 0.482615 0.459599
vt 0.483078 0.460738
vt 0.482598 0.478887
vt 0.482598 0.477194
vt 0.483113 0.478157
vt 0.482609 0.452593
vt 0.482609 0.451335
vt 0.482953 0.451980
vt 0.482609 0.450772
vt 0.482609 0.449514
vt 0.482953 0.450127
vt 0.482615 0.465478
vt 0.482615 0.463905
vt 0.483119 0.464675
vt 0.482625 0.469927
vt 0.482625 0.468266
vt 0.483119 0.469080
vt 0.482625 0.467703
vt 0.482625 0.466042
vt 0.483119 0.466888
vt 0.482615 0.463341
vt 0.482615 0.461767
vt 0.483119 0.462571
vt 0.320172 0.364237
vt 0.322692 0.364237
vt 0.322693 0.365282
vt 0.320172 0.365333
vt 0.318281 0.403430
vt 0.320802 0.403481
vt 0.320801 0.404526
vt 0.318281 0.404527
vt 0.324514 0.355830
vt 0.324302 0.414593
vt 0.323257 0.414593
vt 0.323257 0.355831
vt 0.326123 0.355826
vt 0.326336 0.414593
vt 0.325078 0.414592
vt 0.325078 0.355826
vt 0.883480 0.360238
vt 0.824718 0.360238
vt 0.824718 0.358577
vt 0.883480 0.358577
vt 0.824155 0.360238
vt 0.765393 0.360238
vt 0.765393 0.358577
vt 0.824155 0.358577
vt 0.764830 0.360237
vt 0.706067 0.360238
vt 0.706067 0.358664
vt 0.764830 0.358664
vt 0.705504 0.360237
vt 0.646742 0.360238
vt 0.646742 0.358664
vt 0.705504 0.358664
vt 0.322686 0.409407
vt 0.322693 0.414593
vt 0.321365 0.414479
vt 0.321365 0.409293
vt 0.322693 0.403430
vt 0.322686 0.408616
vt 0.321365 0.408730
vt 0.321365 0.403544
vt 0.321088 0.393331
vt 0.321088 0.389039
vt 0.322693 0.388965
vt 0.322692 0.393257
vt 0.322693 0.398662
vt 0.322692 0.402790
vt 0.320999 0.402867
vt 0.320999 0.398739
vt 0.322692 0.393971
vt 0.322693 0.398099
vt 0.320999 0.398022
vt 0.320999 0.393894
vt 0.321088 0.388328
vt 0.321088 0.384036
vt 0.322692 0.384109
vt 0.322693 0.388401
vt 0.322693 0.377304
vt 0.320146 0.377304
vt 0.320146 0.375610
vt 0.322693 0.375611
vt 0.319479 0.368445
vt 0.319479 0.365898
vt 0.320575 0.365896
vt 0.320804 0.368451
vt 0.322693 0.365896
vt 0.322464 0.368451
vt 0.321368 0.368450
vt 0.321368 0.365903
vt 0.322693 0.375047
vt 0.320146 0.375046
vt 0.320146 0.373353
vt 0.322693 0.373353
vt 0.320146 0.371184
vt 0.322693 0.371184
vt 0.322693 0.372789
vt 0.320146 0.372789
vt 0.320146 0.369015
vt 0.322693 0.369015
vt 0.322693 0.370620
vt 0.320146 0.370620
vt 0.334908 0.344413
vt 0.335743 0.345099
vt 0.335743 0.413743
vt 0.334871 0.414593
vt 0.333955 0.414565
vt 0.333955 0.344630
vn 0.0000 -1.0000 0.0066
vn -0.0034 -1.0000 0.0031
vn 0.0000 0.0000 -1.0000
vn -0.0057 -1.0000 -0.0000
vn 0.0057 -1.0000 -0.0000
vn -0.5666 -0.8240 0.0000
vn 0.7334 -0.0000 0.6798
vn -0.7334 0.0000 0.6798
vn 0.0034 -1.0000 0.0031
vn 0.7002 -0.0072 0.7139
vn 0.0000 -1.0000 -0.0000
vn 0.0000 1.0000 0.0066
vn -0.9983 -0.0585 -0.0003
vn -0.0057 1.0000 -0.0000
vn -1.0000 0.0023 -0.0003
vn 0.0057 1.0000 -0.0000
vn 0.9983 -0.0585 -0.0003
vn 1.0000 0.0000 0.0000
vn -1.0000 0.0000 0.0000
vn 0.0000 0.0000 1.0000
vn 0.0034 1.0000 0.0031
vn 1.0000 0.0023 -0.0003
vn 0.5666 -0.8240 0.0000
vn 0.4052 -0.8335 0.3756
vn -0.5666 0.8240 0.0000
vn 0.0000 -0.8433 -0.5375
vn -0.0000 -0.8433 0.5375
vn -0.4052 -0.8335 0.3756
vn -0.7002 -0.0072 0.7139
vn 0.0000 1.0000 -0.0000
vn 0.0000 0.8433 0.5375
vn 0.0000 0.8433 -0.5375
vn 0.4052 0.8335 0.3756
vn -0.4052 0.8335 0.3756
vn 0.5666 0.8240 0.0000
vn -0.0069 1.0000 0.0026
vn -0.0035 1.0000 0.0078
vn 0.0035 1.0000 0.0078
vn 0.0069 1.0000 0.0027
vn 0.0035 -1.0000 0.0079
vn -0.0070 -1.0000 0.0027
vn -0.0035 -1.0000 0.0079
vn 0.0070 -1.0000 0.0027
vn -0.6995 -0.2471 -0.6706
vn 0.6995 -0.2471 -0.6706
vn -0.3180 -0.6265 0.7116
vn -0.7426 -0.6060 0.2851
vn 0.7426 -0.6060 0.2851
vn 0.3180 -0.6265 0.7116
vn -0.8364 0.0126 -0.5480
vn 0.8364 0.0126 -0.5480
vn -0.7692 0.0015 -0.6390
vn 0.7692 0.0015 -0.6390
vn -0.9335 0.0000 0.3585
vn 0.9335 0.0000 0.3585
vn 0.4080 0.0000 0.9130
vn -0.4080 0.0000 0.9130
vn -0.3171 0.9053 -0.2826
vn 0.3171 0.9053 -0.2826
vn -0.2088 0.8591 0.4673
vn -0.4968 0.8466 0.1908
vn 0.4968 0.8466 0.1908
vn 0.2088 0.8591 0.4673
vn -0.9335 0.0001 0.3585
vn -0.7961 -0.0389 -0.6039
vn 0.7961 -0.0389 -0.6039
vn 0.9335 0.0001 0.3585
vn -0.4080 0.0001 0.9130
vn 0.4080 0.0001 0.9130
vn -0.0034 1.0000 0.0031
usemtl Material
s off
f 37/1/1 36/2/1 45/3/1 47/4/1 11/5/1 5/6/1
f 47/7/2 46/8/2 42/9/2 44/10/2 10/11/2 11/12/2
f 39/13/3 69/14/3 76/15/3 40/16/3
f 44/17/4 43/18/4 38/19/4 6/20/4 10/21/4
f 41/22/5 48/23/5 50/24/5 12/25/5 8/26/5
f 62/27/6 61/28/6 51/29/6 53/30/6 13/31/6 16/32/6
f 88/33/7 35/34/7 49/35/7 91/36/7
f 58/37/8 22/38/8 20/39/8 60/40/8
f 50/41/9 49/42/9 35/43/9 37/44/9 5/45/9 12/46/9
f 25/47/10 41/48/10 8/49/10 9/50/10
f 27/51/3 39/52/3 40/53/3 26/54/3
f 13/55/11 14/56/11 17/57/11 18/58/11 15/59/11 16/60/11
f 24/61/12 23/62/12 29/63/12 31/64/12 3/65/12 1/66/12
f 43/67/13 79/68/13 70/69/13 38/70/13
f 28/71/14 19/72/14 21/73/14 2/74/14 7/75/14
f 61/76/15 19/77/15 28/78/15 51/79/15
f 34/80/16 33/81/16 25/82/16 9/83/16 4/84/16
f 41/85/17 75/86/17 92/87/17 48/88/17
f 5/89/7 3/90/7 4/91/7 12/92/7
f 1/93/8 11/94/8 10/95/8 2/96/8
f 9/97/18 8/98/18 12/99/18 4/100/18
f 2/101/19 10/102/19 6/103/19 7/104/19
f 3/105/20 5/106/20 11/107/20 1/108/20
f 30/109/7 66/110/7 64/111/7 32/112/7
f 31/113/21 30/114/21 32/115/21 34/116/21 4/117/21 3/118/21
f 36/119/20 87/120/20 84/121/20 45/122/20
f 67/123/20 29/124/20 23/125/20 57/126/20
f 46/127/8 83/128/8 80/129/8 42/130/8
f 55/131/22 25/132/22 33/133/22 63/134/22
f 52/135/3 27/136/3 26/137/3 54/138/3
f 56/139/23 55/140/23 63/141/23 65/142/23 17/143/23 14/144/23
f 18/145/24 17/146/24 65/147/24 64/148/24 66/149/24 68/150/24
f 77/151/25 72/152/25 70/153/25 79/154/25
f 14/155/26 13/156/26 53/157/26 52/158/26 54/159/26 56/160/26
f 68/161/27 67/162/27 57/163/27 59/164/27 15/165/27 18/166/27
f 16/167/28 15/168/28 59/169/28 58/170/28 60/171/28 62/172/28
f 38/173/29 28/174/29 7/175/29 6/176/29
f 73/177/30 74/178/30 71/179/30 72/180/30 77/181/30 78/182/30 81/183/30 82/184/30 85/185/30 86/186/30 89/187/30 90/188/30
f 85/189/31 82/190/31 84/191/31 87/192/31
f 71/193/32 74/194/32 76/195/32 69/196/32
f 89/197/33 86/198/33 88/199/33 91/200/33
f 81/201/34 78/202/34 80/203/34 83/204/34
f 92/205/35 75/206/35 73/207/35 90/208/35
f 19/209/36 20/210/36 21/211/36
f 22/212/37 23/213/37 24/214/37
f 29/215/38 30/216/38 31/217/38
f 32/218/39 33/219/39 34/220/39
f 35/221/40 36/222/40 37/223/40
f 42/224/41 43/225/41 44/226/41
f 45/227/42 46/228/42 47/229/42
f 48/230/43 49/231/43 50/232/43
f 51/233/44 52/234/44 53/235/44
f 54/236/45 55/237/45 56/238/45
f 57/239/46 58/240/46 59/241/46
f 60/242/47 61/243/47 62/244/47
f 63/245/48 64/246/48 65/247/48
f 66/248/49 67/249/49 68/250/49
f 39/251/50 27/252/50 28/253/50 38/254/50
f 41/255/51 25/256/51 26/257/51 40/258/51
f 51/259/52 28/260/52 27/261/52 52/262/52
f 25/263/53 55/264/53 54/265/53 26/266/53
f 60/267/54 20/268/54 19/269/54 61/270/54
f 32/271/55 64/272/55 63/273/55 33/274/55
f 66/275/56 30/276/56 29/277/56 67/278/56
f 22/279/57 58/280/57 57/281/57 23/282/57
f 70/283/58 72/284/58 71/285/58 69/286/58
f 73/287/59 75/288/59 76/289/59 74/290/59
f 84/291/60 82/292/60 81/293/60 83/294/60
f 77/295/61 79/296/61 80/297/61 78/298/61
f 92/299/62 90/300/62 89/301/62 91/302/62
f 85/303/63 87/304/63 88/305/63 86/306/63
f 42/307/64 80/308/64 79/309/64 43/310/64
f 69/311/65 39/312/65 38/313/65 70/314/65
f 75/315/66 41/316/66 40/317/66 76/318/66
f 91/319/67 49/320/67 48/321/67 92/322/67
f 45/323/68 84/324/68 83/325/68 46/326/68
f 35/327/69 88/328/69 87/329/69 36/330/69
f 21/331/70 20/332/70 22/333/70 24/334/70 1/335/70 2/336/70
