# Blender v3.0.0 OBJ File: 'Knife.blend'
# www.blender.org
mtllib Knife.mtl
o Plane
v -0.690261 -0.690261 -0.000000
v 0.690261 -0.690261 -0.000000
v -0.690261 0.690261 0.000000
v 0.690261 0.690261 0.000000
v -1.000000 -1.000000 3.982625
v 1.000000 -1.000000 3.982625
v -1.000000 1.000000 3.982625
v 1.000000 1.000000 3.982625
v -0.690261 0.230087 0.000000
v -0.690261 -0.230087 -0.000000
v 0.690261 -0.230087 -0.000000
v 0.690261 0.230087 0.000000
v -1.000000 0.333333 3.982625
v -1.000000 -0.333333 3.982625
v 1.000000 -0.333333 3.982625
v 1.000000 0.333333 3.982625
v -0.807376 -0.269125 5.403942
v -0.807376 -0.807376 5.403942
v 0.807376 -0.807376 5.403942
v 0.807376 0.269125 5.403942
v 0.807376 0.807376 5.403942
v -0.807376 0.807376 5.403942
v -0.807376 0.269125 5.403942
v 0.807376 -0.269125 5.403942
v -1.060786 -0.353596 6.718234
v -1.060786 -1.060786 6.718234
v 0.792649 -1.060786 6.718234
v 0.792649 0.353595 6.718234
v 0.792649 1.060786 6.718234
v -1.060786 1.060786 6.718234
v -1.060786 0.353595 6.718234
v 0.792649 -0.353596 6.718234
v -0.892234 -0.297412 8.186472
v -0.892234 -0.892234 8.186472
v 0.892234 -0.892234 8.186472
v 0.892234 0.297411 8.186472
v 0.892234 0.892234 8.186472
v -0.892234 0.892234 8.186472
v -0.892234 0.297411 8.186472
v 0.892234 -0.297411 8.186472
v -0.892234 -0.297412 10.047523
v -0.892234 -0.892234 10.047523
v 0.892234 -0.892234 10.047523
v 0.892234 0.297411 10.047523
v 0.892234 0.892233 10.047523
v -0.892234 0.892233 10.047523
v -0.892234 0.297411 10.047523
v 0.892234 -0.297412 10.047523
v -0.892234 0.297411 11.168607
v -0.892234 -0.297412 11.168607
v 0.892234 -0.297412 11.168607
v 0.892234 0.297411 11.168607
v -0.892234 0.297411 11.838203
v -0.892234 -0.297412 11.838203
v 0.892234 -0.297412 11.838203
v 0.892234 0.297411 11.838203
v -1.305165 -0.000001 16.357899
v 0.892234 -0.155082 16.357899
v 0.892234 0.155081 16.357899
v -0.443791 -0.000001 19.454863
v 0.804937 -0.000001 20.397717
v 0.892234 -0.297412 11.930118
v -0.892234 -0.000000 12.816712
v 0.892234 0.297411 11.930118
v 0.823162 0.032375 19.554344
v -1.072481 -0.000001 17.819653
v 0.823162 -0.032376 19.554344
v 1.000000 -1.000000 0.424199
v -1.000000 -1.000000 0.424199
v 1.000000 1.000000 0.424199
v -1.000000 1.000000 0.424199
v -1.000000 0.333333 0.424199
v -1.000000 -0.333333 0.424199
v 1.000000 -0.333333 0.424199
v 1.000000 0.333333 0.424199
v 0.816310 -0.816310 0.885692
v 0.816310 -0.816310 1.853952
v 0.816310 0.816310 0.885692
v 0.816310 0.816310 1.853952
v -0.816310 0.272103 0.885692
v -0.816310 0.272103 1.853952
v -0.816310 -0.272103 0.885692
v -0.816310 -0.272103 1.853952
v 0.816310 -0.272103 0.885692
v 0.816310 -0.272103 1.853952
v 0.816310 0.272103 0.885692
v 0.816310 0.272103 1.853952
v -0.816310 -0.816310 1.853951
v -0.816310 -0.816310 0.885692
v -0.816310 0.816310 1.853951
v -0.816310 0.816310 0.885692
v -0.679208 0.679208 9.749073
v -0.679208 0.679208 9.276834
v -0.679208 0.226402 9.276834
v -0.679208 0.226402 9.749073
v 0.679208 0.679208 9.276834
v 0.679208 0.679208 9.749073
v 0.679208 0.226402 9.749073
v 0.679208 0.226402 9.276834
v -0.679208 -0.679208 9.276834
v -0.679208 -0.679208 9.749073
v -0.679208 -0.226403 9.749073
v -0.679208 -0.226403 9.276834
v 0.679208 -0.226403 9.749073
v 0.679208 -0.226403 9.276834
v 0.679208 -0.679208 9.276834
v 0.679208 -0.679208 9.749073
v -0.931197 0.310399 9.910426
v 0.931197 0.931196 9.910426
v -0.931197 -0.931197 9.910426
v 0.931197 -0.931197 9.910426
v -0.931197 0.931196 9.910426
v 0.931197 0.310399 9.910426
v -0.931197 -0.310399 9.910426
v 0.931197 -0.310399 9.910426
v 0.000000 -0.690261 -0.000000
v 0.000000 0.690261 0.000000
v 0.000000 -1.000000 3.982625
v 0.000000 1.000000 3.982625
v 0.000000 -0.230087 -0.000000
v 0.000000 0.230087 0.000000
v 0.000000 -0.807376 5.403942
v 0.000000 0.807376 5.403942
v -0.134068 -1.060786 6.718234
v -0.134068 1.060786 6.718234
v 0.000000 -0.892234 8.186472
v 0.000000 0.892234 8.186472
v 0.000000 -0.892234 10.047523
v 0.000000 0.892233 10.047523
v 0.000000 -0.297412 10.047523
v 0.000000 0.297411 10.047523
v 0.000000 -0.297412 11.168607
v 0.000000 0.297411 11.168607
v 0.000000 -0.297412 11.838203
v 0.000000 0.297411 11.838203
v 0.000000 0.077540 16.357899
v -0.124659 -0.016189 18.686998
v 0.000000 -0.077541 16.357899
v 0.180573 -0.000001 19.926289
v 0.000000 0.148705 12.373415
v 0.000000 -0.148706 12.373415
v -0.124659 0.016187 18.686998
v 0.000000 1.000000 0.424199
v 0.000000 -1.000000 0.424199
v 0.000000 0.816310 0.885692
v 0.000000 0.816310 1.853951
v 0.000000 -0.816310 0.885692
v 0.000000 -0.816310 1.853951
v 0.000000 -0.679208 9.276834
v 0.000000 -0.679208 9.749073
v 0.000000 0.679208 9.276834
v 0.000000 0.679208 9.749073
v 0.000000 -0.931197 9.910426
v 0.000000 0.931196 9.910426
v 0.729057 -0.249968 13.406045
v 0.706637 -0.202525 14.881971
v -1.305165 -0.000001 15.177504
v -1.305165 -0.000000 13.997108
v 0.706637 0.202524 14.881971
v 0.729057 0.249968 13.406044
v 0.000000 0.124984 13.701576
v 0.000000 0.101262 15.029737
v 0.000000 -0.124984 13.701576
v 0.000000 -0.101263 15.029737
vt 0.896775 0.883233
vt 0.903167 0.853739
vt 0.938630 0.867469
vt 0.936059 0.887935
vt 0.417843 0.447738
vt 0.418441 0.489377
vt 0.323200 0.483449
vt 0.321870 0.445832
vt 0.564346 0.309583
vt 0.561466 0.367889
vt 0.417773 0.363346
vt 0.414187 0.296753
vt 0.562083 0.444765
vt 0.562029 0.483175
vt 0.585461 0.166677
vt 0.585407 0.205087
vt 0.441819 0.211289
vt 0.441221 0.169651
vt 0.587724 0.031495
vt 0.584844 0.089801
vt 0.441151 0.085258
vt 0.437565 0.018666
vt 0.585250 0.128450
vt 0.441084 0.126979
vt 0.561872 0.406538
vt 0.417706 0.405067
vt 0.345248 0.167745
vt 0.344682 0.130125
vt 0.321304 0.408212
vt 0.902417 0.942799
vt 0.896155 0.913240
vt 0.935261 0.910623
vt 0.935878 0.930862
vt 0.960979 0.168448
vt 0.960120 0.206069
vt 0.870688 0.219217
vt 0.871680 0.172724
vt 0.961245 0.349939
vt 0.962962 0.388132
vt 0.873763 0.385414
vt 0.873046 0.343118
vt 0.959973 0.093573
vt 0.960737 0.131054
vt 0.871772 0.126671
vt 0.870896 0.080242
vt 0.346579 0.205362
vt 0.322215 0.370430
vt 0.345592 0.092343
vt 0.336228 0.035301
vt 0.312851 0.313388
vt 0.779422 0.386606
vt 0.781612 0.347423
vt 0.776788 0.129867
vt 0.778528 0.092255
vt 0.872433 0.018666
vt 0.770031 0.032803
vt 0.963498 0.426162
vt 0.961557 0.464625
vt 0.872675 0.471068
vt 0.873532 0.428690
vt 0.973453 0.292094
vt 0.875527 0.281462
vt 0.966226 0.036180
vt 0.794262 0.641480
vt 0.794917 0.611629
vt 0.800052 0.612566
vt 0.804587 0.642363
vt 0.708004 0.623949
vt 0.708658 0.594099
vt 0.713794 0.595036
vt 0.718328 0.624832
vt 0.788793 0.717460
vt 0.791647 0.687039
vt 0.802067 0.687292
vt 0.794539 0.717467
vt 0.778184 0.206748
vt 0.776624 0.169020
vt 0.781293 0.466192
vt 0.779379 0.426850
vt 0.769600 0.287738
vt 0.757202 0.585409
vt 0.730920 0.559494
vt 0.716201 0.742663
vt 0.708281 0.699937
vt 0.715808 0.669761
vt 0.757201 0.721824
vt 0.750471 0.799277
vt 0.750939 0.864963
vt 0.668795 0.865053
vt 0.667936 0.799865
vt 0.705388 0.669508
vt 0.793302 0.761658
vt 0.802459 0.760193
vt 0.707043 0.744127
vt 0.702535 0.699929
vt 0.222777 0.641532
vt 0.158074 0.643004
vt 0.156991 0.596086
vt 0.221149 0.592417
vt 0.223828 0.724090
vt 0.158123 0.724927
vt 0.750939 0.908878
vt 0.668641 0.908435
vt 0.114024 0.724904
vt 0.115133 0.642627
vt 0.375410 0.813299
vt 0.385785 0.869581
vt 0.273763 0.874550
vt 0.274034 0.807807
vt 0.620322 0.907812
vt 0.620607 0.865277
vt 0.618681 0.800771
vt 0.116444 0.595149
vt 0.069953 0.882386
vt 0.091694 0.806037
vt 0.238705 0.345188
vt 0.142215 0.331026
vt 0.143911 0.249158
vt 0.238705 0.242260
vt 0.385862 0.901582
vt 0.273514 0.896113
vt 0.191597 0.075750
vt 0.145857 0.155279
vt 0.148060 0.048975
vt 0.149069 0.000263
vt 0.069917 0.886333
vt 0.054217 0.884255
vt 0.014215 0.884006
vt 0.613670 0.907662
vt 0.614032 0.865352
vt 0.138475 0.511820
vt 0.217887 0.550126
vt 0.577020 0.802497
vt 0.962718 0.883095
vt 0.961441 0.917071
vt 0.952850 0.942034
vt 0.928841 0.707239
vt 0.929639 0.684552
vt 0.956298 0.679712
vt 0.955022 0.713688
vt 0.929458 0.727479
vt 0.946430 0.738651
vt 0.895998 0.739416
vt 0.912383 0.770746
vt 0.932210 0.664086
vt 0.949664 0.654302
vt 0.956083 0.857685
vt 0.918803 0.974129
vt 0.992449 0.882768
vt 0.992449 0.919925
vt 0.629712 0.406646
vt 0.629813 0.444348
vt 0.978462 0.956479
vt 0.630230 0.369365
vt 0.986030 0.679385
vt 0.986030 0.716542
vt 0.653090 0.128558
vt 0.653191 0.166260
vt 0.972043 0.753095
vt 0.653609 0.091277
vt 0.936341 0.792469
vt 0.655697 0.033971
vt 0.976230 0.641854
vt 0.653663 0.204057
vt 0.982650 0.845237
vt 0.630285 0.482145
vt 0.942761 0.995853
vt 0.632319 0.312059
vt 0.698457 0.132407
vt 0.698587 0.098579
vt 0.664265 0.132542
vt 0.663607 0.100010
vt 0.691653 0.048251
vt 0.658982 0.052001
vt 0.699638 0.355287
vt 0.691782 0.304909
vt 0.664486 0.357076
vt 0.659184 0.309166
vt 0.699499 0.422935
vt 0.699742 0.389476
vt 0.665112 0.422031
vt 0.665314 0.389689
vt 0.698262 0.165497
vt 0.664115 0.164754
vt 0.697986 0.199823
vt 0.662510 0.196707
vt 0.698961 0.457651
vt 0.663254 0.454101
vt 0.682999 0.699436
vt 0.682515 0.662770
vt 0.686647 0.745734
vt 0.772906 0.763265
vt 0.769257 0.716967
vt 0.768773 0.680301
vt 0.770472 0.645101
vt 0.684213 0.627570
vt 0.689871 0.591127
vt 0.776129 0.608657
vt 0.704693 0.549390
vt 0.723080 0.555920
vt 0.790952 0.566921
vt 0.809338 0.573451
vt 0.690786 0.250862
vt 0.656189 0.246467
vt 0.769450 0.266447
vt 0.690820 0.508823
vt 0.656189 0.503910
vt 0.768982 0.526106
vt 0.655697 0.260088
vt 0.589123 0.263135
vt 0.916326 0.618137
vt 0.943045 0.597944
vt 0.632319 0.538176
vt 0.565745 0.541223
vt 0.922746 0.821520
vt 0.949464 0.801327
vt 0.896748 0.650356
vt 0.273348 0.962909
vt 0.090810 0.962924
vt 0.052555 0.588941
vt 0.057526 0.546821
vt 0.617692 0.972464
vt 0.576084 0.970215
vt 0.103450 0.073923
vt 0.375116 0.957898
vt 0.049484 0.238338
vt 0.049206 0.639671
vt 0.045219 0.341178
vt 0.750335 0.975020
vt 0.667256 0.974011
vt 0.817178 0.577025
vt 0.047099 0.723639
vt 0.843460 0.602940
vt 0.843460 0.739354
vt 0.872047 0.280970
vt 0.973453 0.522888
vt 0.874886 0.532932
vt 0.966226 0.263681
vt 0.439062 0.277806
vt 0.337865 0.262326
vt 0.415683 0.555894
vt 0.314486 0.540413
vt 0.889736 0.709857
vt 0.890356 0.679849
vt 0.052287 0.443370
vt 0.140573 0.410282
vt 0.476316 0.960410
vt 0.503249 0.905468
vt 0.503184 0.866665
vt 0.227409 0.446997
vt 0.476695 0.811384
vn 0.0000 0.0000 -1.0000
vn 0.9909 0.0000 0.1343
vn 0.0000 -0.9963 -0.0860
vn 0.9963 0.0000 -0.0860
vn -0.9963 -0.0000 -0.0860
vn 0.0000 0.9963 -0.0860
vn -0.9909 0.0000 0.1343
vn 0.9999 0.0000 0.0112
vn -0.9819 0.0000 -0.1893
vn 0.0000 0.9909 0.1343
vn 0.0000 -0.9909 0.1343
vn -0.9935 0.0000 0.1141
vn 0.9977 0.0000 -0.0677
vn 0.0000 -0.9935 0.1141
vn 0.0000 0.9819 -0.1893
vn 0.0000 -0.9819 -0.1893
vn -0.9619 0.0000 0.2734
vn 0.9619 0.0000 0.2734
vn 0.0000 0.9935 0.1141
vn 0.0000 0.0000 1.0000
vn 0.0000 -1.0000 -0.0000
vn 0.0000 0.9619 0.2734
vn 0.0000 -0.9619 0.2734
vn 0.0000 1.0000 0.0000
vn 1.0000 0.0000 0.0000
vn -1.0000 0.0000 0.0000
vn -0.1081 -0.9936 0.0324
vn -0.0654 -0.9974 0.0309
vn -0.0678 0.9977 0.0094
vn 0.9922 0.0000 -0.1248
vn -0.0209 0.9997 0.0124
vn 0.9998 0.0000 0.0216
vn -0.0341 -0.9990 0.0280
vn -0.0097 0.9592 0.2827
vn -0.0238 -0.9727 0.2307
vn -0.0483 0.9987 0.0175
vn 0.8076 0.0000 -0.5897
vn -0.8076 0.0000 -0.5897
vn 0.0000 0.8076 -0.5897
vn 0.0000 -0.8076 -0.5897
vn 0.9291 0.0000 0.3698
vn -0.9291 0.0000 0.3698
vn 0.0000 0.9291 0.3698
vn 0.0000 -0.9291 0.3698
vn 0.9814 0.0000 0.1917
vn 0.0000 -0.9814 0.1917
vn 0.0000 0.9814 0.1917
vn -0.9814 0.0000 0.1917
vn 0.5392 0.0000 -0.8421
vn 0.0000 -0.5392 -0.8421
vn 0.0000 0.5392 -0.8421
vn -0.5392 0.0000 -0.8421
vn 0.5392 0.0000 -0.8422
vn -0.0654 0.9974 0.0309
vn -0.0097 -0.9592 0.2827
vn -0.0238 0.9727 0.2307
vn -0.0209 -0.9997 0.0124
vn -0.0341 0.9990 0.0280
vn -0.1081 0.9936 0.0324
vn -0.0483 -0.9987 0.0175
vn -0.0678 -0.9977 0.0094
vn -0.1274 -0.9918 -0.0116
vn -0.0848 -0.9964 0.0094
vn -0.1594 0.9871 0.0158
vn -0.1484 0.9886 0.0239
vn 0.9939 0.0000 0.1099
vn 0.9999 0.0000 0.0152
vn -0.1274 0.9918 -0.0116
vn -0.0848 0.9964 0.0094
vn -0.1594 -0.9871 0.0158
vn -0.1484 -0.9886 0.0239
usemtl Material
s off
f 121/1/1 117/2/1 4/3/1 12/4/1
f 16/5/2 8/6/2 21/7/2 20/8/2
f 148/9/3 77/10/3 6/11/3 118/12/3
f 87/13/4 79/14/4 8/6/4 16/5/4
f 83/15/5 88/16/5 5/17/5 14/18/5
f 146/19/6 90/20/6 7/21/6 119/22/6
f 90/20/5 81/23/5 13/24/5 7/21/5
f 81/23/5 83/15/5 14/18/5 13/24/5
f 77/10/4 85/25/4 15/26/4 6/11/4
f 85/25/4 87/13/4 16/5/4 15/26/4
f 13/24/7 14/18/7 17/27/7 23/28/7
f 15/26/2 16/5/2 20/8/2 24/29/2
f 116/30/1 120/31/1 11/32/1 2/33/1
f 120/31/1 121/1/1 12/4/1 11/32/1
f 20/34/8 21/35/8 29/36/8 28/37/8
f 22/38/9 23/39/9 31/40/9 30/41/9
f 19/42/8 24/43/8 32/44/8 27/45/8
f 14/18/7 5/17/7 18/46/7 17/27/7
f 6/11/2 15/26/2 24/29/2 19/47/2
f 119/22/10 7/21/10 22/48/10 123/49/10
f 7/21/7 13/24/7 23/28/7 22/48/7
f 118/12/11 6/11/11 19/47/11 122/50/11
f 30/41/12 31/40/12 39/51/12 38/52/12
f 27/45/13 32/44/13 40/53/13 35/54/13
f 124/55/14 27/45/14 35/54/14 126/56/14
f 17/57/9 18/58/9 26/59/9 25/60/9
f 24/43/8 20/34/8 28/37/8 32/44/8
f 23/39/9 17/57/9 25/60/9 31/40/9
f 123/61/15 22/38/15 30/41/15 125/62/15
f 122/63/16 19/42/16 27/45/16 124/55/16
f 114/64/17 110/65/17 42/66/17 41/67/17
f 113/68/18 109/69/18 45/70/18 44/71/18
f 112/72/17 108/73/17 47/74/17 46/75/17
f 28/37/13 29/36/13 37/76/13 36/77/13
f 25/60/12 26/59/12 34/78/12 33/79/12
f 32/44/13 28/37/13 36/77/13 40/53/13
f 31/40/12 25/60/12 33/79/12 39/51/12
f 125/62/19 30/41/19 38/52/19 127/80/19
f 131/81/20 44/71/20 45/70/20 129/82/20
f 128/83/20 43/84/20 48/85/20 130/86/20
f 130/87/21 48/88/21 51/89/21 132/90/21
f 115/91/18 113/68/18 44/71/18 48/85/18
f 108/73/17 114/64/17 41/67/17 47/74/17
f 154/92/22 112/72/22 46/75/22 129/93/22
f 153/94/23 111/95/23 43/84/23 128/83/23
f 111/95/18 115/91/18 48/85/18 43/84/18
f 133/96/24 49/97/24 53/98/24 135/99/24
f 131/100/24 47/101/24 49/97/24 133/96/24
f 48/88/25 44/102/25 52/103/25 51/89/25
f 47/101/26 41/104/26 50/105/26 49/97/26
f 164/106/27 156/107/27 58/108/27 138/109/27
f 51/89/25 52/103/25 56/110/25 55/111/25
f 132/90/21 51/89/21 55/111/21 134/112/21
f 49/97/26 50/105/26 54/113/26 53/98/26
f 138/109/28 58/108/28 67/114/28 137/115/28
f 162/116/29 157/117/29 57/118/29 136/119/29
f 156/107/30 159/120/30 59/121/30 58/108/30
f 142/122/31 66/123/31 60/124/31 139/125/31
f 67/114/32 65/126/32 61/127/32
f 137/115/33 67/114/33 61/127/33 139/128/33
f 55/111/25 56/110/25 64/129/25 62/130/25
f 135/99/34 53/98/34 63/131/34 140/132/34
f 53/98/26 54/113/26 63/131/26
f 134/112/35 55/111/35 62/130/35 141/133/35
f 58/108/32 59/121/32 65/126/32 67/114/32
f 136/119/36 57/118/36 66/123/36 142/122/36
f 11/32/37 12/4/37 75/134/37 74/135/37
f 2/33/37 11/32/37 74/135/37 68/136/37
f 9/137/38 10/138/38 73/139/38 72/140/38
f 3/141/38 9/137/38 72/140/38 71/142/38
f 117/143/39 3/141/39 71/142/39 143/144/39
f 10/138/38 1/145/38 69/146/38 73/139/38
f 12/4/37 4/3/37 70/147/37 75/134/37
f 116/30/40 2/33/40 68/136/40 144/148/40
f 74/135/41 75/134/41 86/149/41 84/150/41
f 84/151/25 86/152/25 87/13/25 85/25/25
f 68/136/41 74/135/41 84/150/41 76/153/41
f 76/154/25 84/151/25 85/25/25 77/10/25
f 72/140/42 73/139/42 82/155/42 80/156/42
f 80/157/26 82/158/26 83/15/26 81/23/26
f 71/142/42 72/140/42 80/156/42 91/159/42
f 91/160/26 80/157/26 81/23/26 90/20/26
f 143/144/43 71/142/43 91/159/43 145/161/43
f 145/162/24 91/160/24 90/20/24 146/19/24
f 73/139/42 69/146/42 89/163/42 82/155/42
f 82/158/26 89/164/26 88/16/26 83/15/26
f 75/134/41 70/147/41 78/165/41 86/149/41
f 86/152/25 78/166/25 79/14/25 87/13/25
f 144/148/44 68/136/44 76/153/44 147/167/44
f 147/168/21 76/154/21 77/10/21 148/9/21
f 35/54/45 40/53/45 105/169/45 106/170/45
f 106/170/25 105/169/25 104/171/25 107/172/25
f 126/56/46 35/54/46 106/170/46 149/173/46
f 149/173/21 106/170/21 107/172/21 150/174/21
f 127/80/47 38/52/47 93/175/47 151/176/47
f 151/176/24 93/175/24 92/177/24 152/178/24
f 39/51/48 33/79/48 103/179/48 94/180/48
f 94/180/26 103/179/26 102/181/26 95/182/26
f 40/53/45 36/77/45 99/183/45 105/169/45
f 105/169/25 99/183/25 98/184/25 104/171/25
f 38/52/48 39/51/48 94/180/48 93/175/48
f 93/175/26 94/180/26 95/182/26 92/177/26
f 36/77/45 37/76/45 96/185/45 99/183/45
f 99/183/25 96/185/25 97/186/25 98/184/25
f 33/79/48 34/78/48 100/187/48 103/179/48
f 103/179/26 100/187/26 101/188/26 102/181/26
f 107/189/49 104/190/49 115/91/49 111/95/49
f 150/191/50 107/189/50 111/95/50 153/94/50
f 152/192/51 92/193/51 112/72/51 154/92/51
f 95/194/52 102/195/52 114/64/52 108/73/52
f 104/190/49 98/196/49 113/68/49 115/91/49
f 92/193/52 95/194/52 108/73/52 112/72/52
f 98/196/53 97/197/53 109/69/53 113/68/53
f 102/195/52 101/198/52 110/65/52 114/64/52
f 97/197/51 152/199/51 154/200/51 109/69/51
f 101/198/50 150/201/50 153/202/50 110/65/50
f 96/185/24 151/203/24 152/204/24 97/186/24
f 37/76/47 127/205/47 151/203/47 96/185/47
f 100/187/21 149/206/21 150/207/21 101/188/21
f 34/78/46 126/208/46 149/206/46 100/187/46
f 89/164/21 147/209/21 148/210/21 88/16/21
f 69/146/44 144/211/44 147/212/44 89/163/44
f 78/166/24 145/213/24 146/214/24 79/14/24
f 70/147/43 143/215/43 145/216/43 78/165/43
f 1/145/40 116/217/40 144/211/40 69/146/40
f 4/3/39 117/2/39 143/215/39 70/147/39
f 59/121/54 136/218/54 142/219/54 65/126/54
f 54/113/55 134/220/55 141/221/55 63/131/55
f 56/110/56 135/222/56 140/223/56 64/129/56
f 66/123/57 137/224/57 139/125/57 60/124/57
f 65/126/58 142/219/58 139/128/58 61/127/58
f 159/120/59 162/225/59 136/218/59 59/121/59
f 57/118/60 138/226/60 137/224/60 66/123/60
f 50/105/21 132/227/21 134/220/21 54/113/21
f 157/117/61 164/228/61 138/226/61 57/118/61
f 44/102/24 131/229/24 133/230/24 52/103/24
f 52/103/24 133/230/24 135/222/24 56/110/24
f 110/65/23 153/202/23 128/231/23 42/66/23
f 109/69/22 154/200/22 129/82/22 45/70/22
f 41/104/21 130/232/21 132/227/21 50/105/21
f 42/66/20 128/231/20 130/233/20 41/67/20
f 47/74/20 131/234/20 129/93/20 46/75/20
f 29/36/19 125/235/19 127/205/19 37/76/19
f 18/58/16 122/236/16 124/237/16 26/59/16
f 21/35/15 123/238/15 125/235/15 29/36/15
f 26/59/14 124/237/14 126/208/14 34/78/14
f 5/17/11 118/239/11 122/240/11 18/46/11
f 8/6/10 119/241/10 123/242/10 21/7/10
f 10/138/1 9/137/1 121/243/1 120/244/1
f 1/145/1 10/138/1 120/244/1 116/217/1
f 79/14/6 146/214/6 119/241/6 8/6/6
f 88/16/3 148/210/3 118/239/3 5/17/3
f 9/137/1 3/141/1 117/143/1 121/243/1
f 63/131/62 141/221/62 163/245/62 158/246/62
f 158/246/63 163/245/63 164/228/63 157/117/63
f 64/129/64 140/223/64 161/247/64 160/248/64
f 160/248/65 161/247/65 162/225/65 159/120/65
f 62/130/66 64/129/66 160/248/66 155/249/66
f 155/249/67 160/248/67 159/120/67 156/107/67
f 140/132/68 63/131/68 158/246/68 161/250/68
f 161/250/69 158/246/69 157/117/69 162/116/69
f 141/133/70 62/130/70 155/249/70 163/251/70
f 163/251/71 155/249/71 156/107/71 164/106/71
