# Blender v3.0.0 OBJ File: 'Table.blend'
# www.blender.org
mtllib Table.mtl
o Plane
v -0.025000 0.000000 0.025000
v 0.025000 0.000000 0.025000
v -0.025000 0.000000 -0.025000
v 0.025000 0.000000 -0.025000
v -0.025000 0.388745 0.025000
v 0.025000 0.388745 0.025000
v -0.025000 0.388745 -0.025000
v 0.061451 0.388745 -0.061451
v -0.025000 0.000000 -0.475000
v 0.025000 0.000000 -0.475000
v -0.025000 0.000000 -0.525000
v 0.025000 0.000000 -0.525000
v -0.025000 0.388745 -0.475000
v 0.061451 0.388745 -0.438549
v -0.025000 0.388745 -0.525000
v 0.025000 0.388745 -0.525000
v 0.775000 0.000000 -0.475000
v 0.825000 0.000000 -0.475000
v 0.775000 0.000000 -0.525000
v 0.825000 0.000000 -0.525000
v 0.738549 0.388745 -0.438549
v 0.825000 0.388745 -0.475000
v 0.775000 0.388745 -0.525000
v 0.825000 0.388745 -0.525000
v 0.775000 0.000000 0.025000
v 0.825000 0.000000 0.025000
v 0.775000 0.000000 -0.025000
v 0.825000 0.000000 -0.025000
v 0.775000 0.388745 0.025000
v 0.825000 0.388745 0.025000
v 0.738549 0.388745 -0.061451
v 0.825000 0.388745 -0.025000
v -0.025000 0.454552 -0.025000
v -0.025000 0.454552 0.025000
v 0.025000 0.454552 0.025000
v 0.056715 0.454552 -0.056715
v -0.025000 0.454552 -0.525000
v -0.025000 0.454552 -0.475000
v 0.056715 0.454552 -0.443285
v 0.025000 0.454552 -0.525000
v 0.775000 0.454552 -0.525000
v 0.743285 0.454552 -0.443285
v 0.825000 0.454552 -0.475000
v 0.825000 0.454552 -0.525000
v 0.743285 0.454552 -0.056715
v 0.775000 0.454552 0.025000
v 0.825000 0.454552 0.025000
v 0.825000 0.454552 -0.025000
v 0.775000 0.388745 -0.475000
v 0.775000 0.388745 -0.025000
v 0.025000 0.388745 -0.025000
v 0.025000 0.388745 -0.475000
v 0.775000 0.454552 -0.025000
v 0.775000 0.454552 -0.475000
v 0.025000 0.454552 -0.025000
v 0.025000 0.454552 -0.475000
v 0.825000 0.421648 -0.475000
v 0.825000 0.421648 -0.025000
v 0.825000 0.454552 -0.250000
v 0.825000 0.388745 -0.250000
v 0.825000 0.421648 -0.250000
v 0.775000 0.421648 0.025000
v 0.025000 0.421648 0.025000
v 0.400000 0.388745 0.025000
v 0.400000 0.454552 0.025000
v 0.400000 0.421648 0.025000
v -0.025000 0.421648 -0.475000
v -0.025000 0.421648 -0.025000
v -0.025000 0.388745 -0.250000
v -0.025000 0.454552 -0.250000
v -0.025000 0.421648 -0.250000
v 0.775000 0.421648 -0.525000
v 0.025000 0.421648 -0.525000
v 0.400000 0.388745 -0.525000
v 0.400000 0.454552 -0.525000
v 0.400000 0.421648 -0.525000
v 0.825000 0.421648 0.025000
v -0.025000 0.421648 0.025000
v -0.025000 0.421648 -0.525000
v 0.825000 0.421648 -0.525000
v -0.025000 0.454552 0.065000
v 0.025000 0.454552 0.065000
v 0.775000 0.454552 0.065000
v 0.825000 0.454552 0.065000
v 0.775000 0.421648 0.065000
v 0.825000 0.421648 0.065000
v -0.025000 0.421648 0.065000
v 0.025000 0.421648 0.065000
v 0.400000 0.454552 0.065000
v 0.400000 0.421648 0.065000
v -0.065000 0.454552 -0.025000
v -0.065000 0.454552 0.025000
v -0.065000 0.454552 -0.525000
v -0.065000 0.454552 -0.475000
v -0.065000 0.421648 -0.475000
v -0.065000 0.421648 0.025000
v -0.065000 0.454552 -0.250000
v -0.065000 0.421648 -0.025000
v -0.065000 0.421648 -0.250000
v -0.065000 0.421648 -0.525000
v -0.065000 0.421648 0.065000
v -0.065000 0.454552 0.065000
v 0.025000 0.454552 -0.565000
v -0.025000 0.454552 -0.565000
v 0.825000 0.454552 -0.565000
v 0.775000 0.454552 -0.565000
v 0.825000 0.421648 -0.565000
v 0.775000 0.421648 -0.565000
v 0.025000 0.421648 -0.565000
v 0.400000 0.454552 -0.565000
v 0.400000 0.421648 -0.565000
v -0.025000 0.421648 -0.565000
v -0.065000 0.454552 -0.565000
v -0.065000 0.421648 -0.565000
v 0.865000 0.454552 -0.475000
v 0.865000 0.454552 -0.525000
v 0.865000 0.454552 0.025000
v 0.865000 0.454552 -0.025000
v 0.865000 0.421648 -0.525000
v 0.865000 0.421648 0.025000
v 0.865000 0.421648 -0.025000
v 0.865000 0.454552 -0.250000
v 0.865000 0.421648 -0.475000
v 0.865000 0.421648 -0.250000
v 0.865000 0.421648 0.065000
v 0.865000 0.454552 0.065000
v 0.865000 0.421648 -0.565000
v 0.865000 0.454552 -0.565000
vt 0.311927 0.861523
vt 0.311927 0.894023
vt 0.279427 0.894023
vt 0.279427 0.861523
vt 0.439857 0.549199
vt 0.407357 0.549199
vt 0.407357 0.506424
vt 0.439857 0.506424
vt 0.439857 0.527812
vt 0.214113 0.693856
vt 0.246614 0.693856
vt 0.246614 0.946544
vt 0.214113 0.946544
vt 0.213182 0.693856
vt 0.245682 0.693856
vt 0.245682 0.946544
vt 0.213182 0.946544
vt 0.214269 0.693856
vt 0.246770 0.693856
vt 0.246770 0.946544
vt 0.214269 0.946544
vt 0.529828 0.911007
vt 0.529828 0.943507
vt 0.277140 0.943507
vt 0.277140 0.911007
vt 0.278652 0.861582
vt 0.311152 0.861582
vt 0.311152 0.894082
vt 0.278652 0.894082
vt 0.352484 0.278752
vt 0.352484 0.311252
vt 0.326483 0.311252
vt 0.326483 0.278752
vt 0.213113 0.695172
vt 0.245613 0.695172
vt 0.245613 0.947860
vt 0.213113 0.947860
vt 0.213650 0.693856
vt 0.246151 0.693856
vt 0.246151 0.946544
vt 0.213650 0.946544
vt 0.213377 0.694348
vt 0.245877 0.694348
vt 0.245877 0.947036
vt 0.213377 0.947036
vt 0.246148 0.946544
vt 0.213648 0.946544
vt 0.213648 0.693856
vt 0.246148 0.693856
vt 0.311376 0.893781
vt 0.278875 0.893781
vt 0.278875 0.861281
vt 0.311376 0.861281
vt 0.801779 0.205246
vt 0.827779 0.205246
vt 0.827779 0.351498
vt 0.801779 0.351498
vt 0.245455 0.945919
vt 0.212955 0.945919
vt 0.212955 0.693231
vt 0.245455 0.693231
vt 0.245609 0.946544
vt 0.213109 0.946544
vt 0.213109 0.693856
vt 0.245610 0.693856
vt 0.245981 0.947289
vt 0.213481 0.947289
vt 0.213481 0.694601
vt 0.245981 0.694601
vt 0.245884 0.946544
vt 0.213383 0.946544
vt 0.213383 0.693856
vt 0.245884 0.693856
vt 0.311678 0.894082
vt 0.279178 0.894082
vt 0.279178 0.861582
vt 0.311678 0.861582
vt 0.279095 0.636257
vt 0.305095 0.636257
vt 0.305095 0.662257
vt 0.528736 0.910741
vt 0.528736 0.943241
vt 0.276048 0.943241
vt 0.276048 0.910741
vt 0.528736 0.910391
vt 0.528736 0.942891
vt 0.276048 0.942891
vt 0.276048 0.910391
vt 0.245392 0.945534
vt 0.212891 0.945534
vt 0.212891 0.692846
vt 0.245392 0.692846
vt 0.528736 0.910476
vt 0.528736 0.942977
vt 0.276048 0.942977
vt 0.276048 0.910476
vt 0.641017 0.026493
vt 0.641017 0.058993
vt 0.608516 0.058993
vt 0.609135 0.546501
vt 0.641636 0.546501
vt 0.641636 0.579001
vt 0.246594 0.603756
vt 0.279095 0.603756
vt 0.279095 0.278752
vt 0.279095 0.311252
vt 0.246595 0.311252
vt 0.609454 0.749778
vt 0.576953 0.749778
vt 0.576953 0.728390
vt 0.576953 0.707003
vt 0.609454 0.707003
vt 0.696974 0.707003
vt 0.696974 0.739503
vt 0.675587 0.739503
vt 0.654199 0.739503
vt 0.654199 0.707003
vt 0.641017 0.579001
vt 0.641017 0.546501
vt 0.667017 0.546501
vt 0.667017 0.579001
vt 0.875167 0.026493
vt 0.875167 0.058993
vt 0.849167 0.058993
vt 0.849167 0.026493
vt 0.501642 0.058993
vt 0.527643 0.058993
vt 0.527643 0.302747
vt 0.501642 0.302747
vt 0.667017 0.605002
vt 0.714405 0.026493
vt 0.714405 0.058993
vt 0.688405 0.058993
vt 0.688405 0.026493
vt 0.694515 0.619482
vt 0.727015 0.619482
vt 0.727015 0.662257
vt 0.694515 0.662257
vt 0.694515 0.640870
vt 0.610439 0.739503
vt 0.610439 0.707003
vt 0.653214 0.707003
vt 0.653214 0.739503
vt 0.631826 0.739503
vt 0.661029 0.619482
vt 0.693530 0.619482
vt 0.693530 0.662257
vt 0.661029 0.662257
vt 0.661029 0.640870
vt 0.730460 0.749778
vt 0.697959 0.749778
vt 0.697959 0.728390
vt 0.697959 0.707003
vt 0.730460 0.707003
vt 0.407357 0.550184
vt 0.439857 0.550184
vt 0.439857 0.571572
vt 0.439857 0.592960
vt 0.407357 0.592960
vt 0.352484 0.457504
vt 0.373871 0.457504
vt 0.373871 0.603756
vt 0.352484 0.603756
vt 0.406372 0.603756
vt 0.373871 0.311252
vt 0.406372 0.311252
vt 0.813039 0.703488
vt 0.813039 0.410984
vt 0.855814 0.410984
vt 0.855814 0.703488
vt 0.279095 0.457504
vt 0.768293 0.058993
vt 0.768293 0.546501
vt 0.735793 0.546501
vt 0.735793 0.302747
vt 0.735793 0.058993
vt 0.875167 0.351498
vt 0.849167 0.351498
vt 0.849167 0.205246
vt 0.875167 0.205246
vt 0.769278 0.898491
vt 0.769278 0.410984
vt 0.812054 0.410984
vt 0.812054 0.898491
vt 0.856799 0.703488
vt 0.856799 0.410984
vt 0.899574 0.410984
vt 0.899574 0.703488
vt 0.896555 0.205246
vt 0.896555 0.351498
vt 0.929056 0.058993
vt 0.929056 0.351498
vt 0.896555 0.058993
vt 0.246862 0.311675
vt 0.279363 0.311675
vt 0.279363 0.457928
vt 0.279363 0.604180
vt 0.246862 0.604180
vt 0.608517 0.546501
vt 0.641017 0.302747
vt 0.447754 0.058994
vt 0.480255 0.058993
vt 0.480255 0.302747
vt 0.480255 0.546501
vt 0.447754 0.546501
vt 0.575031 0.302747
vt 0.549030 0.302747
vt 0.549030 0.058993
vt 0.575031 0.058993
vt 0.246594 0.663242
vt 0.734102 0.663242
vt 0.734102 0.706018
vt 0.246594 0.706018
vt 0.609135 0.058993
vt 0.641636 0.058993
vt 0.641636 0.302747
vt 0.245610 0.252751
vt 0.245610 0.692871
vt 0.000492 0.692871
vt 0.000492 0.252751
vt 0.954719 0.269302
vt 0.954719 0.024186
vt 0.978413 0.000492
vt 0.978413 0.292996
vt 0.900559 0.874799
vt 0.900559 0.434677
vt 0.924253 0.410984
vt 0.924253 0.898492
vt 0.930041 0.269304
vt 0.930040 0.024186
vt 0.953734 0.000492
vt 0.953734 0.292997
vt 0.925238 0.874799
vt 0.925238 0.434677
vt 0.948932 0.410984
vt 0.948932 0.898492
vt 0.000492 0.000492
vt 0.000493 0.251766
vt 0.446769 0.251766
vt 0.446769 0.000492
vt 0.533753 0.978892
vt 0.554368 0.999508
vt 0.554368 0.707003
vt 0.533753 0.727618
vt 0.949917 0.877867
vt 0.970533 0.898483
vt 0.970533 0.410984
vt 0.949918 0.431599
vt 0.555353 0.978891
vt 0.575968 0.999507
vt 0.575968 0.707003
vt 0.555353 0.727618
vt 0.971518 0.877866
vt 0.992134 0.898483
vt 0.992134 0.410984
vt 0.971519 0.431599
vt 0.688405 0.579001
vt 0.688405 0.605002
vt 0.305095 0.457504
vt 0.305095 0.603756
vt 0.714405 0.546501
vt 0.714405 0.579001
vt 0.688405 0.546501
vt 0.714405 0.302747
vt 0.801779 0.058993
vt 0.827779 0.058993
vt 0.875167 0.383998
vt 0.849167 0.383998
vt 0.501642 0.579001
vt 0.501642 0.546501
vt 0.527643 0.546501
vt 0.527643 0.579001
vt 0.735793 0.579001
vt 0.373871 0.278752
vt 0.896555 0.383998
vt 0.735793 0.026493
vt 0.480255 0.026493
vt 0.501642 0.026493
vt 0.896555 0.026493
vt 0.373871 0.636257
vt 0.352484 0.636257
vt 0.480255 0.579001
vt 0.667017 0.058993
vt 0.667017 0.026493
vt 0.688405 0.302747
vt 0.667017 0.302747
vt 0.305096 0.278752
vt 0.305096 0.311252
vt 0.827779 0.026493
vt 0.827779 0.383998
vt 0.849167 0.409999
vt 0.827779 0.409999
vt 0.688405 0.000492
vt 0.667017 0.000492
vt 0.827779 0.000492
vt 0.849167 0.000492
vt 0.801779 0.383998
vt 0.801779 0.026493
vt 0.549030 0.546501
vt 0.549030 0.579001
vt 0.527643 0.026493
vt 0.549030 0.026493
vt 0.527643 0.000492
vt 0.549030 0.000492
vt 0.575031 0.546501
vt 0.575031 0.026493
vt 0.575031 0.579001
vt 0.326483 0.636257
vt 0.326483 0.662257
vt 0.326483 0.603756
vt 0.326483 0.457504
vt 0.305096 0.252751
vt 0.326483 0.252751
vt 0.549030 0.605002
vt 0.527643 0.605002
vt 0.279363 0.636680
vt 0.279363 0.279175
vt 0.641636 0.026493
vn 0.0000 -1.0000 0.0000
vn 0.0000 0.0000 1.0000
vn -1.0000 0.0000 0.0000
vn 0.0000 0.0000 -1.0000
vn 1.0000 0.0000 0.0000
vn 0.0000 1.0000 0.0000
g Plane_Plane_test-uv
usemtl test-uv
s off
f 1/1/1 3/2/1 4/3/1 2/4/1
f 13/5/2 52/6/2 56/7/2 38/8/2 67/9/2
f 3/10/3 1/11/3 5/12/3 7/13/3
f 4/14/4 3/15/4 7/16/4 51/17/4
f 1/18/2 2/19/2 6/20/2 5/21/2
f 2/22/5 4/23/5 51/24/5 6/25/5
f 9/26/1 11/27/1 12/28/1 10/29/1
f 77/30/1 58/31/1 121/32/1 120/33/1
f 11/34/3 9/35/3 13/36/3 15/37/3
f 12/38/4 11/39/4 15/40/4 16/41/4
f 9/42/2 10/43/2 52/44/2 13/45/2
f 10/46/5 12/47/5 16/48/5 52/49/5
f 17/50/1 19/51/1 20/52/1 18/53/1
f 70/54/6 97/55/6 91/56/6 33/57/6
f 19/58/3 17/59/3 49/60/3 23/61/3
f 20/62/4 19/63/4 23/64/4 24/65/4
f 17/66/2 18/67/2 22/68/2 49/69/2
f 18/70/5 20/71/5 24/72/5 22/73/5
f 25/74/1 27/75/1 28/76/1 26/77/1
f 44/78/6 116/79/6 128/80/6
f 27/81/3 25/82/3 29/83/3 50/84/3
f 28/85/4 27/86/4 50/87/4 32/88/4
f 25/89/2 26/90/2 30/91/2 29/92/2
f 26/93/5 28/94/5 32/95/5 30/96/5
f 34/97/6 35/98/6 55/99/6
f 56/100/6 40/101/6 37/102/6
f 54/103/6 43/104/6 44/78/6
f 47/105/6 48/106/6 53/107/6
f 50/108/3 29/109/3 62/110/3 46/111/3 53/112/3
f 52/113/5 16/114/5 73/115/5 40/116/5 56/117/5
f 47/118/6 46/119/6 83/120/6 84/121/6
f 79/122/1 67/123/1 95/124/1 100/125/1
f 73/126/1 109/127/1 111/128/1 76/129/1
f 47/118/6 84/121/6 126/130/6
f 78/131/1 63/132/1 88/133/1 87/134/1
f 23/135/3 49/136/3 54/137/3 41/138/3 72/139/3
f 32/140/4 50/141/4 53/142/4 48/143/4 58/144/4
f 6/145/5 51/146/5 55/147/5 35/148/5 63/149/5
f 49/150/2 22/151/2 57/152/2 43/153/2 54/154/2
f 51/155/4 7/156/4 68/157/4 33/158/4 55/159/4
f 61/160/5 60/161/5 22/162/5 57/163/5
f 49/164/1 22/162/1 60/161/1 32/165/1 50/166/1
f 54/167/5 53/168/5 50/169/5 49/170/5
f 53/107/6 48/106/6 59/171/6 43/104/6 54/103/6
f 51/172/1 50/173/1 29/174/1 64/175/1 6/176/1
f 68/177/1 98/178/1 99/179/1 71/180/1
f 53/181/2 55/182/2 51/183/2 50/184/2
f 56/185/5 55/186/5 51/187/5 52/188/5
f 71/180/3 69/189/3 7/190/3 68/177/3
f 52/191/1 51/192/1 7/190/1 69/189/1 13/193/1
f 56/194/6 38/195/6 70/196/6 33/197/6 55/198/6
f 46/119/6 53/199/6 55/99/6 35/98/6 65/200/6
f 52/201/1 16/202/1 74/203/1 23/204/1 49/205/1
f 75/206/6 110/207/6 103/208/6 40/209/6
f 49/210/4 52/211/4 56/212/4 54/213/4
f 54/214/6 41/215/6 75/216/6 40/101/6 56/100/6
f 14/217/1 21/218/1 31/219/1 8/220/1
f 31/221/1 21/222/1 49/223/1 50/224/1
f 8/225/1 31/226/1 50/227/1 51/228/1
f 14/229/1 8/230/1 51/231/1 52/232/1
f 21/233/1 14/234/1 52/235/1 49/236/1
f 45/237/6 42/238/6 39/239/6 36/240/6
f 45/241/6 53/242/6 54/243/6 42/244/6
f 36/245/6 55/246/6 53/247/6 45/248/6
f 39/249/6 56/250/6 55/251/6 36/252/6
f 42/253/6 54/254/6 56/255/6 39/256/6
f 58/31/5 32/165/5 60/161/5 61/160/5
f 84/121/2 86/257/2 125/258/2 126/130/2
f 59/171/6 122/259/6 115/260/6 43/104/6
f 62/261/1 77/262/1 86/257/1 85/263/1
f 29/174/2 62/261/2 66/264/2 64/175/2
f 64/175/2 66/264/2 63/132/2 6/176/2
f 67/123/3 13/193/3 69/189/3 71/180/3
f 38/265/6 94/266/6 97/55/6 70/54/6
f 68/177/1 78/267/1 96/268/1 98/178/1
f 80/269/1 72/270/1 108/271/1 107/272/1
f 16/202/4 73/126/4 76/129/4 74/203/4
f 74/203/4 76/129/4 72/270/4 23/204/4
f 29/174/2 30/273/2 77/262/2 62/261/2
f 30/274/5 32/165/5 58/31/5 77/30/5
f 7/190/3 5/275/3 78/267/3 68/177/3
f 5/276/2 6/176/2 63/132/2 78/131/2
f 16/202/4 15/277/4 79/278/4 73/126/4
f 15/279/3 13/193/3 67/123/3 79/122/3
f 22/162/5 24/280/5 80/281/5 57/163/5
f 24/282/4 23/204/4 72/270/4 80/269/4
f 85/263/2 86/257/2 84/121/2 83/120/2
f 87/134/2 88/133/2 82/283/2 81/284/2
f 90/285/2 89/286/2 82/283/2 88/133/2
f 85/263/2 83/120/2 89/286/2 90/285/2
f 62/261/1 85/263/1 90/285/1 66/264/1
f 65/200/6 89/286/6 83/120/6 46/119/6
f 35/98/6 82/283/6 89/286/6 65/200/6
f 66/264/1 90/285/1 88/133/1 63/132/1
f 35/98/6 34/97/6 81/284/6 82/283/6
f 48/106/6 47/105/6 117/287/6 118/288/6
f 100/125/3 95/124/3 94/266/3 93/289/3
f 98/178/3 96/268/3 92/290/3 91/56/3
f 92/290/3 96/268/3 101/291/3 102/292/3
f 94/266/3 95/124/3 99/179/3 97/55/3
f 97/55/3 99/179/3 98/178/3 91/56/3
f 78/131/1 87/134/1 101/293/1
f 87/134/2 81/284/2 102/294/2 101/293/2
f 100/125/3 93/289/3 113/295/3 114/296/3
f 34/297/6 33/57/6 91/56/6 92/290/6
f 34/297/6 92/290/6 102/292/6
f 38/265/6 37/298/6 93/289/6 94/266/6
f 71/180/1 99/179/1 95/124/1 67/123/1
f 107/272/4 108/271/4 106/299/4 105/300/4
f 109/127/4 112/301/4 104/302/4 103/208/4
f 111/128/4 110/207/4 106/299/4 108/271/4
f 109/127/4 103/208/4 110/207/4 111/128/4
f 104/302/4 112/301/4 114/303/4 113/304/4
f 41/305/6 106/299/6 110/207/6 75/206/6
f 76/129/1 111/128/1 108/271/1 72/270/1
f 37/306/6 40/209/6 103/208/6 104/302/6
f 79/122/1 100/125/1 114/296/1
f 41/305/6 44/307/6 105/300/6 106/299/6
f 37/306/6 104/302/6 113/304/6
f 73/126/1 79/278/1 112/301/1 109/127/1
f 116/79/5 119/308/5 127/309/5 128/80/5
f 123/310/5 119/308/5 116/79/5 115/260/5
f 120/33/5 121/32/5 118/288/5 117/287/5
f 118/288/5 121/32/5 124/311/5 122/259/5
f 122/259/5 124/311/5 123/310/5 115/260/5
f 120/33/5 117/287/5 126/312/5 125/313/5
f 77/30/1 120/33/1 125/313/1
f 57/163/1 80/281/1 119/308/1 123/310/1
f 48/106/6 118/288/6 122/259/6 59/171/6
f 44/78/6 43/104/6 115/260/6 116/79/6
f 107/272/4 105/300/4 128/314/4 127/315/4
f 80/269/1 107/272/1 127/315/1
f 61/160/1 124/311/1 121/32/1 58/31/1
f 57/163/1 123/310/1 124/311/1 61/160/1
f 96/268/1 78/267/1 101/291/1
f 81/284/6 34/97/6 102/294/6
f 33/197/6 34/316/6 55/198/6
f 38/195/6 56/194/6 37/317/6
f 93/289/6 37/298/6 113/295/6
f 112/301/1 79/278/1 114/303/1
f 119/308/1 80/281/1 127/309/1
f 105/300/6 44/307/6 128/314/6
f 41/215/6 54/214/6 44/318/6
f 46/119/6 47/118/6 53/199/6
f 117/287/6 47/105/6 126/312/6
f 86/257/1 77/262/1 125/258/1
