# Blender v2.91.0 OBJ File: 'AssPaper.blend'
# www.blender.org
mtllib AssPaper.mtl
o Circle
v 0.000000 0.018544 -0.260284
v -0.050779 0.018544 -0.255282
v -0.099606 0.018544 -0.240471
v -0.144606 0.018544 -0.216418
v -0.184048 0.018544 -0.184048
v -0.216418 0.018544 -0.144606
v -0.240471 0.018544 -0.099606
v -0.255282 0.018544 -0.050779
v -0.260284 0.018544 -0.000000
v -0.255282 0.018544 0.050779
v -0.240471 0.018544 0.099606
v -0.216418 0.018544 0.144606
v -0.184048 0.018544 0.184048
v -0.144606 0.018544 0.216418
v -0.099606 0.018544 0.240471
v -0.050779 0.018544 0.255282
v 0.000000 0.018544 0.260284
v 0.050779 0.018544 0.255282
v 0.099606 0.018544 0.240471
v 0.144606 0.018544 0.216418
v 0.184048 0.018544 0.184048
v 0.216418 0.018544 0.144606
v 0.240471 0.018544 0.099606
v 0.255282 0.018544 0.050779
v 0.260284 0.018544 -0.000000
v 0.255282 0.018544 -0.050779
v 0.240471 0.018544 -0.099606
v 0.216418 0.018544 -0.144606
v 0.184048 0.018544 -0.184049
v 0.144606 0.018544 -0.216418
v 0.099606 0.018544 -0.240471
v 0.050778 0.018544 -0.255282
v -0.000000 0.018571 -0.130100
v -0.025381 0.018571 -0.127601
v -0.049787 0.018571 -0.120197
v -0.072280 0.018571 -0.108175
v -0.091995 0.018571 -0.091995
v -0.108175 0.018571 -0.072280
v -0.120197 0.018571 -0.049787
v -0.127601 0.018571 -0.025381
v -0.130100 0.018571 -0.000000
v -0.127601 0.018571 0.025381
v -0.120197 0.018571 0.049787
v -0.108175 0.018571 0.072280
v -0.091995 0.018571 0.091995
v -0.072280 0.018571 0.108174
v -0.049787 0.018571 0.120197
v -0.025381 0.018571 0.127600
v 0.000000 0.018571 0.130100
v 0.025381 0.018571 0.127600
v 0.049787 0.018571 0.120197
v 0.072280 0.018571 0.108174
v 0.091995 0.018571 0.091995
v 0.108175 0.018571 0.072280
v 0.120197 0.018571 0.049787
v 0.127601 0.018571 0.025381
v 0.130100 0.018571 -0.000000
v 0.127600 0.018571 -0.025381
v 0.120197 0.018571 -0.049787
v 0.108174 0.018571 -0.072280
v 0.091995 0.018571 -0.091995
v 0.072280 0.018571 -0.108175
v 0.049787 0.018571 -0.120197
v 0.025381 0.018571 -0.127601
v 0.000000 0.522028 -0.260284
v -0.050779 0.522028 -0.255282
v -0.099606 0.522028 -0.240471
v -0.144606 0.522028 -0.216418
v -0.184048 0.522028 -0.184048
v -0.216418 0.522028 -0.144606
v -0.240471 0.522028 -0.099606
v -0.255282 0.522028 -0.050779
v -0.260284 0.522028 -0.000000
v -0.255282 0.522028 0.050779
v -0.240471 0.522028 0.099606
v -0.216418 0.522028 0.144606
v -0.184048 0.522028 0.184048
v -0.144606 0.522028 0.216418
v -0.099606 0.522028 0.240471
v -0.050779 0.522028 0.255282
v 0.000000 0.522028 0.260284
v 0.050779 0.522028 0.255282
v 0.099606 0.522028 0.240471
v 0.144606 0.522028 0.216418
v 0.184048 0.522028 0.184048
v 0.216418 0.522028 0.144606
v 0.240471 0.522028 0.099606
v 0.255282 0.522028 0.050779
v 0.260284 0.522028 -0.000000
v 0.255282 0.522028 -0.050779
v 0.240471 0.522028 -0.099606
v 0.216418 0.522028 -0.144606
v 0.184048 0.522028 -0.184049
v 0.144606 0.522028 -0.216418
v 0.099606 0.522028 -0.240471
v 0.050778 0.522028 -0.255282
v -0.000000 0.519650 -0.130100
v -0.025381 0.519650 -0.127601
v -0.049787 0.519650 -0.120197
v -0.072280 0.519650 -0.108175
v -0.091995 0.519650 -0.091995
v -0.108175 0.519650 -0.072280
v -0.120197 0.519650 -0.049787
v -0.127601 0.519650 -0.025381
v -0.130100 0.519650 -0.000000
v -0.127601 0.519650 0.025381
v -0.120197 0.519650 0.049787
v -0.108175 0.519650 0.072280
v -0.091995 0.519650 0.091995
v -0.072280 0.519650 0.108174
v -0.049787 0.519650 0.120197
v -0.025381 0.519650 0.127600
v 0.000000 0.519650 0.130100
v 0.025381 0.519650 0.127600
v 0.049787 0.519650 0.120197
v 0.072280 0.519650 0.108174
v 0.091995 0.519650 0.091995
v 0.108175 0.519650 0.072280
v 0.120197 0.519650 0.049787
v 0.127601 0.519650 0.025381
v 0.130100 0.519650 -0.000000
v 0.127600 0.519650 -0.025381
v 0.120197 0.519650 -0.049787
v 0.108174 0.519650 -0.072280
v 0.091995 0.519650 -0.091995
v 0.072280 0.519650 -0.108175
v 0.049787 0.519650 -0.120197
v 0.025381 0.519650 -0.127601
v 0.307802 0.023520 -0.223104
v 0.307802 0.527004 -0.223104
v 0.101350 0.018544 -0.254957
v 0.101350 0.522028 -0.254957
v 0.309546 0.023520 -0.237591
v 0.309546 0.527004 -0.237591
vt 0.511912 0.868380
vt 0.511912 0.834640
vt 0.597581 0.843077
vt 0.597581 0.859942
vt 0.176568 0.853501
vt 0.176568 0.887241
vt 0.090899 0.878803
vt 0.090899 0.861939
vt 0.088902 0.924974
vt 0.088902 0.958714
vt 0.003233 0.950276
vt 0.003233 0.933412
vt 0.264248 0.924974
vt 0.264248 0.958714
vt 0.178579 0.950276
vt 0.178579 0.933412
vt 0.351942 0.853501
vt 0.351942 0.887241
vt 0.266273 0.878803
vt 0.266273 0.861939
vt 0.685261 0.870376
vt 0.685261 0.904116
vt 0.599592 0.895678
vt 0.599592 0.878814
vt 0.509901 0.906113
vt 0.509901 0.939853
vt 0.424232 0.931415
vt 0.424232 0.914550
vt 0.597566 0.906113
vt 0.597566 0.939853
vt 0.511898 0.931415
vt 0.511898 0.914550
vt 0.597566 0.870376
vt 0.597566 0.904116
vt 0.511898 0.895678
vt 0.511898 0.878814
vt 0.176568 0.960710
vt 0.176568 0.994450
vt 0.090899 0.986013
vt 0.090899 0.969148
vt 0.772941 0.834639
vt 0.772941 0.868379
vt 0.687272 0.859942
vt 0.687272 0.843077
vt 0.264248 0.853501
vt 0.264248 0.887241
vt 0.178579 0.878803
vt 0.178579 0.861939
vt 0.509901 0.870376
vt 0.509901 0.904116
vt 0.424232 0.895678
vt 0.424232 0.878814
vt 0.351942 0.924974
vt 0.351942 0.958714
vt 0.266273 0.950276
vt 0.266273 0.933412
vt 0.509901 0.834640
vt 0.509901 0.868380
vt 0.424232 0.859942
vt 0.424232 0.843077
vt 0.351942 0.817765
vt 0.351942 0.851504
vt 0.266273 0.843067
vt 0.266273 0.826202
vt 0.264247 0.960711
vt 0.264247 0.994450
vt 0.178579 0.986013
vt 0.178579 0.969148
vt 0.176568 0.889237
vt 0.176568 0.922977
vt 0.090899 0.914540
vt 0.090899 0.897675
vt 0.772941 0.906112
vt 0.772941 0.939852
vt 0.687272 0.931415
vt 0.687272 0.914550
vt 0.264248 0.889237
vt 0.264248 0.922977
vt 0.178579 0.914540
vt 0.178579 0.897675
vt 0.509901 0.941849
vt 0.509901 0.975589
vt 0.424232 0.967152
vt 0.424232 0.950287
vt 0.685261 0.941849
vt 0.685261 0.975589
vt 0.599592 0.967151
vt 0.599592 0.950287
vt 0.088902 0.889237
vt 0.088902 0.922977
vt 0.003233 0.914540
vt 0.003233 0.897675
vt 0.090899 0.958714
vt 0.090899 0.924974
vt 0.176568 0.933412
vt 0.176568 0.950276
vt 0.088902 0.960710
vt 0.088902 0.994450
vt 0.003233 0.986013
vt 0.003233 0.969148
vt 0.796177 0.670850
vt 0.796177 0.704590
vt 0.710509 0.696152
vt 0.710509 0.679288
vt 0.597566 0.941849
vt 0.597566 0.975589
vt 0.511898 0.967151
vt 0.511898 0.950287
vt 0.685261 0.834640
vt 0.685261 0.868379
vt 0.599592 0.859942
vt 0.599592 0.843077
vt 0.772941 0.941849
vt 0.772941 0.975589
vt 0.687272 0.967151
vt 0.687272 0.950287
vt 0.772941 0.870376
vt 0.772941 0.904116
vt 0.687272 0.895678
vt 0.687272 0.878814
vt 0.351942 0.889238
vt 0.351942 0.922977
vt 0.266273 0.914540
vt 0.266273 0.897675
vt 0.685261 0.906113
vt 0.685261 0.939853
vt 0.599592 0.931415
vt 0.599592 0.914550
vt 0.249807 0.658845
vt 0.164123 0.650407
vt 0.164123 0.633542
vt 0.249807 0.625105
vt 0.509915 0.796906
vt 0.424232 0.788469
vt 0.424232 0.771604
vt 0.509915 0.763167
vt 0.704805 0.704586
vt 0.619122 0.696149
vt 0.619122 0.679284
vt 0.704805 0.670847
vt 0.509915 0.832643
vt 0.424232 0.824205
vt 0.424232 0.807341
vt 0.509915 0.798903
vt 0.685275 0.761170
vt 0.599592 0.752732
vt 0.599592 0.735868
vt 0.685275 0.727430
vt 0.685275 0.796907
vt 0.599592 0.788469
vt 0.599592 0.771604
vt 0.685275 0.763167
vt 0.597595 0.796907
vt 0.511912 0.788469
vt 0.511912 0.771604
vt 0.597595 0.763167
vt 0.351942 0.780031
vt 0.266259 0.771594
vt 0.266259 0.754729
vt 0.351942 0.746292
vt 0.337487 0.623108
vt 0.251803 0.614670
vt 0.251803 0.597806
vt 0.337487 0.589368
vt 0.264262 0.815768
vt 0.178579 0.807330
vt 0.178579 0.790466
vt 0.264262 0.782028
vt 0.176582 0.780031
vt 0.090899 0.771594
vt 0.090899 0.754729
vt 0.176582 0.746292
vt 0.249807 0.587372
vt 0.164123 0.578934
vt 0.164123 0.562069
vt 0.249807 0.553632
vt 0.264262 0.851504
vt 0.178579 0.843067
vt 0.178579 0.826202
vt 0.264262 0.817765
vt 0.597595 0.832643
vt 0.511912 0.824205
vt 0.511912 0.807341
vt 0.597595 0.798903
vt 0.337487 0.587372
vt 0.251803 0.578934
vt 0.251803 0.562069
vt 0.337487 0.553632
vt 0.351942 0.815768
vt 0.266259 0.807330
vt 0.266259 0.790466
vt 0.351942 0.782028
vt 0.687272 0.798903
vt 0.772955 0.807341
vt 0.772955 0.824205
vt 0.687272 0.832643
vt 0.162127 0.587372
vt 0.076443 0.578934
vt 0.076443 0.562069
vt 0.162127 0.553632
vt 0.176582 0.851504
vt 0.090899 0.843067
vt 0.090899 0.826202
vt 0.176582 0.817764
vt 0.249807 0.623108
vt 0.164123 0.614670
vt 0.164123 0.597806
vt 0.249807 0.589368
vt 0.176582 0.815768
vt 0.090899 0.807330
vt 0.090899 0.790466
vt 0.176582 0.782028
vt 0.772955 0.761170
vt 0.687272 0.752732
vt 0.687272 0.735868
vt 0.772955 0.727430
vt 0.685275 0.832643
vt 0.599592 0.824205
vt 0.599592 0.807341
vt 0.685275 0.798903
vt 0.162127 0.658845
vt 0.076443 0.650407
vt 0.076443 0.633542
vt 0.162127 0.625105
vt 0.772955 0.796907
vt 0.687272 0.788469
vt 0.687272 0.771604
vt 0.772955 0.763167
vt 0.617125 0.704586
vt 0.531442 0.696149
vt 0.531442 0.679284
vt 0.617125 0.670847
vt 0.337487 0.658845
vt 0.251803 0.650407
vt 0.251803 0.633542
vt 0.337487 0.625105
vt 0.597595 0.761170
vt 0.511912 0.752732
vt 0.511912 0.735868
vt 0.597595 0.727430
vt 0.162127 0.623108
vt 0.076443 0.614670
vt 0.076443 0.597806
vt 0.162127 0.589368
vt 0.529445 0.704586
vt 0.443762 0.696149
vt 0.443762 0.679284
vt 0.529445 0.670847
vt 0.509915 0.761170
vt 0.424232 0.752732
vt 0.424232 0.735868
vt 0.509915 0.727430
vt 0.264262 0.780031
vt 0.178579 0.771594
vt 0.178579 0.754729
vt 0.264262 0.746292
vt 0.388496 0.668850
vt 0.388495 0.335922
vt 0.422235 0.335922
vt 0.422235 0.668850
vt 0.755569 0.725434
vt 0.424232 0.725434
vt 0.424232 0.708569
vt 0.755569 0.708569
vt 0.333926 0.480162
vt 0.000998 0.480162
vt 0.000998 0.446422
vt 0.333926 0.446422
vt 0.984790 0.000998
vt 0.984790 0.332335
vt 0.967925 0.332335
vt 0.967925 0.000998
vt 0.317022 0.333926
vt 0.317022 0.000998
vt 0.350762 0.000998
vt 0.350762 0.333926
vt 0.422235 0.706572
vt 0.090899 0.706572
vt 0.090899 0.689708
vt 0.422235 0.689708
vt 0.388496 0.333926
vt 0.388495 0.000998
vt 0.422235 0.000998
vt 0.422235 0.333926
vt 0.852761 0.667665
vt 0.852761 0.999002
vt 0.835897 0.999002
vt 0.835897 0.667665
vt 0.457972 0.000998
vt 0.457972 0.333926
vt 0.424232 0.333926
vt 0.424232 0.000998
vt 0.871622 0.667665
vt 0.871622 0.999002
vt 0.854758 0.999002
vt 0.854758 0.667665
vt 0.457972 0.335922
vt 0.457972 0.668850
vt 0.424232 0.668850
vt 0.424232 0.335922
vt 0.057582 0.884968
vt 0.057582 0.553632
vt 0.074447 0.553632
vt 0.074447 0.884968
vt 0.565181 0.000998
vt 0.565181 0.333926
vt 0.531442 0.333926
vt 0.531442 0.000998
vt 0.928206 0.000998
vt 0.928206 0.332335
vt 0.911342 0.332335
vt 0.911342 0.000998
vt 0.493708 0.000998
vt 0.493708 0.333926
vt 0.459969 0.333926
vt 0.459969 0.000998
vt 0.909345 0.334332
vt 0.909345 0.665668
vt 0.892480 0.665668
vt 0.892480 0.334332
vt 0.352759 0.333926
vt 0.352759 0.000998
vt 0.386499 0.000998
vt 0.386499 0.333926
vt 0.873619 0.332335
vt 0.873619 0.000998
vt 0.890484 0.000998
vt 0.890484 0.332335
vt 0.567178 0.333926
vt 0.567178 0.000998
vt 0.600918 0.000998
vt 0.600918 0.333926
vt 0.636654 0.335922
vt 0.636654 0.668850
vt 0.602915 0.668850
vt 0.602915 0.335922
vt 0.947067 0.334332
vt 0.947067 0.665668
vt 0.930203 0.665668
vt 0.930203 0.334332
vt 0.459969 0.668850
vt 0.459969 0.335922
vt 0.493708 0.335922
vt 0.493708 0.668850
vt 0.672391 0.335922
vt 0.672391 0.668850
vt 0.638651 0.668850
vt 0.638651 0.335922
vt 0.890484 0.667665
vt 0.890484 0.999002
vt 0.873619 0.999002
vt 0.873619 0.667665
vt 0.529445 0.000998
vt 0.529445 0.333926
vt 0.495705 0.333926
vt 0.495705 0.000998
vt 0.638651 0.333926
vt 0.638651 0.000998
vt 0.672391 0.000998
vt 0.672391 0.333926
vt 0.984790 0.334332
vt 0.984790 0.665668
vt 0.967925 0.665668
vt 0.967925 0.334332
vt 0.281286 0.333926
vt 0.281286 0.000998
vt 0.315026 0.000998
vt 0.315026 0.333926
vt 0.743864 0.000998
vt 0.743864 0.333926
vt 0.710124 0.333926
vt 0.710124 0.000998
vt 0.965929 0.000998
vt 0.965929 0.332335
vt 0.949064 0.332335
vt 0.949064 0.000998
vt 0.567178 0.668850
vt 0.567178 0.335922
vt 0.600918 0.335922
vt 0.600918 0.668850
vt 0.495705 0.668850
vt 0.495705 0.335922
vt 0.529445 0.335922
vt 0.529445 0.668850
vt 0.890484 0.334332
vt 0.890484 0.665668
vt 0.873619 0.665668
vt 0.873619 0.334332
vt 0.779600 0.335922
vt 0.779600 0.668850
vt 0.745861 0.668850
vt 0.745861 0.335922
vt 0.531442 0.668850
vt 0.531442 0.335922
vt 0.565181 0.335922
vt 0.565181 0.668850
vt 0.930203 0.332335
vt 0.930203 0.000998
vt 0.947067 0.000998
vt 0.947067 0.332335
vt 0.854758 0.332335
vt 0.854758 0.000998
vt 0.871622 0.000998
vt 0.871622 0.332335
vt 0.674388 0.668850
vt 0.674388 0.335922
vt 0.708128 0.335922
vt 0.708127 0.668850
vt 0.817035 0.667259
vt 0.817035 0.335922
vt 0.833900 0.335922
vt 0.833900 0.667259
vt 0.798174 0.667259
vt 0.798174 0.335922
vt 0.815039 0.335922
vt 0.815039 0.667259
vt 0.745861 0.333926
vt 0.745861 0.000998
vt 0.779601 0.000998
vt 0.779601 0.333926
vt 0.038721 0.884968
vt 0.038721 0.553632
vt 0.055586 0.553632
vt 0.055585 0.884968
vt 0.965929 0.334332
vt 0.965929 0.665668
vt 0.949064 0.665668
vt 0.949064 0.334332
vt 0.710124 0.668850
vt 0.710124 0.335922
vt 0.743864 0.335922
vt 0.743864 0.668850
vt 0.019860 0.884968
vt 0.019860 0.553632
vt 0.036724 0.553632
vt 0.036724 0.884968
vt 0.835897 0.332335
vt 0.835897 0.000998
vt 0.852761 0.000998
vt 0.852761 0.332335
vt 0.674388 0.333926
vt 0.674388 0.000998
vt 0.708128 0.000998
vt 0.708128 0.333926
vt 0.422235 0.687711
vt 0.090899 0.687711
vt 0.090899 0.670846
vt 0.422235 0.670847
vt 0.422235 0.744295
vt 0.090899 0.744295
vt 0.090899 0.727430
vt 0.422235 0.727430
vt 0.333926 0.372952
vt 0.000998 0.372952
vt 0.000998 0.339213
vt 0.333926 0.339213
vt 0.892480 0.999001
vt 0.892481 0.667665
vt 0.909345 0.667665
vt 0.909345 0.999001
vt 0.422235 0.725434
vt 0.090899 0.725433
vt 0.090899 0.708569
vt 0.422235 0.708569
vt 0.333926 0.515898
vt 0.000998 0.515898
vt 0.000998 0.482159
vt 0.333926 0.482159
vt 0.928206 0.334332
vt 0.928206 0.665668
vt 0.911342 0.665668
vt 0.911342 0.334332
vt 0.333926 0.551635
vt 0.000998 0.551635
vt 0.000998 0.517895
vt 0.333926 0.517895
vt 0.000998 0.884968
vt 0.000998 0.553632
vt 0.017863 0.553632
vt 0.017863 0.884968
vt 0.602915 0.333926
vt 0.602915 0.000998
vt 0.636654 0.000998
vt 0.636654 0.333926
vt 0.854758 0.665668
vt 0.854758 0.334332
vt 0.871622 0.334332
vt 0.871622 0.665668
vt 0.352759 0.668850
vt 0.352759 0.335922
vt 0.386499 0.335922
vt 0.386499 0.668850
vt 0.909345 0.000998
vt 0.909345 0.332335
vt 0.892480 0.332335
vt 0.892480 0.000998
vt 0.333926 0.444425
vt 0.000998 0.444425
vt 0.000998 0.410686
vt 0.333926 0.410686
vt 0.835897 0.665668
vt 0.835897 0.334332
vt 0.852761 0.334332
vt 0.852761 0.665668
vt 0.333926 0.408689
vt 0.000998 0.408689
vt 0.000998 0.374949
vt 0.333926 0.374949
vt 0.817035 0.332335
vt 0.817035 0.000998
vt 0.833900 0.000998
vt 0.833900 0.332335
vt 0.086085 0.660841
vt 0.086085 0.799028
vt 0.076443 0.799381
vt 0.076444 0.661195
vt 0.139145 0.000998
vt 0.139145 0.333926
vt 0.000998 0.337216
vt 0.000998 0.004289
vt 0.796177 0.335922
vt 0.796177 0.668854
vt 0.786529 0.668854
vt 0.786530 0.335922
vt 0.807816 0.669609
vt 0.807816 0.807796
vt 0.798174 0.807443
vt 0.798174 0.669256
vt 0.350762 0.335922
vt 0.350762 0.668848
vt 0.341114 0.668848
vt 0.341114 0.335922
vt 0.141142 0.000998
vt 0.279289 0.004289
vt 0.279289 0.337216
vt 0.141142 0.333926
vt 0.441765 0.704586
vt 0.432264 0.702910
vt 0.441765 0.670847
vt 0.353938 0.778641
vt 0.363525 0.746292
vt 0.363525 0.779733
vt 0.781597 0.333926
vt 0.781597 0.000998
vt 0.815039 0.000998
vt 0.815039 0.333926
vn 0.0001 -1.0000 -0.0002
vn -0.0002 -1.0000 0.0001
vn 0.0000 -1.0000 0.0002
vn 0.0001 -1.0000 0.0002
vn -0.0001 -1.0000 0.0002
vn 0.0000 -1.0000 -0.0002
vn -0.0001 -1.0000 -0.0002
vn 0.0002 -1.0000 0.0001
vn -0.0002 -1.0000 -0.0001
vn 0.0002 -1.0000 0.0000
vn 0.0002 -1.0000 -0.0001
vn -0.0002 -1.0000 -0.0000
vn 0.0116 0.9998 -0.0142
vn -0.0162 0.9998 0.0087
vn 0.0087 0.9998 -0.0162
vn 0.0018 0.9998 0.0183
vn -0.0142 0.9998 0.0116
vn 0.0053 0.9998 -0.0176
vn 0.0053 0.9998 0.0176
vn -0.0116 0.9998 0.0142
vn 0.0018 0.9998 -0.0183
vn 0.0087 0.9998 0.0162
vn -0.0087 0.9998 0.0162
vn -0.0018 0.9998 -0.0183
vn 0.0116 0.9998 0.0142
vn -0.0053 0.9998 0.0176
vn -0.0053 0.9998 -0.0176
vn 0.0142 0.9998 0.0116
vn -0.0018 0.9998 0.0183
vn -0.0087 0.9998 -0.0162
vn 0.0162 0.9998 0.0087
vn -0.0116 0.9998 -0.0142
vn 0.0176 0.9998 0.0053
vn -0.0142 0.9998 -0.0116
vn 0.0183 0.9998 0.0018
vn -0.0162 0.9998 -0.0087
vn 0.0183 0.9998 -0.0018
vn -0.0176 0.9998 -0.0053
vn 0.0176 0.9998 -0.0053
vn -0.0183 0.9998 -0.0018
vn 0.0162 0.9998 -0.0087
vn -0.0183 0.9998 0.0018
vn 0.0142 0.9998 -0.0116
vn -0.0176 0.9998 0.0053
vn 0.2903 0.0000 0.9569
vn 0.6344 0.0000 -0.7730
vn 0.4714 0.0000 0.8819
vn 0.4714 0.0000 -0.8819
vn 0.6344 0.0000 0.7730
vn 0.2903 0.0000 -0.9569
vn 0.7730 0.0000 0.6344
vn 0.0980 0.0000 -0.9952
vn 0.8819 0.0000 0.4714
vn -0.0980 0.0000 -0.9952
vn 0.9569 0.0000 0.2903
vn -0.2903 0.0000 -0.9569
vn 0.9952 0.0000 0.0980
vn -0.4714 0.0000 -0.8819
vn 0.9952 0.0000 -0.0980
vn -0.6344 0.0000 -0.7730
vn 0.9569 0.0000 -0.2903
vn -0.7730 0.0000 -0.6344
vn 0.8819 0.0000 -0.4714
vn -0.8819 0.0000 -0.4714
vn 0.7730 0.0000 -0.6344
vn -0.9569 0.0000 -0.2903
vn -0.9952 0.0000 -0.0980
vn -0.9952 0.0000 0.0980
vn -0.9569 0.0000 0.2903
vn -0.8819 0.0000 0.4714
vn 0.0980 0.0000 0.9952
vn -0.7730 0.0000 0.6344
vn -0.6344 0.0000 0.7730
vn -0.4714 0.0000 0.8819
vn -0.2903 0.0000 0.9569
vn -0.0980 0.0000 0.9952
vn -0.0237 0.9997 -0.0028
vn 0.0831 0.0000 -0.9965
vn -0.9928 0.0000 -0.1196
vn 0.0237 -0.9997 0.0028
vn 0.9928 0.0000 0.1196
vn -0.0831 0.0000 0.9965
vn 0.0000 1.0000 0.0000
vn 0.0000 -1.0000 0.0000
vn 0.0064 0.0000 -1.0000
usemtl Material
s off
f 14/1/1 13/2/1 45/3/1 46/4/1
f 28/5/2 27/6/2 59/7/2 60/8/2
f 15/9/1 14/10/1 46/11/1 47/12/1
f 2/13/3 1/14/3 33/15/3 34/16/3
f 29/17/2 28/18/2 60/19/2 61/20/2
f 16/21/1 15/22/1 47/23/1 48/24/1
f 3/25/4 2/26/4 34/27/4 35/28/4
f 30/29/5 29/30/5 61/31/5 62/32/5
f 17/33/6 16/34/6 48/35/6 49/36/6
f 4/37/4 3/38/4 35/39/4 36/40/4
f 31/41/5 30/42/5 62/43/5 63/44/5
f 18/45/6 17/46/6 49/47/6 50/48/6
f 5/49/4 4/50/4 36/51/4 37/52/4
f 32/53/5 31/54/5 63/55/5 64/56/5
f 19/57/7 18/58/7 50/59/7 51/60/7
f 6/61/8 5/62/8 37/63/8 38/64/8
f 1/65/3 32/66/3 64/67/3 33/68/3
f 20/69/7 19/70/7 51/71/7 52/72/7
f 7/73/8 6/74/8 38/75/8 39/76/8
f 21/77/7 20/78/7 52/79/7 53/80/7
f 8/81/8 7/82/8 39/83/8 40/84/8
f 22/85/9 21/86/9 53/87/9 54/88/9
f 9/89/10 8/90/10 40/91/10 41/92/10
f 23/93/9 22/94/9 54/95/9 55/96/9
f 10/97/10 9/98/10 41/99/10 42/100/10
f 24/101/9 23/102/9 55/103/9 56/104/9
f 11/105/11 10/106/11 42/107/11 43/108/11
f 25/109/12 24/110/12 56/111/12 57/112/12
f 12/113/11 11/114/11 43/115/11 44/116/11
f 26/117/12 25/118/12 57/119/12 58/120/12
f 13/121/11 12/122/11 44/123/11 45/124/11
f 27/125/2 26/126/2 58/127/2 59/128/2
f 78/129/13 110/130/13 109/131/13 77/132/13
f 92/133/14 124/134/14 123/135/14 91/136/14
f 79/137/15 111/138/15 110/139/15 78/140/15
f 66/141/16 98/142/16 97/143/16 65/144/16
f 93/145/17 125/146/17 124/147/17 92/148/17
f 80/149/18 112/150/18 111/151/18 79/152/18
f 67/153/19 99/154/19 98/155/19 66/156/19
f 94/157/20 126/158/20 125/159/20 93/160/20
f 81/161/21 113/162/21 112/163/21 80/164/21
f 68/165/22 100/166/22 99/167/22 67/168/22
f 95/169/23 127/170/23 126/171/23 94/172/23
f 82/173/24 114/174/24 113/175/24 81/176/24
f 69/177/25 101/178/25 100/179/25 68/180/25
f 96/181/26 128/182/26 127/183/26 95/184/26
f 83/185/27 115/186/27 114/187/27 82/188/27
f 70/189/28 102/190/28 101/191/28 69/192/28
f 65/193/29 97/194/29 128/195/29 96/196/29
f 84/197/30 116/198/30 115/199/30 83/200/30
f 71/201/31 103/202/31 102/203/31 70/204/31
f 85/205/32 117/206/32 116/207/32 84/208/32
f 72/209/33 104/210/33 103/211/33 71/212/33
f 86/213/34 118/214/34 117/215/34 85/216/34
f 73/217/35 105/218/35 104/219/35 72/220/35
f 87/221/36 119/222/36 118/223/36 86/224/36
f 74/225/37 106/226/37 105/227/37 73/228/37
f 88/229/38 120/230/38 119/231/38 87/232/38
f 75/233/39 107/234/39 106/235/39 74/236/39
f 89/237/40 121/238/40 120/239/40 88/240/40
f 76/241/41 108/242/41 107/243/41 75/244/41
f 90/245/42 122/246/42 121/247/42 89/248/42
f 77/249/43 109/250/43 108/251/43 76/252/43
f 91/253/44 123/254/44 122/255/44 90/256/44
f 19/257/45 83/258/45 82/259/45 18/260/45
f 45/261/46 109/262/46 110/263/46 46/264/46
f 20/265/47 84/266/47 83/267/47 19/268/47
f 46/269/48 110/270/48 111/271/48 47/272/48
f 21/273/49 85/274/49 84/275/49 20/276/49
f 47/277/50 111/278/50 112/279/50 48/280/50
f 22/281/51 86/282/51 85/283/51 21/284/51
f 48/285/52 112/286/52 113/287/52 49/288/52
f 23/289/53 87/290/53 86/291/53 22/292/53
f 49/293/54 113/294/54 114/295/54 50/296/54
f 24/297/55 88/298/55 87/299/55 23/300/55
f 50/301/56 114/302/56 115/303/56 51/304/56
f 25/305/57 89/306/57 88/307/57 24/308/57
f 51/309/58 115/310/58 116/311/58 52/312/58
f 26/313/59 90/314/59 89/315/59 25/316/59
f 52/317/60 116/318/60 117/319/60 53/320/60
f 27/321/61 91/322/61 90/323/61 26/324/61
f 53/325/62 117/326/62 118/327/62 54/328/62
f 28/329/63 92/330/63 91/331/63 27/332/63
f 2/333/54 66/334/54 65/335/54 1/336/54
f 54/337/64 118/338/64 119/339/64 55/340/64
f 29/341/65 93/342/65 92/343/65 28/344/65
f 3/345/56 67/346/56 66/347/56 2/348/56
f 55/349/66 119/350/66 120/351/66 56/352/66
f 30/353/46 94/354/46 93/355/46 29/356/46
f 4/357/58 68/358/58 67/359/58 3/360/58
f 56/361/67 120/362/67 121/363/67 57/364/67
f 31/365/48 95/366/48 94/367/48 30/368/48
f 5/369/60 69/370/60 68/371/60 4/372/60
f 57/373/68 121/374/68 122/375/68 58/376/68
f 32/377/50 96/378/50 95/379/50 31/380/50
f 6/381/62 70/382/62 69/383/62 5/384/62
f 58/385/69 122/386/69 123/387/69 59/388/69
f 1/389/52 65/390/52 96/391/52 32/392/52
f 7/393/64 71/394/64 70/395/64 6/396/64
f 59/397/70 123/398/70 124/399/70 60/400/70
f 33/401/71 97/402/71 98/403/71 34/404/71
f 8/405/66 72/406/66 71/407/66 7/408/66
f 60/409/72 124/410/72 125/411/72 61/412/72
f 34/413/45 98/414/45 99/415/45 35/416/45
f 9/417/67 73/418/67 72/419/67 8/420/67
f 61/421/73 125/422/73 126/423/73 62/424/73
f 35/425/47 99/426/47 100/427/47 36/428/47
f 10/429/68 74/430/68 73/431/68 9/432/68
f 62/433/74 126/434/74 127/435/74 63/436/74
f 36/437/49 100/438/49 101/439/49 37/440/49
f 11/441/69 75/442/69 74/443/69 10/444/69
f 63/445/75 127/446/75 128/447/75 64/448/75
f 37/449/51 101/450/51 102/451/51 38/452/51
f 12/453/70 76/454/70 75/455/70 11/456/70
f 64/457/76 128/458/76 97/459/76 33/460/76
f 38/461/53 102/462/53 103/463/53 39/464/53
f 13/465/72 77/466/72 76/467/72 12/468/72
f 39/469/55 103/470/55 104/471/55 40/472/55
f 14/473/73 78/474/73 77/475/73 13/476/73
f 40/477/57 104/478/57 105/479/57 41/480/57
f 15/481/74 79/482/74 78/483/74 14/484/74
f 41/485/59 105/486/59 106/487/59 42/488/59
f 16/489/75 80/490/75 79/491/75 15/492/75
f 42/493/61 106/494/61 107/495/61 43/496/61
f 17/497/76 81/498/76 80/499/76 16/500/76
f 43/501/63 107/502/63 108/503/63 44/504/63
f 18/505/71 82/506/71 81/507/71 17/508/71
f 44/509/65 108/510/65 109/511/65 45/512/65
f 95/513/77 130/514/77 134/515/77 132/516/77
f 131/517/78 132/518/78 134/519/78 133/520/78
f 31/521/79 95/522/79 132/523/79 131/524/79
f 129/525/80 31/526/80 131/527/80 133/528/80
f 130/529/81 129/530/81 133/531/81 134/532/81
f 130/533/82 95/534/82 31/535/82 129/536/82
f 95/537/83 132/538/83 96/539/83
f 31/540/84 32/541/84 131/542/84
f 132/543/85 131/544/85 32/545/85 96/546/85
