# Blender v3.0.0 OBJ File: 'ScrewDrivers.blend'
# www.blender.org
mtllib ScrewDrivers_Phillips.mtl
o Plane
v -0.100000 -0.100000 -0.000000
v 0.100000 -0.100000 -0.000000
v -0.100000 0.100000 0.000000
v 0.100000 0.100000 0.000000
v -0.100000 -0.100000 0.536967
v 0.100000 -0.100000 0.536967
v -0.100000 0.100000 0.536967
v 0.100000 0.100000 0.536967
v -0.100000 -0.038271 0.697484
v 0.100000 -0.038271 0.697484
v -0.100000 0.038271 0.697484
v 0.100000 0.038271 0.697484
v -0.100000 0.012757 0.697484
v -0.100000 -0.012757 0.697484
v -0.033333 -0.038271 0.697484
v 0.033333 -0.038271 0.697484
v 0.100000 -0.012757 0.697484
v 0.100000 0.012757 0.697484
v 0.033333 0.038271 0.697484
v -0.033333 0.038271 0.697484
v -0.040167 0.010251 1.300231
v -0.027126 0.016943 1.300231
v 0.038819 0.010251 1.300231
v 0.040657 -0.010509 1.300231
v -0.048441 -0.012757 0.697484
v -0.033333 -0.023506 0.697484
v 0.047711 0.012757 0.697484
v 0.033333 -0.025032 0.697484
v -0.049360 0.012757 0.697484
v -0.033333 0.020980 0.697484
v 0.049969 -0.012757 0.697484
v 0.033333 0.022029 0.697484
v 0.027120 -0.020497 1.300231
v -0.027126 -0.019256 1.300231
v 0.027120 0.017796 1.300231
v -0.039418 -0.010509 1.300231
v -0.025691 0.006427 1.318658
v -0.017351 0.010706 1.318658
v 0.017341 -0.013238 1.318658
v -0.017351 -0.012444 1.318658
v -0.025212 -0.006850 1.318658
v 0.017341 0.011252 1.318658
v 0.024823 0.006427 1.318658
v 0.025998 -0.006850 1.318658
v 0.019236 0.007152 1.323738
v -0.019246 0.007152 1.323738
v 0.019236 -0.007575 1.323738
v -0.019246 -0.007575 1.323738
v 0.019236 0.007152 1.387254
v -0.019246 0.007152 1.387254
v 0.019236 -0.007575 1.387254
v -0.019246 -0.007575 1.387254
v -0.011111 -0.038271 0.697484
v 0.011111 -0.038271 0.697484
v 0.011111 0.038271 0.697484
v -0.011111 0.038271 0.697484
v 0.009038 -0.020083 1.300231
v -0.009044 -0.019670 1.300231
v -0.009044 0.017227 1.300231
v 0.009038 0.017512 1.300231
v 0.011111 -0.024524 0.697484
v -0.011111 -0.024015 0.697484
v -0.011111 0.021330 0.697484
v 0.011111 0.021679 0.697484
v 0.005777 -0.012973 1.318658
v -0.005787 -0.012709 1.318658
v -0.005787 0.010888 1.318658
v 0.005777 0.011070 1.318658
v 0.006409 0.007152 1.323738
v -0.006418 0.007152 1.323738
v 0.006409 -0.007575 1.323738
v -0.006418 -0.007575 1.323738
v 0.006409 0.007152 1.387254
v -0.006418 0.007152 1.387254
v 0.006409 -0.007575 1.387254
v -0.006418 -0.007575 1.387254
v 0.006457 0.014901 1.323738
v -0.006466 0.014901 1.323738
v 0.006457 -0.015325 1.323738
v -0.006466 -0.015325 1.323738
v 0.006457 0.014901 1.387254
v -0.006466 0.014901 1.387254
v 0.006457 -0.015325 1.387254
v -0.006466 -0.015325 1.387254
v -0.090000 0.090000 0.187938
v -0.090000 0.090000 0.349028
v 0.090000 0.090000 0.349028
v 0.090000 0.090000 0.187938
v 0.090000 -0.090000 0.187938
v 0.090000 -0.090000 0.349028
v -0.090000 -0.090000 0.349028
v -0.090000 -0.090000 0.187938
v 0.009080 0.003265 1.403133
v -0.009089 0.003265 1.403133
v 0.009080 -0.003689 1.403133
v -0.009089 -0.003689 1.403133
v 0.003024 0.003265 1.403133
v -0.003033 0.003265 1.403133
v 0.003024 -0.003689 1.403133
v -0.003033 -0.003689 1.403133
v 0.003046 0.006924 1.403133
v -0.003055 0.006924 1.403133
v 0.003046 -0.007347 1.403133
v -0.003055 -0.007347 1.403133
v -0.100000 -0.000000 0.697484
v 0.100000 -0.000000 0.697484
v -0.039793 -0.000129 1.300231
v 0.039738 -0.000129 1.300231
v 0.048840 -0.000000 0.697484
v -0.048900 -0.000000 0.697484
v -0.025451 -0.000212 1.318658
v 0.025411 -0.000212 1.318658
v 0.019236 -0.000212 1.323738
v -0.019246 -0.000212 1.323738
v 0.019236 -0.000212 1.387254
v -0.019246 -0.000212 1.387254
v 0.009080 -0.000212 1.403133
v -0.009089 -0.000212 1.403133
v 0.003024 -0.000212 1.403133
v -0.003033 -0.000212 1.403133
v -0.100000 0.000000 0.000000
v 0.100000 0.000000 0.000000
v -0.100000 -0.000000 0.536967
v 0.100000 -0.000000 0.536967
v -0.090000 -0.000000 0.187938
v -0.090000 -0.000000 0.349028
v 0.090000 -0.000000 0.187938
v 0.090000 -0.000000 0.349028
vt 0.090606 0.968663
vt 0.129056 0.932391
vt 0.177784 0.937168
vt 0.212940 0.999816
vt 0.440828 0.659576
vt 0.343932 0.659293
vt 0.333561 0.578995
vt 0.371216 0.556313
vt 0.386147 0.553528
vt 0.400874 0.552880
vt 0.415413 0.555399
vt 0.451651 0.576681
vt 0.215242 0.766766
vt 0.107258 0.768452
vt 0.112403 0.660249
vt 0.209315 0.660731
vt 0.446774 0.765466
vt 0.339191 0.767403
vt 0.271850 0.769367
vt 0.271850 0.650100
vt 0.503128 0.767998
vt 0.503128 0.649369
vt 0.132344 0.067867
vt 0.124484 0.069055
vt 0.128959 0.062970
vt 0.219112 0.577988
vt 0.229405 0.570137
vt 0.235838 0.565719
vt 0.462039 0.569117
vt 0.468535 0.564873
vt 0.102375 0.580428
vt 0.138864 0.559263
vt 0.153494 0.556597
vt 0.168044 0.555602
vt 0.182410 0.557893
vt 0.092191 0.573079
vt 0.117937 0.545438
vt 0.134242 0.546964
vt 0.151912 0.544399
vt 0.128816 0.085150
vt 0.142067 0.083408
vt 0.419592 0.544975
vt 0.435928 0.541751
vt 0.086076 0.569160
vt 0.107629 0.541584
vt 0.366863 0.546436
vt 0.385049 0.543626
vt 0.445679 0.537955
vt 0.417275 0.085327
vt 0.425011 0.082974
vt 0.323062 0.571696
vt 0.348028 0.543107
vt 0.354915 0.086630
vt 0.366317 0.086397
vt 0.212006 0.539245
vt 0.202097 0.542984
vt 0.179743 0.084040
vt 0.187560 0.081730
vt 0.186982 0.545669
vt 0.170139 0.084068
vt 0.337833 0.539044
vt 0.316795 0.567854
vt 0.379702 0.084749
vt 0.168627 0.543875
vt 0.360783 0.069368
vt 0.369956 0.069198
vt 0.118754 0.085976
vt 0.407105 0.085383
vt 0.165863 0.066929
vt 0.173374 0.067197
vt 0.142727 0.066067
vt 0.411013 0.068695
vt 0.415814 0.066336
vt 0.380332 0.067216
vt 0.402978 0.068520
vt 0.178316 0.064944
vt 0.122575 0.060622
vt 0.119655 0.066496
vt 0.169278 0.061590
vt 0.175322 0.059349
vt 0.412885 0.060755
vt 0.406742 0.062913
vt 0.406447 0.014970
vt 0.411798 0.012032
vt 0.140992 0.060133
vt 0.392579 0.067024
vt 0.394271 0.059939
vt 0.365752 0.063041
vt 0.380731 0.014606
vt 0.372936 0.012583
vt 0.382499 0.003198
vt 0.387648 0.003520
vt 0.133440 0.013446
vt 0.141223 0.015040
vt 0.378312 0.059573
vt 0.166671 0.014059
vt 0.171866 0.010859
vt 0.398668 0.015827
vt 0.386068 0.016981
vt 0.383267 0.052246
vt 0.156685 0.058703
vt 0.159003 0.015315
vt 0.146606 0.017107
vt 0.145522 0.052209
vt 0.388577 0.006342
vt 0.394148 0.017548
vt 0.392492 0.006940
vt 0.155206 0.065461
vt 0.394007 0.084361
vt 0.156610 0.083021
vt 0.401734 0.542788
vt 0.389849 0.053641
vt 0.152068 0.053053
vt 0.154617 0.017250
vt 0.152423 0.006852
vt 0.153642 0.003693
vt 0.398780 0.004151
vt 0.399951 0.001497
vt 0.445035 0.997511
vt 0.409879 0.935252
vt 0.438974 0.858663
vt 0.493140 0.872284
vt 0.207211 0.860313
vt 0.261593 0.874124
vt 0.361364 0.930627
vt 0.342561 0.858014
vt 0.110371 0.859405
vt 0.147233 0.000448
vt 0.147455 0.003737
vt 0.142360 0.003700
vt 0.141585 0.000917
vt 0.159510 0.001054
vt 0.158496 0.003749
vt 0.153639 0.000184
vt 0.393893 0.003822
vt 0.148524 0.006472
vt 0.367698 0.008616
vt 0.381869 0.000335
vt 0.387609 0.000184
vt 0.394089 0.000284
vt 0.128117 0.009828
vt 0.359233 0.060395
vt 0.355981 0.066459
vt 0.347016 0.084108
vt 0.110909 0.083689
vt 0.293886 0.865773
vt 0.285322 0.769794
vt 0.323193 0.966835
vt 0.061457 0.867045
vt 0.053207 0.770608
vt 0.051860 0.650867
vt 0.283290 0.650453
vn 0.0000 0.0000 -1.0000
vn 0.0000 -0.9334 0.3589
vn 0.0000 0.9986 -0.0531
vn 0.0000 -0.9986 -0.0531
vn 0.9986 0.0000 -0.0531
vn -0.9986 0.0000 -0.0531
vn -0.4160 0.8107 0.4120
vn 1.0000 0.0000 0.0000
vn -1.0000 0.0000 0.0000
vn 0.0000 0.9334 0.3589
vn -0.0000 0.0000 1.0000
vn -0.0157 0.9999 0.0069
vn -0.9992 -0.0360 0.0151
vn 0.5937 -0.8046 0.0122
vn 0.9960 0.0882 0.0151
vn 0.5419 0.8403 0.0115
vn -0.0229 -0.9997 0.0073
vn 0.5019 -0.6802 0.5343
vn -0.4565 0.8897 0.0107
vn -0.5797 -0.8147 0.0117
vn 0.4676 0.7250 0.5056
vn -0.0149 0.9447 0.3276
vn -0.7889 -0.0284 0.6139
vn -0.0214 -0.9340 0.3566
vn -0.4952 -0.6960 0.5200
vn 0.7874 0.0697 0.6125
vn -0.4011 0.7818 0.4774
vn -0.6258 -0.0107 0.7799
vn 0.4894 0.7588 0.4298
vn 0.6545 0.0275 0.7556
vn -0.0061 0.8132 0.5819
vn -0.0077 -0.7136 0.7005
vn 0.4920 -0.6668 0.5597
vn -0.5049 -0.7095 0.4916
vn -0.0000 -0.9713 0.2378
vn 0.0000 1.0000 0.0000
vn 0.0000 -1.0000 -0.0000
vn 1.0000 0.0062 0.0000
vn -1.0000 -0.0062 -0.0000
vn 0.9783 0.0060 0.2071
vn 0.0000 -0.8936 0.4489
vn -0.0073 -0.6756 0.7372
vn -0.0075 -0.6943 0.7196
vn -0.0058 0.7843 0.6203
vn -0.0060 0.7987 0.6017
vn 0.9783 -0.0060 0.2071
vn -0.8424 0.0000 0.5388
vn 1.0000 -0.0062 -0.0000
vn -1.0000 0.0062 0.0000
vn -0.9986 0.0000 0.0531
vn 0.9986 0.0000 0.0531
vn 0.0000 -0.9986 0.0531
vn 0.0000 0.9986 0.0531
vn 0.0000 0.9713 0.2378
vn -0.9783 -0.0060 0.2071
vn 0.8424 -0.0000 0.5388
vn -0.9783 0.0060 0.2071
vn 0.0000 0.8936 0.4489
vn 0.6166 0.0259 0.7869
vn -0.6412 -0.0110 0.7673
usemtl Material
s off
f 121/1/1 3/2/1 4/3/1 122/4/1
f 5/5/2 6/6/2 10/7/2 16/8/2 54/9/2 53/10/2 15/11/2 9/12/2
f 87/13/3 86/14/3 7/15/3 8/16/3
f 91/17/4 90/18/4 6/6/4 5/5/4
f 128/19/5 87/13/5 8/16/5 124/20/5
f 126/21/6 91/17/6 5/5/6 123/22/6
f 38/23/7 37/24/7 46/25/7
f 124/20/8 8/16/8 12/26/8 18/27/8 106/28/8
f 123/22/9 5/5/9 9/12/9 14/29/9 105/30/9
f 8/16/10 7/15/10 11/31/10 20/32/10 56/33/10 55/34/10 19/35/10 12/26/10
f 13/36/11 29/37/11 30/38/11 20/32/11 11/31/11
f 63/39/12 30/38/12 22/40/12 59/41/12
f 9/12/11 15/11/11 26/42/11 25/43/11 14/29/11
f 105/44/11 110/45/11 29/37/11 13/36/11
f 54/9/11 16/8/11 28/46/11 61/47/11
f 110/48/13 25/43/13 36/49/13 107/50/13
f 16/8/11 10/7/11 17/51/11 31/52/11 28/46/11
f 28/46/14 31/52/14 24/53/14 33/54/14
f 109/55/15 27/56/15 23/57/15 108/58/15
f 27/56/16 32/59/16 35/60/16 23/57/16
f 109/61/11 31/52/11 17/51/11 106/62/11
f 61/47/17 28/46/17 33/54/17 57/63/17
f 64/64/11 32/59/11 19/35/11 55/34/11
f 33/54/18 24/53/18 44/65/18 39/66/18
f 30/38/19 29/37/19 21/67/19 22/40/19
f 32/59/11 27/56/11 18/27/11 12/26/11 19/35/11
f 25/43/20 26/42/20 34/68/20 36/49/20
f 23/57/21 35/60/21 42/69/21 43/70/21
f 59/41/22 22/40/22 38/23/22 67/71/22
f 107/50/23 36/49/23 41/72/23 111/73/23
f 57/63/24 33/54/24 39/66/24 65/74/24
f 36/49/25 34/68/25 40/75/25 41/72/25
f 108/58/26 23/57/26 43/70/26 112/76/26
f 22/40/27 21/67/27 37/24/27 38/23/27
f 114/77/28 46/25/28 37/24/28 111/78/28
f 43/70/29 42/69/29 45/79/29
f 112/76/30 43/70/30 45/79/30 113/80/30
f 114/81/9 48/82/9 52/83/9 116/84/9
f 67/71/31 38/23/31 46/25/31 70/85/31
f 66/86/32 72/87/32 48/82/32 40/75/32
f 39/66/33 44/65/33 47/88/33
f 40/75/34 48/82/34 41/72/34
f 75/89/35 51/90/35 95/91/35 99/92/35
f 70/85/36 46/25/36 50/93/36 74/94/36
f 71/95/37 47/88/37 51/90/37 75/89/37
f 113/80/8 45/79/8 49/96/8 115/97/8
f 48/82/37 72/87/37 76/98/37 52/83/37
f 71/95/38 75/89/38 83/99/38 79/100/38
f 45/79/36 69/101/36 73/102/36 49/96/36
f 70/85/39 74/94/39 82/103/39 78/104/39
f 83/99/40 75/89/40 99/92/40 103/105/40
f 84/106/41 83/99/41 103/105/41 104/107/41
f 39/66/42 47/88/42 71/95/42 65/74/42
f 65/74/43 71/95/43 72/87/43 66/86/43
f 42/69/44 68/108/44 69/101/44 45/79/44
f 68/108/45 67/71/45 70/85/45 69/101/45
f 34/68/24 58/109/24 66/86/24 40/75/24
f 58/109/24 57/63/24 65/74/24 66/86/24
f 35/60/22 60/110/22 68/108/22 42/69/22
f 60/110/22 59/41/22 67/71/22 68/108/22
f 30/38/11 63/39/11 56/33/11 20/32/11
f 63/39/11 64/64/11 55/34/11 56/33/11
f 26/42/17 62/111/17 58/109/17 34/68/17
f 62/111/17 61/47/17 57/63/17 58/109/17
f 15/11/11 53/10/11 62/111/11 26/42/11
f 53/10/11 54/9/11 61/47/11 62/111/11
f 32/59/12 64/64/12 60/110/12 35/60/12
f 64/64/12 63/39/12 59/41/12 60/110/12
f 80/112/37 79/100/37 83/99/37 84/106/37
f 77/113/36 78/104/36 82/103/36 81/114/36
f 73/102/46 81/114/46 101/115/46 97/116/46
f 116/84/47 52/83/47 96/117/47 118/118/47
f 72/87/1 71/95/1 79/100/1 80/112/1
f 69/101/1 70/85/1 78/104/1 77/113/1
f 73/102/48 69/101/48 77/113/48 81/114/48
f 76/98/49 72/87/49 80/112/49 84/106/49
f 121/119/50 1/120/50 92/121/50 125/122/50
f 125/122/9 92/121/9 91/17/9 126/21/9
f 122/4/51 4/3/51 88/123/51 127/124/51
f 127/124/8 88/123/8 87/13/8 128/19/8
f 1/120/52 2/125/52 89/126/52 92/121/52
f 92/121/37 89/126/37 90/18/37 91/17/37
f 4/3/53 3/2/53 85/127/53 88/123/53
f 88/123/36 85/127/36 86/14/36 87/13/36
f 120/128/11 98/129/11 94/130/11 118/131/11
f 117/132/11 93/133/11 97/116/11 119/134/11
f 119/134/11 97/116/11 98/129/11 120/128/11
f 99/92/11 100/135/11 104/107/11 103/105/11
f 98/129/11 97/116/11 101/115/11 102/136/11
f 52/83/35 76/98/35 100/135/35 96/117/35
f 74/94/54 50/93/54 94/130/54 98/129/54
f 82/103/55 74/94/55 98/129/55 102/136/55
f 49/96/54 73/102/54 97/116/54 93/133/54
f 115/97/56 49/96/56 93/133/56 117/132/56
f 76/98/57 84/106/57 104/107/57 100/135/57
f 81/114/58 82/103/58 102/136/58 101/115/58
f 51/90/56 115/137/56 117/138/56 95/91/56
f 99/92/11 119/139/11 120/140/11 100/135/11
f 95/91/11 117/138/11 119/139/11 99/92/11
f 100/135/11 120/140/11 118/118/11 96/117/11
f 50/93/47 116/141/47 118/131/47 94/130/47
f 47/88/8 113/142/8 115/137/8 51/90/8
f 46/25/9 114/77/9 116/141/9 50/93/9
f 44/65/59 112/143/59 113/142/59 47/88/59
f 48/82/60 114/81/60 111/73/60 41/72/60
f 24/53/26 108/144/26 112/143/26 44/65/26
f 21/67/23 107/145/23 111/78/23 37/24/23
f 27/56/11 109/55/11 106/28/11 18/27/11
f 31/52/15 109/61/15 108/144/15 24/53/15
f 29/37/13 110/45/13 107/145/13 21/67/13
f 14/29/11 25/43/11 110/48/11 105/30/11
f 89/126/8 127/146/8 128/147/8 90/18/8
f 2/125/51 122/148/51 127/146/51 89/126/51
f 85/127/9 125/149/9 126/150/9 86/14/9
f 3/2/50 121/1/50 125/149/50 85/127/50
f 86/14/6 126/150/6 123/151/6 7/15/6
f 90/18/5 128/147/5 124/152/5 6/6/5
f 1/120/1 121/119/1 122/148/1 2/125/1
f 6/6/8 124/152/8 106/62/8 17/51/8 10/7/8
f 7/15/9 123/151/9 105/44/9 13/36/9 11/31/9
