# Blender v2.91.0 OBJ File: 'Cigarettes.blend'
# www.blender.org
mtllib Cigarettes.mtl
o Cube_Cube.001
v -0.036151 -0.050000 -0.005329
v -0.036151 0.050000 -0.005329
v -0.036151 -0.050000 -0.050000
v -0.036151 0.050000 -0.050000
v 0.036151 -0.050000 -0.005329
v 0.036151 0.050000 -0.005329
v 0.036151 -0.050000 -0.050000
v 0.036151 0.050000 -0.050000
v -0.036151 0.017528 -0.005329
v -0.036151 0.017528 -0.050000
v 0.036151 0.017528 -0.050000
v 0.036151 0.017528 -0.005329
v -0.036924 0.050207 -0.004740
v -0.036924 0.050207 -0.049597
v 0.036924 0.050207 -0.004740
v 0.036924 0.050207 -0.049597
v -0.036924 0.018759 -0.004740
v -0.036924 0.018759 -0.049597
v 0.036924 0.018759 -0.049597
v 0.036924 0.018759 -0.004740
v 0.036924 0.018509 -0.004740
v -0.036924 0.018509 -0.004740
v 0.036924 0.018509 -0.049597
v -0.036924 0.018509 -0.049597
v -0.038958 0.018509 -0.003482
v -0.038958 0.050706 -0.003482
v -0.038958 0.050706 -0.050854
v 0.038958 0.050706 -0.050854
v 0.038958 0.050706 -0.003482
v -0.038958 0.018509 -0.050854
v 0.038958 0.018509 -0.050854
v 0.038958 0.018509 -0.003482
vt 0.903941 0.276527
vt 0.903941 0.400175
vt 0.733841 0.400175
vt 0.733841 0.276527
vt 0.711262 0.000403
vt 0.834910 0.000403
vt 0.834910 0.275720
vt 0.711262 0.275720
vt 0.170503 0.828786
vt 0.170503 0.952435
vt 0.000403 0.952435
vt 0.000403 0.828786
vt 0.297907 0.829027
vt 0.297907 0.705378
vt 0.573224 0.705378
vt 0.573224 0.829027
vt 0.000403 0.534472
vt 0.275720 0.534472
vt 0.275720 0.704572
vt 0.000403 0.704572
vt 0.457718 0.276527
vt 0.733035 0.276527
vt 0.733035 0.446626
vt 0.457718 0.446626
vt 0.257542 0.275720
vt 0.000403 0.275720
vt 0.000403 0.000403
vt 0.257542 0.000403
vt 0.710455 0.018582
vt 0.710455 0.275720
vt 0.540356 0.275720
vt 0.540356 0.018582
vt 0.275720 0.276527
vt 0.275720 0.533666
vt 0.000403 0.533666
vt 0.000403 0.276527
vt 0.457718 0.704572
vt 0.457718 0.447433
vt 0.627817 0.447433
vt 0.627817 0.704572
vt 0.171309 0.999597
vt 0.171309 0.828786
vt 0.291057 0.828786
vt 0.291057 0.999597
vt 0.628624 0.744936
vt 0.909824 0.744936
vt 0.909824 0.864684
vt 0.628624 0.864684
vt 0.872587 0.728633
vt 0.872587 0.557823
vt 0.992334 0.557823
vt 0.992334 0.728633
vt 0.871780 0.447433
vt 0.871780 0.728633
vt 0.752032 0.728633
vt 0.752032 0.447433
vt 0.258349 0.275720
vt 0.258349 0.104910
vt 0.539549 0.104910
vt 0.539549 0.275720
vt 0.607741 0.705378
vt 0.607741 0.829177
vt 0.605580 0.829195
vt 0.605580 0.705396
vt 0.608547 0.829195
vt 0.608547 0.705397
vt 0.610708 0.705378
vt 0.610708 0.829177
vt 0.258349 0.096902
vt 0.258349 0.000417
vt 0.260033 0.000403
vt 0.260033 0.096889
vt 0.260839 0.096902
vt 0.260839 0.000417
vt 0.262523 0.000403
vt 0.262523 0.096889
vt 0.835717 0.000403
vt 0.958318 0.000403
vt 0.958318 0.180788
vt 0.835717 0.180788
vt 0.297100 0.705378
vt 0.297100 0.827980
vt 0.000403 0.827980
vt 0.000403 0.705378
vt 0.456911 0.574030
vt 0.456911 0.696632
vt 0.276527 0.696632
vt 0.276527 0.574030
vt 0.751225 0.744130
vt 0.628624 0.744130
vt 0.628624 0.447433
vt 0.751225 0.447433
vt 0.276527 0.573224
vt 0.276527 0.276527
vt 0.456911 0.276527
vt 0.456911 0.573224
vt 0.627817 0.710165
vt 0.627817 0.880976
vt 0.620069 0.885763
vt 0.620069 0.705378
vt 0.611515 0.880976
vt 0.611514 0.710165
vt 0.619263 0.705378
vt 0.619263 0.885763
vt 0.953408 0.463308
vt 0.953401 0.189553
vt 0.958318 0.181594
vt 0.958318 0.470848
vt 0.959132 0.282117
vt 0.959125 0.008362
vt 0.964042 0.000403
vt 0.964042 0.289658
vn -1.0000 0.0000 0.0000
vn 0.0000 0.0000 -1.0000
vn 1.0000 0.0000 0.0000
vn 0.0000 0.0000 1.0000
vn 0.0000 -1.0000 0.0000
vn 0.0000 1.0000 0.0000
usemtl Material
s off
f 9/1/1 2/2/1 4/3/1 10/4/1
f 10/5/2 4/6/2 8/7/2 11/8/2
f 11/9/3 8/10/3 6/11/3 12/12/3
f 12/13/4 6/14/4 2/15/4 9/16/4
f 3/17/5 7/18/5 5/19/5 1/20/5
f 8/21/6 4/22/6 2/23/6 6/24/6
f 5/25/4 12/26/4 9/27/4 1/28/4
f 7/29/3 11/30/3 12/31/3 5/32/3
f 3/33/2 10/34/2 11/35/2 7/36/2
f 1/37/1 9/38/1 10/39/1 3/40/1
f 17/41/3 18/42/3 14/43/3 13/44/3
f 18/45/4 19/46/4 16/47/4 14/48/4
f 19/49/1 20/50/1 15/51/1 16/52/1
f 20/53/2 17/54/2 13/55/2 15/56/2
f 16/57/5 15/58/5 13/59/5 14/60/5
f 17/61/2 20/62/2 21/63/2 22/64/2
f 19/65/4 18/66/4 24/67/4 23/68/4
f 20/69/1 19/70/1 23/71/1 21/72/1
f 18/73/3 17/74/3 22/75/3 24/76/3
f 25/77/1 26/78/1 27/79/1 30/80/1
f 30/81/2 27/82/2 28/83/2 31/84/2
f 31/85/3 28/86/3 29/87/3 32/88/3
f 32/89/4 29/90/4 26/91/4 25/92/4
f 28/93/6 27/94/6 26/95/6 29/96/6
f 24/97/5 22/98/5 25/99/5 30/100/5
f 21/101/5 23/102/5 31/103/5 32/104/5
f 23/105/5 24/106/5 30/107/5 31/108/5
f 22/109/5 21/110/5 32/111/5 25/112/5
