# Blender v3.0.1 OBJ File: 'ComputerCase.blend'
# www.blender.org
mtllib ComputerCase.mtl
o Cube_Cube.001
v 0.000000 0.225000 -0.250000
v 0.000000 0.225000 0.250000
v 0.250000 0.225000 0.250000
v 0.250000 0.225000 -0.250000
v 0.029238 0.235967 0.273413
v -0.011774 0.235967 -0.273413
v 0.024185 0.256862 -0.201496
v 0.250000 -0.226250 -0.250000
v 0.250000 -0.226250 0.250000
v 0.000000 -0.226250 0.250000
v 0.000000 -0.226250 -0.250000
v 0.250000 0.179875 -0.250000
v 0.250000 0.179875 0.250000
v 0.000000 0.179875 0.250000
v 0.000000 0.179875 -0.250000
v 0.250000 0.139263 0.250000
v 0.000000 0.139263 0.250000
v 0.166667 0.179875 0.250000
v 0.083333 0.179875 0.250000
v 0.166667 0.139263 0.250000
v 0.083333 0.139263 0.250000
v 0.075000 0.175814 0.266089
v 0.008333 0.175814 0.266089
v 0.241667 0.143324 0.266089
v 0.008333 0.143324 0.266089
v 0.075000 0.143324 0.266089
v 0.241667 0.175814 0.266089
v 0.175000 0.175814 0.266089
v 0.175000 0.143324 0.266089
v 0.253898 -0.226250 -0.257795
v 0.253898 -0.250000 -0.257795
v 0.253898 -0.250000 0.257795
v 0.253898 -0.226250 0.257795
v -0.003898 -0.250000 0.257795
v -0.003898 -0.250000 -0.257795
v -0.003898 -0.226250 0.257795
v -0.003898 -0.226250 -0.257795
v -0.004831 0.224517 -0.259662
v 0.254831 0.224517 -0.259662
v 0.254831 0.224517 0.259662
v -0.004831 0.224517 0.259662
v 0.029319 0.244361 -0.191362
v 0.220681 0.244361 -0.191362
v 0.220681 0.244361 0.191362
v 0.029319 0.244361 0.191362
v 0.250000 0.090239 0.250000
v 0.000000 0.090239 0.250000
v 0.250000 0.043960 -0.250000
v 0.250000 0.043960 0.250000
v 0.000000 0.043960 0.250000
v 0.000000 0.043960 -0.250000
v 0.037500 0.225000 -0.250000
v 0.037500 0.225000 0.250000
v 0.261639 0.235967 -0.273413
v 0.226779 0.235967 -0.273413
v 0.037500 -0.226250 0.250000
v 0.037500 -0.226250 -0.250000
v 0.037500 0.179875 -0.250000
v 0.034772 -0.226250 0.257795
v 0.034772 -0.226250 -0.257795
v 0.034118 0.224517 -0.259662
v 0.034118 0.224517 0.259662
v 0.037500 0.090239 0.250000
v 0.037500 0.043960 -0.250000
v 0.037500 0.043960 0.250000
v 0.218125 0.225000 -0.250000
v 0.261639 0.235967 0.273413
v 0.218125 -0.226250 -0.250000
v 0.218125 0.179875 -0.250000
v 0.221029 -0.226250 -0.257795
v 0.221724 0.224517 -0.259662
v 0.218125 0.043960 -0.250000
v 0.218125 0.225000 0.250000
v -0.011774 0.235967 0.273413
v 0.218125 -0.226250 0.250000
v 0.221029 -0.226250 0.257795
v 0.221724 0.224517 0.259662
v 0.196282 0.244361 0.191362
v 0.218125 0.090239 0.250000
v 0.218125 0.043960 0.250000
v 0.127813 0.090239 0.250000
v 0.127813 0.043960 0.250000
v 0.037500 0.067099 0.250000
v 0.218125 0.067099 0.250000
v 0.127813 0.090239 0.247734
v 0.037500 0.090239 0.247734
v 0.127813 0.043960 0.247734
v 0.037500 0.043960 0.247734
v 0.037500 0.067099 0.247734
v 0.218125 0.067099 0.247734
v 0.218125 0.043960 0.247734
v 0.218125 0.090239 0.247734
v 0.037500 0.043960 -0.239124
v 0.037500 0.179875 -0.239124
v 0.218125 0.179875 -0.239124
v 0.218125 0.043960 -0.239124
v 0.225681 0.256862 -0.201496
v 0.225681 0.256862 0.201496
v 0.024185 0.256862 0.201496
v 0.029238 0.235967 -0.273413
v 0.226779 0.235967 0.273413
v 0.199990 0.256862 0.201496
v 0.189951 -0.175673 0.261418
v 0.065674 -0.175673 0.261418
v 0.127813 0.010242 0.261418
v 0.065674 0.010242 0.261418
v 0.189951 0.010242 0.261418
v -0.010000 0.146234 0.119948
v -0.010000 -0.079391 0.119948
v -0.010000 0.146234 -0.130052
v -0.010000 -0.079391 -0.130052
v 0.260000 0.146234 -0.130052
v 0.260000 0.146234 0.119948
v 0.260000 -0.079391 -0.130052
v 0.260000 -0.079391 0.119948
v 0.189419 0.253439 -0.128127
v 0.189419 0.253439 0.128127
v 0.061292 0.253439 0.128127
v 0.061292 0.253439 -0.128127
v 0.037500 -0.091145 -0.250000
v 0.218125 -0.091145 -0.250000
v 0.037500 -0.023593 -0.250000
v 0.218125 -0.023593 -0.250000
v 0.037500 -0.023593 -0.239355
v 0.037500 -0.091145 -0.239355
v 0.218125 -0.023593 -0.239355
v 0.218125 -0.091145 -0.239355
vt 0.031434 0.394021
vt 0.032408 0.432252
vt 0.004533 0.432947
vt 0.003823 0.392915
vt 0.802694 0.822006
vt 0.802586 0.431004
vt 0.809652 0.416940
vt 0.809653 0.829517
vt 0.033312 0.629728
vt 0.069749 0.629728
vt 0.069749 0.655466
vt 0.069749 0.801313
vt 0.069749 0.831592
vt 0.033312 0.831592
vt 0.033312 0.764304
vt 0.033312 0.697016
vt 0.872862 0.822007
vt 0.872753 0.431004
vt 0.879820 0.416940
vt 0.879820 0.829517
vt 0.187535 0.423688
vt 0.215551 0.423363
vt 0.219339 0.430447
vt 0.190414 0.431256
vt 0.077560 0.625827
vt 0.077560 0.652560
vt 0.427568 0.742646
vt 0.427568 0.894129
vt 0.413119 0.898211
vt 0.413119 0.738705
vt 0.427568 0.711196
vt 0.413119 0.705590
vt 0.668456 0.852068
vt 0.698736 0.852068
vt 0.701883 0.858362
vt 0.670659 0.858362
vt 0.915229 0.000519
vt 0.954814 0.000519
vt 0.954814 0.067807
vt 0.954814 0.135095
vt 0.954814 0.202383
vt 0.915230 0.202383
vt 0.915230 0.172104
vt 0.915229 0.099180
vt 0.915229 0.026257
vt 0.988724 0.847377
vt 0.988724 0.428044
vt 0.999481 0.416940
vt 0.999481 0.858480
vt 0.000519 0.697016
vt 0.000519 0.764304
vt 0.716705 0.392156
vt 0.716705 0.365922
vt 0.770535 0.365922
vt 0.770535 0.392156
vt 0.712946 0.782343
vt 0.739180 0.782343
vt 0.739180 0.836174
vt 0.712946 0.836174
vt 0.029526 0.033770
vt 0.004972 0.034591
vt 0.001674 0.028691
vt 0.027043 0.027693
vt 0.715666 0.415902
vt 0.696532 0.415902
vt 0.696531 0.000519
vt 0.715666 0.000519
vt 0.689529 0.409797
vt 0.689391 0.014799
vt 0.108796 0.910601
vt 0.078598 0.850470
vt 0.093591 0.850470
vt 0.117750 0.898575
vt 0.545964 0.409797
vt 0.545828 0.014799
vt 0.552968 0.000519
vt 0.552967 0.415902
vt 0.085771 0.818471
vt 0.099329 0.824871
vt 0.138746 0.776984
vt 0.141710 0.791681
vt 0.429575 0.855830
vt 0.444568 0.855830
vt 0.450306 0.881429
vt 0.436747 0.887829
vt 0.489723 0.929317
vt 0.492686 0.914619
vt 0.459773 0.795699
vt 0.468726 0.807725
vt 0.572102 0.000519
vt 0.572102 0.415902
vt 0.138746 0.923957
vt 0.141710 0.909260
vt 0.489723 0.782343
vt 0.492686 0.797041
vt 0.814932 0.192253
vt 0.814931 0.029554
vt 0.875403 0.000519
vt 0.875403 0.028667
vt 0.875403 0.188173
vt 0.875403 0.221288
vt 0.206995 0.025624
vt 0.219339 0.270157
vt 0.189437 0.268905
vt 0.186305 0.215081
vt 0.180810 0.144627
vt 0.177427 0.027293
vt 0.880858 0.800409
vt 0.880858 0.475011
vt 0.914439 0.416940
vt 0.914439 0.858479
vt 0.206270 0.943043
vt 0.206270 0.634010
vt 0.217142 0.625827
vt 0.217142 0.951226
vt 0.981437 0.189059
vt 0.981437 0.037575
vt 0.995886 0.033635
vt 0.995886 0.193141
vt 0.801853 0.365922
vt 0.801853 0.384606
vt 0.801853 0.403290
vt 0.771573 0.403290
vt 0.771573 0.365922
vt 0.039165 0.272639
vt 0.016156 0.272636
vt 0.185843 0.389146
vt 0.175392 0.381359
vt 0.181138 0.279606
vt 0.000519 0.442606
vt 0.202383 0.442606
vt 0.202383 0.624789
vt 0.000519 0.624789
vt 0.711908 0.812623
vt 0.493725 0.812623
vt 0.493725 0.782343
vt 0.711908 0.782343
vt 0.740576 0.720322
vt 0.740521 0.524821
vt 0.037803 0.148395
vt 0.038058 0.219177
vt 0.566648 0.851030
vt 0.493725 0.851030
vt 0.493725 0.832346
vt 0.639571 0.832346
vt 0.639571 0.851030
vt 0.220378 0.876580
vt 0.220378 0.734625
vt 0.280849 0.705590
vt 0.280849 0.738706
vt 0.280849 0.898211
vt 0.280849 0.926359
vt 0.220378 0.897324
vt 0.179269 0.020933
vt 0.209764 0.019316
vt 0.903279 0.317735
vt 0.903279 0.008702
vt 0.914191 0.000519
vt 0.914191 0.325918
vt 0.427568 0.920862
vt 0.413119 0.926359
vt 0.522610 0.852068
vt 0.520265 0.858362
vt 0.142748 0.922830
vt 0.142748 0.849907
vt 0.142748 0.776984
vt 0.171493 0.799733
vt 0.171493 0.849907
vt 0.171493 0.900081
vt 0.981437 0.006125
vt 0.995886 0.000519
vt 0.077560 0.804043
vt 0.077560 0.835493
vt 0.029625 0.440771
vt 0.428536 0.000519
vt 0.428536 0.416836
vt 0.220378 0.416836
vt 0.220378 0.000519
vt 0.214732 0.390176
vt 0.000519 0.441568
vt 0.976874 0.847381
vt 0.976873 0.428044
vt 0.987686 0.416940
vt 0.987686 0.858484
vt 0.496872 0.852068
vt 0.493725 0.858362
vt 0.333471 0.709736
vt 0.346465 0.705590
vt 0.346465 0.847545
vt 0.346465 0.868289
vt 0.333471 0.864252
vt 0.333471 0.844551
vt 0.949059 0.858479
vt 0.915478 0.800409
vt 0.915478 0.475010
vt 0.949059 0.416940
vt 0.836429 0.378534
vt 0.836429 0.415902
vt 0.810691 0.415902
vt 0.810691 0.397218
vt 0.810691 0.378534
vt 0.950097 0.635123
vt 0.950097 0.416940
vt 0.975835 0.416940
vt 0.975835 0.635123
vt 0.981437 0.215791
vt 0.995886 0.221289
vt 0.701883 0.877540
vt 0.493725 0.877539
vt 0.425110 0.417874
vt 0.425110 0.490795
vt 0.423281 0.490795
vt 0.423281 0.417874
vt 0.219339 0.461290
vt 0.219339 0.479975
vt 0.217510 0.479975
vt 0.217510 0.461290
vt 0.493725 0.813661
vt 0.566648 0.813661
vt 0.639571 0.813661
vt 0.219339 0.442606
vt 0.217510 0.442606
vt 0.754073 0.395024
vt 0.735389 0.395024
vt 0.735389 0.393195
vt 0.754073 0.393195
vt 0.427978 0.417874
vt 0.427978 0.490795
vt 0.426148 0.490795
vt 0.426149 0.417874
vt 0.716705 0.395024
vt 0.716705 0.393195
vt 0.427978 0.563726
vt 0.426148 0.563726
vt 0.425110 0.563726
vt 0.423280 0.563726
vt 0.046015 0.279478
vt 0.043843 0.382326
vt 0.000763 0.010115
vt 0.208877 0.000519
vt 0.178946 0.625827
vt 0.178946 0.775945
vt 0.128772 0.775945
vt 0.078598 0.775945
vt 0.078598 0.625827
vt 0.980399 0.000519
vt 0.980399 0.218702
vt 0.955852 0.177863
vt 0.955852 0.027745
vt 0.974644 0.636162
vt 0.974644 0.854344
vt 0.950097 0.827118
vt 0.950097 0.677000
vt 0.856798 0.222327
vt 0.856798 0.368174
vt 0.814931 0.345424
vt 0.814931 0.245076
vt 0.534896 0.744869
vt 0.534896 0.781305
vt 0.429575 0.717705
vt 0.429575 0.535522
vt 0.534896 0.416940
vt 0.534896 0.635123
vt 0.534896 0.672491
vt 0.534896 0.712076
vt 0.429643 0.307096
vt 0.429575 0.109597
vt 0.220378 0.417874
vt 0.422242 0.417874
vt 0.422242 0.600057
vt 0.220378 0.600057
vt 0.810745 0.728224
vt 0.810691 0.532723
vt 0.641256 0.453377
vt 0.641256 0.486170
vt 0.641256 0.525754
vt 0.641256 0.563122
vt 0.641256 0.781305
vt 0.535935 0.662723
vt 0.535935 0.480541
vt 0.641256 0.416940
vt 0.573210 0.315079
vt 0.573141 0.117581
vt 0.813893 0.218702
vt 0.813893 0.328447
vt 0.813893 0.364884
vt 0.716705 0.301283
vt 0.716705 0.119101
vt 0.813893 0.000519
vt 0.739483 0.453377
vt 0.739483 0.563122
vt 0.739483 0.781305
vt 0.642295 0.662723
vt 0.642295 0.480541
vt 0.739483 0.416940
vt 0.220378 0.601095
vt 0.427291 0.601095
vt 0.427291 0.704552
vt 0.220378 0.704552
vt 0.399086 0.709627
vt 0.399086 0.864143
vt 0.347503 0.838327
vt 0.347503 0.734870
vt 0.179985 0.891983
vt 0.179985 0.685070
vt 0.876442 0.266676
vt 0.876441 0.059762
vt 0.412081 0.705590
vt 0.412081 0.868289
vt 0.281888 0.839009
vt 0.281888 0.735553
vt 0.049130 0.155577
vt 0.046524 0.208985
vt 0.173111 0.154455
vt 0.174063 0.207825
vn 0.0000 0.0000 -1.0000
vn -0.0995 -0.9950 0.0000
vn 0.0000 0.0000 1.0000
vn 0.0995 -0.9950 0.0000
vn 0.0000 -0.9988 0.0499
vn 0.0000 -0.9988 -0.0499
vn 0.0000 -0.7685 0.6399
vn 0.0000 1.0000 0.0000
vn 0.8595 -0.5111 0.0000
vn 1.0000 0.0000 0.0000
vn 0.0000 0.9696 0.2448
vn -0.8880 0.0000 0.4599
vn 0.0000 -0.9696 0.2448
vn 0.8880 0.0000 0.4599
vn -1.0000 0.0000 0.0000
vn 0.0000 0.9603 -0.2790
vn -0.5024 0.8646 0.0000
vn -0.9285 0.3714 0.0000
vn 0.0000 -0.7685 -0.6399
vn 0.9920 0.1259 0.0000
vn 0.0000 0.9603 0.2790
vn 0.9250 0.3799 0.0000
vn 0.0000 0.3207 0.9472
vn 0.0000 -1.0000 0.0000
vn -0.8551 -0.5185 0.0000
vn 0.0000 0.6297 -0.7768
vn 0.5024 0.8646 0.0000
vn -0.3756 0.0000 0.9268
vn 0.3756 0.0000 0.9268
vn 0.0000 -0.2202 0.9755
vn -0.9971 0.0000 0.0767
vn -0.9977 -0.0679 0.0000
vn -0.9920 0.1259 0.0000
vn 0.9971 0.0000 0.0767
vn 0.9977 -0.0679 0.0000
vn 0.9965 0.0000 -0.0831
vn -0.9965 0.0000 -0.0831
vn 0.0000 0.9899 -0.1421
vn 0.2789 0.9603 0.0000
vn -0.2731 0.9620 0.0000
vn 0.0000 0.6297 0.7768
vn 0.0000 0.9899 0.1421
usemtl Material
s off
f 69/1/1 66/2/1 4/3/1 12/4/1
f 3/5/2 4/6/2 39/7/2 40/8/2
f 13/9/3 3/10/3 73/11/3 53/12/3 2/13/3 14/14/3 19/15/3 18/16/3
f 1/17/4 2/18/4 41/19/4 38/20/4
f 52/21/5 1/22/5 38/23/5 61/24/5
f 73/11/6 3/10/6 40/25/6 77/26/6
f 62/27/7 77/28/7 101/29/7 5/30/7
f 41/31/7 62/27/7 5/30/7 74/32/7
f 56/33/8 10/34/8 36/35/8 59/36/8
f 46/37/3 16/38/3 20/39/3 21/40/3 17/41/3 47/42/3 63/43/3 81/44/3 79/45/3
f 40/46/9 39/47/9 54/48/9 67/49/9
f 20/50/3 18/16/3 19/15/3 21/51/3
f 24/52/3 27/53/3 28/54/3 29/55/3
f 26/56/3 22/57/3 23/58/3 25/59/3
f 68/60/8 8/61/8 30/62/8 70/63/8
f 31/64/10 30/65/10 33/66/10 32/67/10
f 8/68/8 9/69/8 33/66/8 30/65/8
f 19/70/11 14/71/11 23/72/11 22/73/11
f 10/74/8 11/75/8 37/76/8 36/77/8
f 14/71/12 17/78/12 25/79/12 23/72/12
f 17/78/13 21/80/13 26/81/13 25/79/13
f 13/82/14 27/83/14 24/84/14 16/85/14
f 20/86/13 16/85/13 24/84/13 29/87/13
f 13/82/11 18/88/11 28/89/11 27/83/11
f 36/77/15 37/76/15 35/90/15 34/91/15
f 21/92/14 19/70/14 22/73/14 26/93/14
f 20/94/12 29/95/12 28/89/12 18/88/12
f 7/96/16 97/97/16 54/98/16 55/99/16 100/100/16 6/101/16
f 11/102/1 51/103/1 64/104/1 122/105/1 120/106/1 57/107/1
f 99/108/17 7/109/17 6/110/17 74/111/17
f 43/112/18 44/113/18 98/114/18 97/115/18
f 71/116/19 61/117/19 100/118/19 55/119/19
f 65/120/3 83/121/3 63/122/3 47/123/3 50/124/3
f 72/125/1 69/1/1 12/4/1 48/126/1
f 64/104/10 58/127/10 94/128/10 93/129/10
f 112/130/10 113/131/10 115/132/10 114/133/10
f 56/134/3 65/135/3 50/136/3 10/137/3
f 4/6/20 3/5/20 113/138/20 112/139/20
f 57/107/1 120/106/1 121/140/1 68/60/1
f 68/60/1 121/140/1 123/141/1 72/125/1 48/126/1 8/61/1
f 85/142/3 86/143/3 89/144/3 90/145/3 92/146/3
f 102/147/21 99/148/21 74/149/21 5/150/21 101/151/21 67/152/21 98/153/21
f 11/102/8 57/107/8 60/154/8 37/155/8
f 45/156/22 42/157/22 7/158/22 99/159/22
f 77/28/7 40/160/7 67/161/7 101/29/7
f 75/162/8 56/33/8 59/36/8 76/163/8
f 80/164/23 82/165/23 65/166/23 106/167/23 105/168/23 107/169/23
f 61/117/19 38/170/19 6/171/19 100/118/19
f 2/13/6 53/12/6 62/172/6 41/173/6
f 66/2/5 52/21/5 61/24/5 71/174/5
f 34/175/24 35/176/24 31/177/24 32/178/24
f 15/179/1 1/22/1 52/21/1 58/127/1
f 4/3/5 66/2/5 71/174/5 39/180/5
f 38/181/25 41/182/25 74/183/25 6/184/25
f 9/185/8 75/162/8 76/163/8 33/186/8
f 45/187/26 99/188/26 102/189/26 98/190/26 44/191/26 78/192/26
f 54/193/27 97/194/27 98/195/27 67/196/27
f 49/197/3 46/198/3 79/199/3 84/200/3 80/201/3
f 9/202/3 49/203/3 80/204/3 75/205/3
f 122/105/1 64/104/1 72/125/1 123/141/1
f 39/206/19 71/116/19 55/119/19 54/207/19
f 57/107/8 68/60/8 70/63/8 60/154/8
f 59/36/3 36/35/3 34/208/3 32/209/3 33/186/3 76/163/3
f 53/12/6 73/11/6 77/26/6 62/172/6
f 58/127/1 52/21/1 66/2/1 69/1/1
f 79/210/24 81/211/24 85/212/24 92/213/24
f 83/214/10 65/215/10 88/216/10 89/217/10
f 89/144/3 88/218/3 87/219/3 91/220/3 90/145/3
f 63/221/10 83/214/10 89/217/10 86/222/10
f 80/223/15 84/224/15 90/225/15 91/226/15
f 65/227/8 82/228/8 87/229/8 88/230/8
f 84/224/15 79/231/15 92/232/15 90/225/15
f 82/228/8 80/233/8 91/234/8 87/229/8
f 81/211/24 63/235/24 86/236/24 85/212/24
f 51/103/1 15/179/1 58/127/1 64/104/1
f 72/125/15 96/237/15 95/238/15 69/1/15
f 58/127/24 69/1/24 95/238/24 94/128/24
f 70/63/1 30/62/1 31/239/1 35/240/1 37/155/1 60/154/1
f 72/125/8 64/104/8 93/129/8 96/237/8
f 93/129/1 94/128/1 95/238/1 96/237/1
f 103/241/3 107/242/3 105/243/3 106/244/3 104/245/3
f 65/246/28 56/247/28 104/248/28 106/249/28
f 75/250/29 80/251/29 107/252/29 103/253/29
f 56/254/30 75/255/30 103/256/30 104/257/30
f 14/258/31 2/259/31 108/260/31 109/261/31 10/262/31 50/263/31 47/264/31 17/265/31
f 11/75/32 10/74/32 109/266/32 111/267/32
f 111/268/15 109/269/15 108/270/15 110/271/15
f 2/18/33 1/17/33 110/272/33 108/273/33
f 13/274/34 16/275/34 46/276/34 49/277/34 9/278/34 115/279/34 113/280/34 3/281/34
f 9/69/35 8/68/35 114/282/35 115/283/35
f 48/284/36 12/285/36 4/286/36 112/287/36 114/288/36 8/289/36
f 15/290/37 51/291/37 11/292/37 111/293/37 110/294/37 1/295/37
f 119/296/8 118/297/8 117/298/8 116/299/8
f 43/300/38 42/301/38 119/302/38 116/303/38
f 44/113/39 43/112/39 116/304/39 117/305/39
f 42/157/40 45/156/40 118/306/40 119/307/40
f 42/301/41 43/300/41 97/308/41 7/309/41
f 45/187/42 78/192/42 44/191/42 117/310/42 118/311/42
f 123/141/15 121/140/15 127/312/15 126/313/15
f 125/314/1 124/315/1 126/313/1 127/312/1
f 120/106/10 122/105/10 124/315/10 125/314/10
f 121/140/8 120/106/8 125/314/8 127/312/8
f 122/105/24 123/141/24 126/313/24 124/315/24
