# Blender v3.0.1 OBJ File: 'CardboardBox.blend'
# www.blender.org
mtllib CardboardBox.mtl
o Cube
v 0.302245 0.479679 0.299789
v 0.302245 -0.121778 0.302245
v -0.302245 0.479679 0.299789
v -0.302245 -0.121778 0.302245
v 0.302245 0.552451 0.006435
v -0.302245 0.552451 0.006435
v -0.302245 0.476530 0.302245
v 0.302245 0.476530 0.302245
v 0.302245 0.479679 -0.299789
v 0.302245 -0.121778 -0.302245
v -0.302245 0.479679 -0.299789
v -0.302245 -0.121778 -0.302245
v 0.302245 0.552451 -0.006435
v -0.302245 0.552451 -0.006435
v -0.302245 0.476530 -0.302245
v 0.302245 0.476530 -0.302245
v -0.281800 -0.092378 0.281800
v -0.281800 0.465458 0.281800
v -0.281800 0.468394 0.279509
v 0.281800 0.465458 0.281800
v 0.281800 -0.092378 0.281800
v 0.281800 0.468394 0.279509
v 0.281800 0.536243 0.005999
v -0.281800 0.536243 0.005999
v -0.281800 -0.092378 -0.281800
v -0.281800 0.465458 -0.281800
v -0.281800 0.468394 -0.279509
v 0.281800 0.465458 -0.281800
v 0.281800 -0.092378 -0.281800
v 0.281800 0.468394 -0.279509
v 0.281800 0.536243 -0.005999
v -0.281800 0.536243 -0.005999
vt 0.265687 0.775713
vt 0.530258 0.775713
vt 0.530258 0.907999
vt 0.265687 0.907999
vt 0.923550 0.691127
vt 0.920709 0.691096
vt 0.920709 0.528296
vt 0.923550 0.528326
vt 0.530258 0.262237
vt 0.265686 0.262237
vt 0.265687 0.000372
vt 0.530258 0.000372
vt 0.755477 0.527552
vt 0.755477 0.280878
vt 0.999628 0.280878
vt 0.999628 0.527552
vt 0.792867 0.000372
vt 0.792867 0.264943
vt 0.531001 0.264943
vt 0.531001 0.000372
vt 0.264943 0.265686
vt 0.264943 0.527552
vt 0.000372 0.527552
vt 0.000372 0.265686
vt 0.890285 0.792867
vt 0.757999 0.792867
vt 0.757999 0.528296
vt 0.890285 0.528296
vt 0.920709 0.854683
vt 0.920709 0.691892
vt 0.923550 0.691870
vt 0.923550 0.854661
vt 0.000372 0.528296
vt 0.264943 0.528296
vt 0.264943 0.790161
vt 0.000372 0.790161
vt 0.247046 0.790904
vt 0.247046 0.914242
vt 0.000372 0.914242
vt 0.000372 0.790904
vt 0.579250 0.927512
vt 0.579250 0.775733
vt 0.581899 0.775713
vt 0.581899 0.927493
vt 0.264943 0.000372
vt 0.264943 0.264943
vt 0.000372 0.264943
vt 0.000372 0.000372
vt 0.891029 0.537244
vt 0.901206 0.528296
vt 0.901206 0.792862
vt 0.891029 0.783913
vt 0.509838 0.527552
vt 0.265687 0.527552
vt 0.265687 0.280878
vt 0.509838 0.280878
vt 0.757256 0.528296
vt 0.757256 0.774970
vt 0.513104 0.774970
vt 0.513104 0.528296
vt 0.916948 0.000372
vt 0.916948 0.247046
vt 0.793610 0.247046
vt 0.793610 0.000372
vt 0.926942 0.680112
vt 0.924293 0.680084
vt 0.924293 0.528296
vt 0.926942 0.528324
vt 0.754733 0.527552
vt 0.510582 0.527552
vt 0.510582 0.280878
vt 0.754733 0.280878
vt 0.912869 0.528296
vt 0.919966 0.537244
vt 0.919966 0.783919
vt 0.912869 0.792867
vt 0.265687 0.280134
vt 0.265804 0.266584
vt 0.267423 0.266395
vt 0.267423 0.279932
vt 0.924787 0.264943
vt 0.917691 0.255995
vt 0.917691 0.009320
vt 0.924787 0.000372
vt 0.566444 0.908000
vt 0.555126 0.900574
vt 0.555126 0.777236
vt 0.566444 0.775713
vt 0.274862 0.266597
vt 0.274862 0.280134
vt 0.273243 0.279946
vt 0.273126 0.266395
vt 0.268166 0.280134
vt 0.268284 0.266584
vt 0.269903 0.266395
vt 0.269903 0.279932
vt 0.578506 0.908000
vt 0.567188 0.906476
vt 0.567188 0.783139
vt 0.578506 0.775713
vt 0.531001 0.775713
vt 0.542320 0.777236
vt 0.542320 0.900574
vt 0.531002 0.908000
vt 0.912126 0.792862
vt 0.901950 0.783914
vt 0.901949 0.537245
vt 0.912126 0.528296
vt 0.554382 0.908000
vt 0.543063 0.900574
vt 0.543064 0.777236
vt 0.554382 0.775713
vt 0.272383 0.266597
vt 0.272383 0.280134
vt 0.270764 0.279946
vt 0.270646 0.266395
vt 0.265687 0.774970
vt 0.265687 0.528296
vt 0.512361 0.528296
vt 0.512361 0.774970
vn 0.0000 0.9706 0.2408
vn 0.0000 0.6151 0.7885
vn 1.0000 0.0000 0.0000
vn -1.0000 0.0000 0.0000
vn 0.0000 0.0000 1.0000
vn 0.0000 0.9706 -0.2408
vn 0.0000 0.6151 -0.7885
vn 0.0000 0.0000 -1.0000
vn 0.0000 -0.9706 -0.2408
vn 0.0000 -0.6151 -0.7885
vn 0.0000 -1.0000 0.0000
vn -0.4762 0.8793 0.0000
vn 0.0000 -0.9706 0.2408
vn 0.0000 -0.6151 0.7885
vn 0.0000 0.0268 0.9996
vn -0.7464 -0.4093 0.5247
vn 0.0000 0.0268 -0.9996
vn 0.6123 -0.7673 -0.1903
vn 0.7464 -0.4093 0.5247
vn 0.7464 -0.4093 -0.5247
vn -0.6123 -0.7673 -0.1903
vn 0.6123 -0.7673 0.1903
vn 0.4762 0.8793 0.0000
vn -0.6123 -0.7673 0.1903
vn -0.7464 -0.4093 -0.5247
vn 0.0000 1.0000 0.0000
usemtl Material
s off
f 5/1/1 6/2/1 3/3/1 1/4/1
f 8/5/2 1/6/2 3/7/2 7/8/2
f 2/9/3 10/10/3 16/11/3 8/12/3
f 20/13/4 28/14/4 29/15/4 21/16/4
f 12/17/4 4/18/4 7/19/4 15/20/4
f 2/21/5 8/22/5 7/23/5 4/24/5
f 13/25/6 9/26/6 11/27/6 14/28/6
f 16/29/7 15/30/7 11/31/7 9/32/7
f 10/33/8 12/34/8 15/35/8 16/36/8
f 23/37/9 22/38/9 19/39/9 24/40/9
f 20/41/10 18/42/10 19/43/10 22/44/10
f 4/45/11 12/46/11 10/47/11 2/48/11
f 20/49/12 8/50/12 16/51/12 28/52/12
f 25/53/3 26/54/3 18/55/3 17/56/3
f 21/57/8 17/58/8 18/59/8 20/60/8
f 31/61/13 32/62/13 27/63/13 30/64/13
f 28/65/14 30/66/14 27/67/14 26/68/14
f 29/69/5 28/70/5 26/71/5 25/72/5
f 14/73/15 32/74/15 31/75/15 13/76/15
f 15/77/16 26/78/16 27/79/16 11/80/16
f 5/81/17 23/82/17 24/83/17 6/84/17
f 1/85/18 22/86/18 23/87/18 5/88/18
f 9/89/19 30/90/19 28/91/19 16/92/19
f 8/93/20 20/94/20 22/95/20 1/96/20
f 6/97/21 24/98/21 19/99/21 3/100/21
f 13/101/22 31/102/22 30/103/22 9/104/22
f 7/105/23 18/106/23 26/107/23 15/108/23
f 11/109/24 27/110/24 32/111/24 14/112/24
f 3/113/25 19/114/25 18/115/25 7/116/25
f 17/117/26 21/118/26 29/119/26 25/120/26
