# Blender v3.0.1 OBJ File: 'Shelf.blend'
# www.blender.org
mtllib Shelf.mtl
o Plane
v -0.200000 0.000000 0.200000
v 0.747784 0.000000 0.200000
v -0.200000 0.000000 -0.200000
v 0.747784 0.000000 -0.200000
v -0.200000 0.500000 0.200000
v 0.747784 0.500000 0.200000
v -0.200000 0.500000 -0.200000
v 0.747784 0.500000 -0.200000
v -0.200000 1.000000 0.200000
v 0.747784 1.000000 0.200000
v -0.220000 1.011821 -0.200000
v 0.767784 1.011821 -0.200000
v -0.200000 0.516989 -0.200000
v 0.747784 0.516989 -0.200000
v 0.747784 0.516989 0.200000
v -0.200000 0.516989 0.200000
v -0.200000 1.011821 0.200000
v 0.747784 1.011821 0.200000
v -0.200000 -0.017242 0.200000
v 0.747784 -0.017242 0.200000
v 0.767784 0.000000 0.200000
v 0.767784 0.500000 0.200000
v 0.767784 0.500000 -0.200000
v 0.767784 1.000000 0.200000
v 0.767784 0.516989 -0.200000
v 0.767784 0.516989 0.200000
v 0.767784 1.011821 0.200000
v 0.767784 -0.017242 0.200000
v 0.767784 -0.017242 -0.200000
v -0.220000 0.000000 0.200000
v -0.220000 0.500000 -0.200000
v -0.220000 0.500000 0.200000
v -0.220000 1.000000 0.200000
v -0.220000 0.516989 -0.200000
v -0.220000 0.516989 0.200000
v -0.220000 1.011821 0.200000
v -0.220000 -0.017242 -0.200000
v -0.220000 -0.017242 0.200000
v 0.767784 1.011821 -0.213059
v 0.767784 -0.017242 -0.213059
v -0.220000 1.011821 -0.213059
v -0.220000 -0.017242 -0.213059
vt 0.481166 0.305031
vt 0.325510 0.311322
vt 0.325510 0.000602
vt 0.481166 0.006893
vt 0.317378 0.312526
vt 0.474659 0.312526
vt 0.474659 0.610663
vt 0.317378 0.610663
vt 0.712530 0.639031
vt 0.712530 0.891061
vt 0.708131 0.891080
vt 0.708131 0.639050
vt 0.227922 0.749022
vt 0.227922 0.986676
vt 0.127623 0.986676
vt 0.127623 0.749022
vt 0.863729 0.932013
vt 0.863729 0.633880
vt 0.869073 0.633880
vt 0.869073 0.932013
vt 0.227991 0.749022
vt 0.227991 0.986676
vt 0.127693 0.986676
vt 0.127693 0.749022
vt 0.875621 0.932013
vt 0.870277 0.932013
vt 0.870277 0.633880
vt 0.875621 0.633880
vt 0.987018 0.942680
vt 0.992441 0.942680
vt 0.992441 0.948971
vt 0.987018 0.948971
vt 0.829732 0.948971
vt 0.824388 0.948971
vt 0.672455 0.948971
vt 0.668737 0.948971
vt 0.668737 0.942680
vt 0.672455 0.942680
vt 0.824388 0.942680
vt 0.829732 0.942680
vt 0.715028 0.920882
vt 0.715028 0.622739
vt 0.720451 0.622739
vt 0.720451 0.920882
vt 0.736645 0.922587
vt 0.736645 0.624449
vt 0.862470 0.624449
vt 0.862470 0.922587
vt 0.735441 0.316549
vt 0.735441 0.472203
vt 0.735441 0.477547
vt 0.735441 0.640254
vt 0.729150 0.634831
vt 0.729150 0.477547
vt 0.729150 0.472203
vt 0.635659 0.611867
vt 0.641083 0.611867
vt 0.641083 0.737692
vt 0.478378 0.737692
vt 0.473033 0.737692
vt 0.317378 0.737692
vt 0.317378 0.611867
vt 0.321096 0.611867
vt 0.473033 0.611867
vt 0.478378 0.611867
vt 0.735441 0.307042
vt 0.735208 0.315345
vt 0.609399 0.313333
vt 0.609499 0.307042
vt 0.609499 0.008905
vt 0.609399 0.002614
vt 0.735208 0.000602
vt 0.735441 0.008905
vt 0.608195 0.006025
vt 0.608195 0.163307
vt 0.608195 0.168651
vt 0.608195 0.320588
vt 0.608195 0.324307
vt 0.482370 0.324307
vt 0.482370 0.168651
vt 0.482370 0.163307
vt 0.482370 0.000602
vt 0.608195 0.000602
vt 0.862525 0.305031
vt 0.736645 0.311322
vt 0.736645 0.000602
vt 0.862525 0.006893
vt 0.019328 0.828252
vt 0.115175 0.830231
vt 0.110554 0.976322
vt 0.019328 0.976412
vt 0.021580 0.902640
vt 0.110554 0.902640
vt 0.111544 0.902702
vt 0.019328 0.901935
vt 0.019624 0.828996
vt 0.018876 0.903571
vt 0.110600 0.978903
vt 0.021626 0.978903
vt 0.019374 0.905130
vt 0.110600 0.905220
vt 0.113504 0.826455
vt 0.080809 0.826891
vt 0.824417 0.948839
vt 0.672485 0.948839
vt 0.668766 0.948839
vt 0.668766 0.942548
vt 0.672485 0.942548
vt 0.824417 0.942548
vt 0.829761 0.942548
vt 0.987047 0.942548
vt 0.992470 0.942548
vt 0.992470 0.948839
vt 0.987047 0.948839
vt 0.829761 0.948839
vt 0.881643 0.633880
vt 0.881643 0.909902
vt 0.876825 0.909921
vt 0.876825 0.633900
vt 0.882846 0.904326
vt 0.882846 0.633898
vt 0.887566 0.633880
vt 0.887566 0.904308
vt 0.893490 0.633880
vt 0.893490 0.904308
vt 0.888770 0.904326
vt 0.888770 0.633898
vt 0.000602 0.000602
vt 0.324307 0.000602
vt 0.324307 0.311322
vt 0.000602 0.311322
vt 0.476349 0.312526
vt 0.481166 0.312549
vt 0.481166 0.588573
vt 0.476349 0.588550
vt 0.727946 0.640246
vt 0.721655 0.484602
vt 0.721655 0.479258
vt 0.721655 0.321973
vt 0.727946 0.316549
vt 0.727946 0.479258
vt 0.727946 0.484602
vt 0.862470 0.616955
vt 0.862470 0.623246
vt 0.736645 0.623246
vt 0.736645 0.312526
vt 0.862470 0.312526
vt 0.862470 0.318817
vn 0.0000 0.0000 1.0000
vn 0.0000 -1.0000 0.0000
vn 0.0000 0.0000 -1.0000
vn 0.0000 1.0000 0.0000
vn 1.0000 0.0000 0.0000
vn 0.0000 -0.9991 -0.0422
vn -1.0000 0.0000 0.0000
vn 0.0000 -0.9996 -0.0295
vn 0.9999 0.0099 -0.0120
vn -0.9999 0.0099 -0.0120
usemtl Material
s off
f 14/1/1 12/2/1 11/3/1 13/4/1
f 4/5/1 8/6/1 7/7/1 3/8/1
f 9/9/1 10/10/1 18/11/1 17/12/1
f 7/13/2 8/14/2 6/15/2 5/16/2
f 8/17/3 7/18/3 13/19/3 14/20/3
f 16/21/4 15/22/4 14/23/4 13/24/4
f 6/25/1 15/26/1 16/27/1 5/28/1
f 2/29/1 20/30/1 28/31/1 21/32/1 22/33/1 26/34/1 24/35/1 27/36/1 18/37/1 10/38/1 15/39/1 6/40/1
f 2/41/1 1/42/1 19/43/1 20/44/1
f 4/45/4 3/46/4 1/47/4 2/48/4
f 12/49/3 25/50/3 23/51/3 29/52/3 4/53/3 8/54/3 14/55/3
f 21/56/5 28/57/5 29/58/5 23/59/5 25/60/5 12/61/5 27/62/5 24/63/5 26/64/5 22/65/5
f 4/66/6 29/67/6 28/68/6 20/69/6 19/70/6 38/71/6 37/72/6 3/73/6
f 30/74/7 32/75/7 35/76/7 33/77/7 36/78/7 11/79/7 34/80/7 31/81/7 37/82/7 38/83/7
f 9/84/8 11/85/8 12/86/8 10/87/8
f 3/88/9 7/89/9 13/90/9 11/91/9 9/92/9 16/93/9 5/94/9 1/95/9
f 2/96/10 6/97/10 15/98/10 10/99/10 12/100/10 14/101/10 8/102/10 4/103/10
f 16/104/1 9/105/1 17/106/1 36/107/1 33/108/1 35/109/1 32/110/1 30/111/1 38/112/1 19/113/1 1/114/1 5/115/1
f 40/116/5 39/117/5 12/118/5 29/119/5
f 29/120/2 37/121/2 42/122/2 40/123/2
f 11/124/4 12/125/4 39/126/4 41/127/4
f 39/128/3 40/129/3 42/130/3 41/131/3
f 11/132/7 41/133/7 42/134/7 37/135/7
f 11/136/3 13/137/3 7/138/3 3/139/3 37/140/3 31/141/3 34/142/3
f 18/143/4 27/144/4 12/145/4 11/146/4 36/147/4 17/148/4
o Plane.001
v -0.197795 -0.002492 0.193168
v 0.275681 -0.002492 0.193168
v -0.197795 1.001627 0.193168
v 0.275681 1.001627 0.193168
v -0.197795 1.001627 0.210551
v -0.197795 -0.002492 0.210551
v 0.275681 -0.002492 0.210551
v 0.275681 1.001627 0.210551
v -0.197795 0.666921 0.210551
v -0.197795 0.332214 0.210551
v -0.039969 -0.002492 0.210551
v 0.117856 -0.002492 0.210551
v 0.275681 0.332214 0.210551
v 0.275681 0.666921 0.210551
v 0.117856 1.001627 0.210551
v -0.039969 1.001627 0.210551
v 0.117856 0.332214 0.210551
v 0.117856 0.666921 0.210551
v 0.275681 0.443783 0.210551
v 0.275681 0.555352 0.210551
v 0.117856 0.443783 0.210551
v 0.117856 0.555352 0.210551
v 0.223073 0.332214 0.210551
v 0.170464 0.332214 0.210551
v 0.223073 0.666921 0.210551
v 0.170464 0.666921 0.210551
v 0.170464 0.443783 0.210551
v 0.170464 0.555352 0.210551
v 0.223073 0.443783 0.210551
v 0.223073 0.555352 0.210551
v 0.170464 0.611136 0.210551
v 0.170464 0.387999 0.210551
v 0.223073 0.611136 0.210551
v 0.223073 0.387999 0.210551
v 0.223073 0.611136 0.355917
v 0.223073 0.555352 0.355917
v 0.170464 0.611136 0.355917
v 0.170464 0.555352 0.355917
v 0.170464 0.443783 0.313855
v 0.223073 0.443783 0.313855
v 0.170464 0.555352 0.313855
v 0.223073 0.555352 0.313855
v 0.223073 0.443783 0.355917
v 0.223073 0.387999 0.355917
v 0.170464 0.443783 0.355917
v 0.170464 0.387999 0.355917
vt 0.000602 0.312526
vt 0.316174 0.312526
vt 0.316174 0.461329
vt 0.000602 0.461329
vt 0.687046 0.493900
vt 0.687046 0.510434
vt 0.687046 0.526968
vt 0.687046 0.543501
vt 0.581856 0.543501
vt 0.581856 0.493900
vt 0.722483 0.790252
vt 0.722483 0.641449
vt 0.727946 0.641449
vt 0.727946 0.691051
vt 0.727946 0.740651
vt 0.727946 0.790252
vt 0.720451 0.316624
vt 0.720451 0.621504
vt 0.715782 0.621535
vt 0.715174 0.531635
vt 0.715174 0.486003
vt 0.713863 0.452067
vt 0.713734 0.418166
vt 0.715174 0.316549
vt 0.697732 0.641083
vt 0.697732 0.325510
vt 0.703195 0.325510
vt 0.703195 0.430703
vt 0.703195 0.535894
vt 0.703195 0.641083
vt 0.729150 0.790261
vt 0.729150 0.641458
vt 0.734613 0.641458
vt 0.734613 0.691059
vt 0.734613 0.740660
vt 0.734613 0.790261
vt 0.642286 0.611867
vt 0.691887 0.611867
vt 0.691887 0.717058
vt 0.675354 0.717058
vt 0.658820 0.717058
vt 0.642286 0.717058
vt 0.328755 0.886470
vt 0.345289 0.886470
vt 0.345289 0.921533
vt 0.328755 0.921533
vt 0.328755 0.904002
vt 0.511217 0.866078
vt 0.527751 0.866078
vt 0.527751 0.883610
vt 0.527751 0.901142
vt 0.511217 0.901142
vt 0.705709 0.824565
vt 0.705709 0.870250
vt 0.689175 0.870250
vt 0.689175 0.824565
vt 0.493480 0.866078
vt 0.510014 0.866078
vt 0.510014 0.883610
vt 0.510014 0.901142
vt 0.493480 0.901142
vt 0.642286 0.860025
vt 0.658820 0.860025
vt 0.658820 0.895089
vt 0.642286 0.895089
vt 0.642286 0.877557
vt 0.939616 0.806604
vt 0.956149 0.806604
vt 0.956149 0.824136
vt 0.939616 0.824136
vt 0.894694 0.667551
vt 0.911227 0.667551
vt 0.911227 0.700017
vt 0.894694 0.700017
vt 0.911227 0.666347
vt 0.894694 0.666347
vt 0.894694 0.633880
vt 0.911227 0.633880
vt 0.347490 0.745842
vt 0.365022 0.745842
vt 0.365022 0.791527
vt 0.347490 0.791527
vt 0.347490 0.778308
vt 0.686429 0.590390
vt 0.668897 0.590390
vt 0.668897 0.544705
vt 0.686429 0.544705
vt 0.686429 0.557924
vt 0.687972 0.824565
vt 0.687972 0.841098
vt 0.642286 0.841098
vt 0.642286 0.824565
vt 0.346287 0.791527
vt 0.328755 0.791527
vt 0.328755 0.759061
vt 0.328755 0.745842
vt 0.346287 0.745842
vt 0.328755 0.792731
vt 0.346287 0.792731
vt 0.346287 0.825198
vt 0.346287 0.838417
vt 0.328755 0.838417
vt 0.706267 0.806827
vt 0.706267 0.823361
vt 0.693048 0.823361
vt 0.693048 0.806827
vt 0.346287 0.922737
vt 0.346287 0.939271
vt 0.328755 0.939271
vt 0.328755 0.922737
vt 0.686460 0.592152
vt 0.686460 0.608686
vt 0.668928 0.608686
vt 0.668928 0.592152
vt 0.564401 0.901524
vt 0.580934 0.901524
vt 0.580934 0.914743
vt 0.564401 0.914743
vt 0.660024 0.895089
vt 0.660024 0.860025
vt 0.676557 0.860025
vt 0.676557 0.895089
vt 0.475743 0.901142
vt 0.475743 0.866078
vt 0.492276 0.866078
vt 0.492276 0.901142
vt 0.642286 0.909512
vt 0.642286 0.896293
vt 0.677350 0.896293
vt 0.677350 0.909512
vt 0.632661 0.608686
vt 0.632661 0.595467
vt 0.667724 0.595467
vt 0.667724 0.608686
vt 0.939616 0.825340
vt 0.956149 0.825340
vt 0.956149 0.842871
vt 0.939616 0.842871
vt 0.631457 0.579769
vt 0.614923 0.579769
vt 0.598390 0.579769
vt 0.581856 0.579769
vt 0.581856 0.544705
vt 0.598390 0.544705
vt 0.614923 0.544705
vt 0.631457 0.544705
vt 0.913330 0.000602
vt 0.962931 0.000602
vt 0.962931 0.105793
vt 0.962931 0.210983
vt 0.962931 0.316174
vt 0.913330 0.316174
vt 0.863729 0.316174
vt 0.863729 0.210983
vt 0.863729 0.175920
vt 0.863729 0.140856
vt 0.863729 0.105793
vt 0.863729 0.000602
vn 0.0000 0.0000 -1.0000
vn 0.0000 -0.0000 1.0000
vn 0.0000 -1.0000 0.0000
vn 1.0000 -0.0000 0.0000
vn -1.0000 0.0000 0.0000
vn 0.0000 1.0000 -0.0000
usemtl Material
s off
f 43/149/11 45/150/11 46/151/11 44/152/11
f 60/153/12 68/154/12 67/155/12 56/156/12 50/157/12 57/158/12
f 43/159/13 44/160/13 49/161/13 54/162/13 53/163/13 48/164/13
f 44/165/14 46/166/14 50/167/14 56/168/14 62/169/14 61/170/14 55/171/14 49/172/14
f 45/173/15 43/174/15 48/175/15 52/176/15 51/177/15 47/178/15
f 46/179/16 45/180/16 47/181/16 58/182/16 57/183/16 50/184/16
f 54/185/12 49/186/12 55/187/12 65/188/12 66/189/12 59/190/12
f 72/191/12 62/192/12 56/193/12 67/194/12 75/195/12
f 64/196/12 70/197/12 73/198/12 68/199/12 60/200/12
f 73/201/16 79/202/16 77/203/16 75/204/16
f 59/205/12 66/206/12 74/207/12 69/208/12 63/209/12
f 65/210/12 55/211/12 61/212/12 71/213/12 76/214/12
f 66/215/12 65/216/12 76/217/12 74/218/12
f 71/219/16 69/220/16 81/221/16 82/222/16
f 70/223/13 72/224/13 84/225/13 83/226/13
f 72/227/14 75/228/14 77/229/14 78/230/14 84/231/14
f 69/232/15 74/233/15 88/234/15 87/235/15 81/236/15
f 74/237/13 76/238/13 86/239/13 88/240/13
f 73/241/15 70/242/15 83/243/15 80/244/15 79/245/15
f 76/246/14 71/247/14 82/248/14 85/249/14 86/250/14
f 83/251/13 84/252/13 78/253/13 80/254/13
f 88/255/12 86/256/12 85/257/12 87/258/12
f 80/259/12 78/260/12 77/261/12 79/262/12
f 82/263/16 81/264/16 87/265/16 85/266/16
f 80/267/12 87/268/12 85/269/12 78/270/12
f 84/271/11 82/272/11 81/273/11 83/274/11
f 84/275/14 78/276/14 85/277/14 82/278/14
f 80/279/15 83/280/15 81/281/15 87/282/15
f 73/283/12 75/284/12 67/285/12 68/286/12
f 63/287/12 69/288/12 71/289/12 61/290/12 62/291/12 72/292/12 70/293/12 64/294/12
f 58/295/12 47/296/12 51/297/12 52/298/12 48/299/12 53/300/12 54/301/12 59/302/12 63/303/12 64/304/12 60/305/12 57/306/12
o Plane.002_Plane.003
v 0.755063 -0.002492 0.193168
v 0.281587 -0.002492 0.193168
v 0.755063 1.001627 0.193168
v 0.281587 1.001627 0.193168
v 0.755063 1.001627 0.210551
v 0.755063 -0.002492 0.210551
v 0.281587 -0.002492 0.210551
v 0.281587 1.001627 0.210551
v 0.755063 0.666921 0.210551
v 0.755063 0.332214 0.210551
v 0.597238 -0.002492 0.210551
v 0.439412 -0.002492 0.210551
v 0.281587 0.332214 0.210551
v 0.281587 0.666921 0.210551
v 0.439412 1.001627 0.210551
v 0.597238 1.001627 0.210551
v 0.439412 0.332214 0.210551
v 0.439412 0.666921 0.210551
v 0.281587 0.443783 0.210551
v 0.281587 0.555352 0.210551
v 0.439412 0.443783 0.210551
v 0.439412 0.555352 0.210551
v 0.334195 0.332214 0.210551
v 0.386804 0.332214 0.210551
v 0.334195 0.666921 0.210551
v 0.386804 0.666921 0.210551
v 0.386804 0.443783 0.210551
v 0.386804 0.555352 0.210551
v 0.334195 0.443783 0.210551
v 0.334195 0.555352 0.210551
v 0.386804 0.611136 0.210551
v 0.386804 0.387999 0.210551
v 0.334195 0.611136 0.210551
v 0.334195 0.387999 0.210551
v 0.334195 0.611136 0.355917
v 0.334195 0.555352 0.355917
v 0.386804 0.611136 0.355917
v 0.386804 0.555352 0.355917
v 0.386804 0.443783 0.313855
v 0.334195 0.443783 0.313855
v 0.386804 0.555352 0.313855
v 0.334195 0.555352 0.313855
v 0.334195 0.443783 0.355917
v 0.334195 0.387999 0.355917
v 0.386804 0.443783 0.355917
v 0.386804 0.387999 0.355917
vt 0.000602 0.312526
vt 0.000602 0.461329
vt 0.316174 0.461329
vt 0.316174 0.312526
vt 0.687046 0.493900
vt 0.581856 0.493900
vt 0.581856 0.543501
vt 0.687046 0.543501
vt 0.687046 0.526968
vt 0.687046 0.510434
vt 0.722483 0.790252
vt 0.727946 0.790252
vt 0.727946 0.740651
vt 0.727946 0.691051
vt 0.727946 0.641449
vt 0.722483 0.641449
vt 0.720451 0.316624
vt 0.715174 0.316549
vt 0.713734 0.418166
vt 0.713863 0.452067
vt 0.715174 0.486003
vt 0.715174 0.531635
vt 0.715782 0.621535
vt 0.720451 0.621504
vt 0.697732 0.641083
vt 0.703195 0.641083
vt 0.703195 0.535894
vt 0.703195 0.430703
vt 0.703195 0.325510
vt 0.697732 0.325510
vt 0.729150 0.790261
vt 0.734613 0.790261
vt 0.734613 0.740660
vt 0.734613 0.691059
vt 0.734613 0.641458
vt 0.729150 0.641458
vt 0.642286 0.611867
vt 0.642286 0.717058
vt 0.658820 0.717058
vt 0.675354 0.717058
vt 0.691887 0.717058
vt 0.691887 0.611867
vt 0.328755 0.886470
vt 0.328755 0.904002
vt 0.328755 0.921533
vt 0.345289 0.921533
vt 0.345289 0.886470
vt 0.511217 0.866078
vt 0.511217 0.901142
vt 0.527751 0.901142
vt 0.527751 0.883610
vt 0.527751 0.866078
vt 0.705709 0.824565
vt 0.689175 0.824565
vt 0.689175 0.870250
vt 0.705709 0.870250
vt 0.493480 0.866078
vt 0.493480 0.901142
vt 0.510014 0.901142
vt 0.510014 0.883610
vt 0.510014 0.866078
vt 0.642286 0.860025
vt 0.642286 0.877557
vt 0.642286 0.895089
vt 0.658820 0.895089
vt 0.658820 0.860025
vt 0.939616 0.806604
vt 0.939616 0.824136
vt 0.956149 0.824136
vt 0.956149 0.806604
vt 0.894694 0.667551
vt 0.894694 0.700017
vt 0.911227 0.700017
vt 0.911227 0.667551
vt 0.911227 0.666347
vt 0.911227 0.633880
vt 0.894694 0.633880
vt 0.894694 0.666347
vt 0.347490 0.745842
vt 0.347490 0.778308
vt 0.347490 0.791527
vt 0.365022 0.791527
vt 0.365022 0.745842
vt 0.686429 0.590390
vt 0.686429 0.557924
vt 0.686429 0.544705
vt 0.668897 0.544705
vt 0.668897 0.590390
vt 0.687972 0.824565
vt 0.642286 0.824565
vt 0.642286 0.841098
vt 0.687972 0.841098
vt 0.346287 0.791527
vt 0.346287 0.745842
vt 0.328755 0.745842
vt 0.328755 0.759061
vt 0.328755 0.791527
vt 0.328755 0.792731
vt 0.328755 0.838417
vt 0.346287 0.838417
vt 0.346287 0.825198
vt 0.346287 0.792731
vt 0.706267 0.806827
vt 0.693048 0.806827
vt 0.693048 0.823361
vt 0.706267 0.823361
vt 0.346287 0.922737
vt 0.328755 0.922737
vt 0.328755 0.939271
vt 0.346287 0.939271
vt 0.686460 0.592152
vt 0.668928 0.592152
vt 0.668928 0.608686
vt 0.686460 0.608686
vt 0.564401 0.901524
vt 0.564401 0.914743
vt 0.580934 0.914743
vt 0.580934 0.901524
vt 0.660024 0.895089
vt 0.676557 0.895089
vt 0.676557 0.860025
vt 0.660024 0.860025
vt 0.475743 0.901142
vt 0.492276 0.901142
vt 0.492276 0.866078
vt 0.475743 0.866078
vt 0.642286 0.909512
vt 0.677350 0.909512
vt 0.677350 0.896293
vt 0.642286 0.896293
vt 0.632661 0.608686
vt 0.667724 0.608686
vt 0.667724 0.595467
vt 0.632661 0.595467
vt 0.939616 0.825340
vt 0.939616 0.842871
vt 0.956149 0.842871
vt 0.956149 0.825340
vt 0.631457 0.579769
vt 0.631457 0.544705
vt 0.614923 0.544705
vt 0.598390 0.544705
vt 0.581856 0.544705
vt 0.581856 0.579769
vt 0.598390 0.579769
vt 0.614923 0.579769
vt 0.913330 0.000602
vt 0.863729 0.000602
vt 0.863729 0.105793
vt 0.863729 0.140856
vt 0.863729 0.175920
vt 0.863729 0.210983
vt 0.863729 0.316174
vt 0.913330 0.316174
vt 0.962931 0.316174
vt 0.962931 0.210983
vt 0.962931 0.105793
vt 0.962931 0.000602
vn 0.0000 0.0000 -1.0000
vn 0.0000 -0.0000 1.0000
vn 0.0000 -1.0000 -0.0000
vn -1.0000 0.0000 0.0000
vn 1.0000 0.0000 0.0000
vn 0.0000 1.0000 -0.0000
usemtl Material
s off
f 89/307/17 90/308/17 92/309/17 91/310/17
f 106/311/18 103/312/18 96/313/18 102/314/18 113/315/18 114/316/18
f 89/317/19 94/318/19 99/319/19 100/320/19 95/321/19 90/322/19
f 90/323/20 95/324/20 101/325/20 107/326/20 108/327/20 102/328/20 96/329/20 92/330/20
f 91/331/21 93/332/21 97/333/21 98/334/21 94/335/21 89/336/21
f 92/337/22 96/338/22 103/339/22 104/340/22 93/341/22 91/342/22
f 100/343/18 105/344/18 112/345/18 111/346/18 101/347/18 95/348/18
f 118/349/18 121/350/18 113/351/18 102/352/18 108/353/18
f 110/354/18 106/355/18 114/356/18 119/357/18 116/358/18
f 119/359/22 121/360/22 123/361/22 125/362/22
f 105/363/18 109/364/18 115/365/18 120/366/18 112/367/18
f 111/368/18 122/369/18 117/370/18 107/371/18 101/372/18
f 112/373/18 120/374/18 122/375/18 111/376/18
f 117/377/22 128/378/22 127/379/22 115/380/22
f 116/381/19 129/382/19 130/383/19 118/384/19
f 118/385/20 130/386/20 124/387/20 123/388/20 121/389/20
f 115/390/21 127/391/21 133/392/21 134/393/21 120/394/21
f 120/395/19 134/396/19 132/397/19 122/398/19
f 119/399/21 125/400/21 126/401/21 129/402/21 116/403/21
f 122/404/20 132/405/20 131/406/20 128/407/20 117/408/20
f 129/409/19 126/410/19 124/411/19 130/412/19
f 134/413/18 133/414/18 131/415/18 132/416/18
f 126/417/18 125/418/18 123/419/18 124/420/18
f 128/421/22 131/422/22 133/423/22 127/424/22
f 126/425/18 124/426/18 131/427/18 133/428/18
f 130/429/17 129/430/17 127/431/17 128/432/17
f 130/433/20 128/434/20 131/435/20 124/436/20
f 126/437/21 133/438/21 127/439/21 129/440/21
f 119/441/18 114/442/18 113/443/18 121/444/18
f 109/445/18 110/446/18 116/447/18 118/448/18 108/449/18 107/450/18 117/451/18 115/452/18
f 104/453/18 103/454/18 106/455/18 110/456/18 109/457/18 105/458/18 100/459/18 99/460/18 94/461/18 98/462/18 97/463/18 93/464/18
